<svg width="209" height="51" viewBox="0 0 209 51" fill="none" xmlns="http://www.w3.org/2000/svg">
<path d="M61.1406 35.9381H76.0806V31.438H66.4506V14.488H61.1406V35.9381Z" fill="#0C1524"/>
<path d="M84.9302 32.9382C82.8002 32.9382 81.6902 31.0782 81.6902 28.2882C81.6902 25.4982 82.8002 23.6082 84.9302 23.6082C87.0602 23.6082 88.2002 25.4982 88.2002 28.2882C88.2002 31.0782 87.0602 32.9382 84.9302 32.9382ZM84.9602 36.4182C89.9102 36.4182 93.1502 32.9082 93.1502 28.2882C93.1502 23.6682 89.9102 20.1582 84.9602 20.1582C80.0402 20.1582 76.7402 23.6682 76.7402 28.2882C76.7402 32.9082 80.0402 36.4182 84.9602 36.4182Z" fill="#0C1524"/>
<path d="M101.719 41.2479C103.999 41.2479 106.009 40.7379 107.359 39.5379C108.589 38.4279 109.399 36.7479 109.399 34.4379V20.5779H104.719V22.2279H104.659C103.759 20.9379 102.379 20.1279 100.339 20.1279C96.5287 20.1279 93.8887 23.3079 93.8887 27.8079C93.8887 32.5179 97.0987 35.0979 100.549 35.0979C102.409 35.0979 103.579 34.3479 104.479 33.3279H104.599V34.8579C104.599 36.7179 103.729 37.7979 101.659 37.7979C100.039 37.7979 99.2287 37.1079 98.9587 36.2979H94.2187C94.6987 39.5079 97.4887 41.2479 101.719 41.2479ZM101.689 31.4679C99.8587 31.4679 98.6587 29.9679 98.6587 27.6579C98.6587 25.3179 99.8587 23.8179 101.689 23.8179C103.729 23.8179 104.809 25.5579 104.809 27.6279C104.809 29.7879 103.819 31.4679 101.689 31.4679Z" fill="#0C1524"/>
<path d="M119.022 32.9382C116.892 32.9382 115.782 31.0782 115.782 28.2882C115.782 25.4982 116.892 23.6082 119.022 23.6082C121.152 23.6082 122.292 25.4982 122.292 28.2882C122.292 31.0782 121.152 32.9382 119.022 32.9382ZM119.052 36.4182C124.002 36.4182 127.242 32.9082 127.242 28.2882C127.242 23.6682 124.002 20.1582 119.052 20.1582C114.132 20.1582 110.832 23.6682 110.832 28.2882C110.832 32.9082 114.132 36.4182 119.052 36.4182Z" fill="#0C1524"/>
<path d="M128.67 35.9381H133.56V20.578H128.67V35.9381ZM128.67 18.448H133.56V14.488H128.67V18.448Z" fill="#0C1524"/>
<path d="M135.682 41.0079H140.572V34.3479H140.632C141.592 35.6379 143.002 36.4179 144.982 36.4179C149.002 36.4179 151.672 33.2379 151.672 28.2579C151.672 23.6379 149.182 20.1279 145.102 20.1279C143.002 20.1279 141.502 21.0579 140.452 22.4379H140.362V20.5779H135.682V41.0079ZM143.722 32.6379C141.622 32.6379 140.422 30.9279 140.422 28.4379C140.422 25.9479 141.502 24.0579 143.632 24.0579C145.732 24.0579 146.722 25.7979 146.722 28.4379C146.722 31.0479 145.582 32.6379 143.722 32.6379Z" fill="#0C1524"/>
<path d="M159.634 36.4179C163.654 36.4179 166.624 34.6779 166.624 31.3179C166.624 27.3879 163.444 26.6979 160.744 26.2479C158.794 25.8879 157.054 25.7379 157.054 24.6579C157.054 23.6979 157.984 23.2479 159.184 23.2479C160.534 23.2479 161.464 23.6679 161.644 25.0479H166.144C165.904 22.0179 163.564 20.1279 159.214 20.1279C155.584 20.1279 152.584 21.8079 152.584 25.0479C152.584 28.6479 155.434 29.3679 158.104 29.8179C160.144 30.1779 162.004 30.3279 162.004 31.7079C162.004 32.6979 161.074 33.2379 159.604 33.2379C157.984 33.2379 156.964 32.4879 156.784 30.9579H152.164C152.314 34.3479 155.134 36.4179 159.634 36.4179Z" fill="#0C1524"/>
<path d="M173.267 36.3881C175.397 36.3881 176.747 35.5481 177.857 34.0481H177.947V35.9381H182.627V20.5781H177.737V29.1581C177.737 30.9881 176.717 32.2481 175.037 32.2481C173.477 32.2481 172.727 31.3181 172.727 29.6381V20.5781H167.867V30.6581C167.867 34.0781 169.727 36.3881 173.267 36.3881Z" fill="#0C1524"/>
<path d="M184.754 35.9379H189.644V27.3279C189.644 25.4979 190.544 24.2079 192.074 24.2079C193.544 24.2079 194.234 25.1679 194.234 26.8179V35.9379H199.124V27.3279C199.124 25.4979 199.994 24.2079 201.554 24.2079C203.024 24.2079 203.714 25.1679 203.714 26.8179V35.9379H208.604V25.9479C208.604 22.4979 206.864 20.1279 203.384 20.1279C201.404 20.1279 199.754 20.9679 198.554 22.8279H198.494C197.714 21.1779 196.184 20.1279 194.174 20.1279C191.954 20.1279 190.484 21.1779 189.524 22.7679H189.434V20.5779H184.754V35.9379Z" fill="#0C1524"/>
<path fill-rule="evenodd" clip-rule="evenodd" d="M11.1694 4.81057C9.38111 6.06102 7.76398 7.53946 6.36017 9.20373C12.0968 8.67114 19.385 9.5408 27.8465 13.7716C36.8822 18.2893 44.1582 18.4421 49.222 17.4653C48.7625 16.0742 48.184 14.7372 47.4989 13.4662C41.7022 14.0776 34.271 13.2683 25.6105 8.93821C20.111 6.18846 15.2632 5.05574 11.1694 4.81057ZM44.1127 8.64654C39.5351 3.53198 32.8827 0.313232 25.4785 0.313232C23.3041 0.313232 21.1944 0.590866 19.1831 1.11258C21.9071 1.85584 24.8009 2.94322 27.8465 4.46607C34.1872 7.63639 39.6615 8.65718 44.1127 8.64654ZM50.3046 22.3483C44.1871 23.5563 35.7395 23.3082 25.6105 18.2437C16.141 13.509 8.60406 13.5686 3.52089 14.6982C3.25852 14.7565 3.00232 14.8177 2.7523 14.8815C2.08679 16.3288 1.55556 17.8508 1.17439 19.4313C1.5815 19.3226 2.00218 19.2192 2.43622 19.1227C8.60298 17.7523 17.3161 17.8118 27.8465 23.0771C37.3161 27.8118 44.853 27.7522 49.9362 26.6226C50.1104 26.584 50.282 26.544 50.4507 26.5027C50.4692 26.1086 50.4785 25.712 50.4785 25.3132C50.4785 24.3101 50.4195 23.3207 50.3046 22.3483ZM49.6345 31.7786C43.5764 32.8377 35.3747 32.4312 25.6105 27.5492C16.141 22.8145 8.60406 22.8741 3.52089 24.0037C2.39258 24.2543 1.37756 24.5597 0.482178 24.8821C0.479737 25.0255 0.478516 25.1692 0.478516 25.3132C0.478516 39.1204 11.6714 50.3132 25.4785 50.3132C37.0499 50.3132 46.7851 42.4519 49.6345 31.7786Z" fill="#FF8159"/>
</svg>
