<svg width="58" height="51" viewBox="0 0 58 51" fill="none" xmlns="http://www.w3.org/2000/svg">
<path d="M28.7498 8.35852C29.3634 8.35852 29.861 7.86095 29.861 7.24738V1.58722C29.861 0.973644 29.3635 0.476074 28.7498 0.476074C28.1361 0.476074 27.6387 0.973533 27.6387 1.58722V7.24738C27.6388 7.86095 28.1362 8.35852 28.7498 8.35852Z" fill="white"/>
<path d="M20.3954 10.1838C20.6067 10.5191 20.9674 10.7026 21.3365 10.7026C21.5389 10.7026 21.7439 10.6473 21.9278 10.5314C22.4469 10.2043 22.6025 9.51815 22.2754 8.99891L19.3148 4.30155C18.9876 3.78243 18.3015 3.62676 17.7825 3.95399C17.2633 4.28111 17.1078 4.96724 17.4349 5.48648L20.3954 10.1838Z" fill="white"/>
<path d="M35.5749 10.5316C35.7588 10.6473 35.9636 10.7025 36.1658 10.7025C36.535 10.7025 36.896 10.5188 37.1072 10.1833L40.0646 5.48594C40.3915 4.9666 40.2356 4.28069 39.7163 3.95357C39.1967 3.62678 38.511 3.78278 38.184 4.30191L35.2266 8.99927C34.8997 9.51872 35.0557 10.2046 35.5749 10.5316Z" fill="white"/>
<path d="M56.837 26.6351L54.9064 23.2244C54.604 22.6902 53.9259 22.5024 53.3923 22.8048C52.8581 23.1072 52.6703 23.7851 52.9727 24.319L54.9024 27.7282C54.9991 27.8995 54.974 28.0648 54.9504 28.148C54.9277 28.2281 54.8653 28.376 54.702 28.4662L51.7265 30.1144C51.4622 30.2604 51.1172 30.1682 50.9731 29.9139L50.2172 28.5768C50.2141 28.5708 50.2105 28.5652 50.2073 28.5593L42.3926 14.7374C42.296 14.5673 42.3205 14.4042 42.3436 14.322C42.3659 14.2426 42.4279 14.0958 42.5913 14.0055L45.5703 12.357C45.8379 12.2088 46.1745 12.2988 46.3208 12.5581L48.0624 15.6352C48.3648 16.1693 49.0429 16.357 49.5767 16.0549C50.1108 15.7526 50.2986 15.0746 49.9964 14.5406L48.2556 11.4649C47.5131 10.1486 45.8261 9.67647 44.4948 10.4124L41.5159 12.0609C40.8713 12.4171 40.4057 13.0059 40.2048 13.7191C40.0152 14.3916 40.083 15.0936 40.3933 15.7098L38.7524 16.1853C38.0534 16.3875 37.6291 16.4972 37.3937 16.4972C37.3927 16.4972 37.3918 16.4972 37.3909 16.4972C37.2288 16.4967 37.052 16.4348 36.5474 16.2437C36.3185 16.157 36.0335 16.049 35.6832 15.9268L32.7759 14.9104C31.168 14.3488 30.4427 14.379 29.392 14.4749L24.4345 14.9186C22.1746 15.1188 20.7338 15.6286 19.9384 16.5128L17.1132 15.6942C17.4172 15.0807 17.4825 14.3855 17.2947 13.7191C17.0938 13.0063 16.6284 12.4177 15.9845 12.0614L13.0073 10.4122C11.6748 9.67558 9.9869 10.1479 9.24433 11.4639L0.665862 26.6335C0.298629 27.2801 0.207738 28.0321 0.410188 28.7511C0.611305 29.4651 1.07687 30.0545 1.72022 30.4103L4.69742 32.0593C5.1231 32.2947 5.58556 32.4064 6.0419 32.4064C7.01138 32.4064 7.95385 31.9021 8.46042 31.0077L8.77498 30.4513C9.63345 30.8292 10.3542 31.3782 10.8455 32.0282C10.3657 32.5889 10.0635 33.2808 9.97868 34.0334C9.86668 35.0286 10.1478 36.0051 10.7703 36.7835C11.3874 37.5552 12.2699 38.0421 13.2567 38.1567C13.1522 39.1435 13.4344 40.1104 14.0521 40.8801C14.6906 41.6784 15.593 42.1441 16.5369 42.254C16.4329 43.2393 16.7141 44.2053 17.3299 44.9755C17.9467 45.7488 18.8294 46.2367 19.8172 46.3514C19.7126 47.339 19.9949 48.3065 20.6125 49.0763C21.3488 49.9967 22.4357 50.476 23.533 50.4759C24.3521 50.4759 25.177 50.2087 25.8657 49.6587L28.1922 47.7971C28.377 47.6497 28.5449 47.4867 28.6959 47.3111L30.0248 48.3727C30.712 48.9211 31.5351 49.1876 32.3531 49.1875C33.4509 49.1874 34.5396 48.7076 35.2768 47.7862C35.6654 47.3004 35.9114 46.746 36.0225 46.1736C36.4111 46.3081 36.8213 46.3775 37.2396 46.3774C37.3798 46.3774 37.5209 46.3696 37.6625 46.354C38.6581 46.2434 39.5483 45.7538 40.1669 44.978C40.7857 44.2071 41.0679 43.2403 40.9636 42.2536C41.9068 42.1435 42.8096 41.6779 43.45 40.88C44.0878 40.0826 44.3438 39.1008 44.2435 38.1565C45.2298 38.0416 46.1118 37.5548 46.7275 36.7849C47.3504 36.0087 47.6328 35.0336 47.5224 34.0392C47.4386 33.2843 47.1362 32.59 46.6555 32.0278C47.1453 31.378 47.8647 30.8283 48.7237 30.4506L49.0389 31.0082C49.5451 31.9022 50.4872 32.4063 51.4569 32.4063C51.9134 32.4062 52.3763 32.2944 52.8025 32.0589L55.778 30.4106C56.4211 30.055 56.8865 29.4666 57.0884 28.7538C57.2919 28.0354 57.2029 27.2834 56.837 26.6351ZM6.52636 29.9134C6.38191 30.1685 6.03668 30.2605 5.77345 30.1148L2.79637 28.4659C2.63381 28.3759 2.5718 28.2286 2.54914 28.1487C2.52591 28.0659 2.50114 27.9015 2.59914 27.7293L11.1789 12.5567C11.2772 12.3825 11.4623 12.285 11.6545 12.285C11.7481 12.285 11.8432 12.308 11.931 12.3565L14.9073 14.0053C14.9076 14.0055 14.9079 14.0057 14.9083 14.0058C15.0712 14.0959 15.1331 14.2427 15.1555 14.3222C15.1786 14.4043 15.2031 14.5674 15.1054 14.7394L6.52636 29.9134ZM14.6348 35.6313C14.3215 35.8823 13.9258 35.9958 13.5214 35.9508C13.1169 35.9059 12.7563 35.7088 12.5059 35.3956C12.2549 35.0817 12.1417 34.6862 12.1872 34.2819C12.2324 33.8794 12.4296 33.5206 12.7445 33.27L16.9044 29.9448C17.5573 29.4236 18.513 29.5308 19.0348 30.1825C19.2857 30.4962 19.3989 30.8911 19.3536 31.2941C19.3085 31.6958 19.1112 32.0542 18.798 32.3033C18.7912 32.3088 18.7853 32.3149 18.7786 32.3206L14.6358 35.6305C14.6355 35.6308 14.6351 35.6311 14.6348 35.6313ZM15.7864 39.4908C15.5356 39.1782 15.4223 38.7843 15.4671 38.3816C15.5118 37.9786 15.7093 37.6182 16.0229 37.3667L16.0232 37.3665C16.0234 37.3664 16.0236 37.3661 16.0239 37.366C16.024 37.366 16.024 37.3659 16.0241 37.3658L22.016 32.5786C22.6688 32.0572 23.6247 32.1637 24.1464 32.8162C24.397 33.1295 24.5102 33.5239 24.4654 33.9268C24.4205 34.3302 24.2225 34.6906 23.9082 34.9417L17.9178 39.7272C17.2642 40.2488 16.3086 40.1436 15.7864 39.4908ZM20.0819 44.1453C19.6774 44.1004 19.3172 43.9031 19.0664 43.5887C18.8158 43.2754 18.7026 42.881 18.7474 42.4781C18.7923 42.0751 18.9899 41.7149 19.3038 41.4638C19.3041 41.4636 19.3044 41.4634 19.3046 41.4632L23.4512 38.1506C23.4561 38.1468 23.4614 38.1436 23.4663 38.1397C24.1174 37.6185 25.073 37.7246 25.5952 38.3755C25.8462 38.6893 25.9595 39.0849 25.914 39.4891C25.8687 39.8917 25.6715 40.2504 25.3567 40.501L21.1969 43.8261C20.8825 44.0771 20.4864 44.19 20.0819 44.1453ZM27.3618 45.0474C27.3168 45.4504 27.1194 45.8101 26.8049 46.0612L24.4783 47.9231C23.8246 48.4448 22.869 48.3398 22.347 47.6869C22.0962 47.3745 21.9828 46.9803 22.0276 46.5769C22.0724 46.1734 22.2696 45.8135 22.5826 45.5635C22.5829 45.5633 22.5834 45.5629 22.5837 45.5627L24.9098 43.7033C24.911 43.7023 24.9123 43.7015 24.9136 43.7007C25.5666 43.1795 26.5223 43.2863 27.0441 43.9383C27.294 44.251 27.407 44.6447 27.3618 45.0474ZM44.9932 35.3955C44.7428 35.7087 44.3821 35.9059 43.9777 35.9508C43.5735 35.9962 43.1776 35.8824 42.8643 35.6313C42.8642 35.6312 42.864 35.6311 42.8637 35.631C42.8636 35.6309 42.8634 35.6308 42.8633 35.6307L39.8901 33.2551C39.4105 32.872 38.7114 32.9502 38.3285 33.4296C37.9455 33.9089 38.0236 34.6082 38.5029 34.9912L41.4751 37.3659C42.1272 37.888 42.2346 38.8419 41.7157 39.4907C41.1921 40.1431 40.2364 40.2492 39.584 39.7267L36.3589 37.153C35.8793 36.7704 35.1802 36.8489 34.7974 37.3285C34.4147 37.808 34.4932 38.5072 34.9728 38.89L38.1964 41.4624C38.5105 41.7139 38.7082 42.0746 38.7531 42.4781C38.7978 42.8807 38.6845 43.2748 38.4316 43.5898C38.1817 43.9031 37.8215 44.1003 37.4171 44.1453C37.0123 44.1899 36.6162 44.0769 36.3031 43.827L34.6984 42.5436C34.6956 42.5414 34.6932 42.5391 34.6904 42.5368L33.3346 41.4529L33.0811 41.2503C32.6017 40.8669 31.9025 40.9448 31.5194 41.4239C31.4715 41.4839 31.4307 41.5473 31.3972 41.613C31.2363 41.9275 31.239 42.2963 31.39 42.6055C31.4599 42.7487 31.5605 42.8795 31.6932 42.9856L33.3067 44.276C33.9544 44.799 34.0603 45.7496 33.5417 46.398C33.0198 47.0503 32.064 47.1569 31.4114 46.6363L29.5808 45.1738C29.657 44.2228 29.3752 43.2953 28.7792 42.5501C28.4088 42.0871 27.9493 41.7364 27.4447 41.5012C27.8145 40.9881 28.0493 40.3855 28.1222 39.7374C28.2342 38.7423 27.9531 37.7658 27.3295 36.9861C26.9589 36.5243 26.5 36.1744 25.9965 35.9398C26.3669 35.4252 26.6017 34.8213 26.6739 34.1724C26.7845 33.1795 26.5032 32.2049 25.8818 31.4279C24.8127 30.0912 23.0046 29.6848 21.4998 30.3235C21.3793 29.7704 21.1332 29.2486 20.7699 28.7942C19.4834 27.1866 17.1276 26.9236 15.5174 28.2083L12.5422 30.5865C11.8694 29.7279 10.9548 29.0159 9.87346 28.5081L15.9935 17.6833L19.2521 18.6274C19.2669 18.8017 19.2952 18.9851 19.3424 19.1793C20.1312 22.4225 23.1173 23.9337 27.1355 23.124C30.5212 22.4427 31.915 23.4575 34.6909 25.479C34.979 25.6887 35.2782 25.9066 35.5914 26.1309C37.5878 27.5632 39.7212 29.2467 41.1516 30.3877L44.7583 33.2703C45.0717 33.5203 45.2689 33.8803 45.3137 34.2841C45.3585 34.6875 45.2451 35.0817 44.9932 35.3955ZM44.9587 30.5858L42.5383 28.6515C41.0881 27.4946 38.9246 25.7876 36.8862 24.3251C36.5773 24.1039 36.2828 23.8893 35.9992 23.6829C33.1207 21.5867 31.0403 20.0722 26.697 20.9457C25.3677 21.2136 22.2005 21.5268 21.5019 18.6547C21.4035 18.2493 21.5035 18.1099 21.546 18.0505C21.6946 17.8434 22.2924 17.3392 24.6312 17.1321L29.5939 16.688C30.4026 16.6142 30.8083 16.5771 32.0425 17.0082L34.9502 18.0247C35.2734 18.1376 35.5319 18.2354 35.76 18.3218C37.16 18.8522 37.531 18.8521 39.3703 18.3197L41.5139 17.6986L47.6258 28.5088C46.5441 29.0162 45.6304 29.7277 44.9587 30.5858Z" fill="white"/>
<path d="M51.4803 20.5423C52.0939 20.5423 52.5914 20.0432 52.5914 19.4295C52.5914 18.8158 52.0939 18.3184 51.4803 18.3184C50.8667 18.3184 50.3691 18.8159 50.3691 19.4295V19.4326C50.3691 20.0463 50.8667 20.5423 51.4803 20.5423Z" fill="white"/>
</svg>
