<svg width="31" height="31" viewBox="0 0 31 31" fill="none" xmlns="http://www.w3.org/2000/svg">
<path d="M14.3326 22.4983C14.1061 22.332 13.7872 22.3806 13.6207 22.6073L13.5579 22.6929C13.3915 22.9194 13.44 23.2377 13.6662 23.4044C13.7571 23.4714 13.863 23.5037 13.9679 23.5037C14.124 23.5037 14.2781 23.4322 14.3779 23.297L14.4417 23.2102C14.6081 22.9835 14.5593 22.6648 14.3326 22.4983Z" fill="white"/>
<path d="M14.465 27.3434L13.1552 24.9617L14.3781 23.2961C14.5447 23.0695 14.4958 22.7507 14.269 22.5842C14.0424 22.4177 13.7236 22.4665 13.5572 22.6933L12.1418 24.621C12.0244 24.7808 12.0105 24.9941 12.106 25.1678L13.5726 27.8342V27.8342C13.6654 28.0027 13.8396 28.0981 14.0193 28.0981C14.1023 28.098 14.1864 28.0777 14.2643 28.0349C14.5107 27.8995 14.6006 27.5898 14.465 27.3434Z" fill="white"/>
<path d="M18.2624 24.621L16.8527 22.7011C16.7358 22.542 16.5378 22.4646 16.344 22.503C16.1502 22.541 15.996 22.6878 15.9481 22.8793C15.9114 23.0264 15.942 23.182 16.0317 23.3042L17.2486 24.9617L15.9478 27.3272C15.9065 27.4023 15.8848 27.487 15.8848 27.5728C15.8848 27.8053 16.0422 28.0083 16.2674 28.0661C16.3095 28.077 16.3521 28.0822 16.3941 28.0822C16.5764 28.0822 16.7492 27.9838 16.8403 27.8184L18.2981 25.1679C18.3937 24.9941 18.3797 24.7808 18.2624 24.621Z" fill="white"/>
<path d="M19.0679 16.6176C18.9004 16.5297 18.6979 16.5417 18.542 16.6491C18.2391 16.8578 17.958 17.0789 17.7065 17.3062C16.336 18.5452 15.0338 18.3775 14.9828 18.3702C14.9521 18.3654 14.9209 18.3632 14.89 18.3642C14.3483 18.378 13.3717 17.8831 12.3385 17.0717C12.1805 16.9476 12.0185 16.8293 11.8567 16.7201C11.7007 16.6147 11.499 16.6041 11.3328 16.6925C11.1665 16.7808 11.0625 16.9538 11.0625 17.1422V18.8893C11.0625 19.0438 11.1328 19.1898 11.2533 19.2865C11.2675 19.298 11.2824 19.3086 11.2977 19.3184L14.9089 21.7314C14.9095 21.7318 14.91 21.7323 14.9106 21.7327L14.9201 21.739C15.0051 21.7953 15.1031 21.8237 15.2014 21.8237C15.2841 21.8237 15.3668 21.8036 15.4424 21.7632C15.4584 21.7547 15.4737 21.7453 15.4884 21.7353C15.4901 21.7342 15.4918 21.7331 15.4936 21.7319C15.4956 21.7306 15.4976 21.7293 15.4996 21.7279L19.1022 19.3205C19.1167 19.3114 19.1308 19.3015 19.1444 19.2909C19.268 19.1944 19.3403 19.0463 19.3403 18.8895V17.0685C19.3403 16.8792 19.2354 16.7057 19.0679 16.6176ZM18.3216 18.6169L15.2013 20.7019L12.0811 18.6168V18.1536C12.8408 18.7058 13.9585 19.383 14.8695 19.383C14.8714 19.383 14.8735 19.383 14.8755 19.383C15.1813 19.4168 16.7412 19.5087 18.3218 18.1222V18.6169H18.3216Z" fill="white"/>
<path d="M15.7038 21.2307C15.6702 21.0287 15.5188 20.8665 15.3196 20.819C15.1203 20.7717 14.9121 20.8479 14.7909 21.013L13.6203 22.6074C13.4538 22.8342 13.5026 23.1529 13.7294 23.3194C13.8202 23.3861 13.9258 23.4182 14.0304 23.4182C14.1871 23.4182 14.3415 23.3462 14.4414 23.2102L15.6059 21.6242C15.6722 21.5376 15.7108 21.4298 15.7108 21.3146C15.7107 21.2866 15.7083 21.2584 15.7038 21.2307Z" fill="white"/>
<path d="M22.9603 4.81221C22.9501 4.73243 22.7116 3.01063 21.0908 2.3314C21.1379 2.029 21.133 1.64035 20.941 1.26224C20.683 0.754038 20.1738 0.422869 19.4275 0.277787C19.3955 0.271551 19.363 0.268433 19.3303 0.268433H12.4947C9.71912 0.268433 7.46094 2.52655 7.46094 5.30228V7.98453C7.46094 8.68335 7.69915 9.36481 8.13157 9.90324C8.34596 10.1702 8.61 10.6365 8.64983 11.3414C8.66536 11.6166 8.89575 11.8293 9.17268 11.8217C9.44825 11.8139 9.66758 11.5882 9.66758 11.3126V7.81556C10.0134 6.3854 11.1936 6.10706 11.3966 6.06946H13.6076C13.8677 6.06946 14.1235 6.02975 14.3679 5.95139C14.7883 5.81654 15.4553 5.56839 15.9409 5.38394C16.2658 5.26045 16.6255 5.25592 16.9536 5.37124L19.3207 6.20219C20.5041 6.63873 20.7153 7.6776 20.7414 7.8408V12.0378C20.7414 12.3043 20.9469 12.5255 21.2128 12.5453C21.2257 12.5463 21.2384 12.5468 21.2511 12.5468C21.5009 12.5467 21.7166 12.3637 21.7544 12.1129C21.7564 12.0998 21.9598 10.7862 22.6155 9.73451C22.8437 9.3684 22.9643 8.95098 22.9643 8.52738V4.87651C22.9643 4.85504 22.963 4.83356 22.9603 4.81221ZM21.9457 8.52715C21.9457 8.75465 21.8815 8.98034 21.76 9.18101V7.80597C21.76 7.78756 21.759 7.76926 21.757 7.75096C21.749 7.67701 21.5385 5.93168 19.6685 5.24475C19.6662 5.24392 19.6639 5.2431 19.6616 5.24228L17.291 4.41003C17.0237 4.31619 16.744 4.26936 16.4646 4.26936C16.1641 4.26936 15.8637 4.32354 15.5792 4.43179C14.8993 4.69007 14.3728 4.88016 14.0568 4.98147C13.9131 5.02754 13.7619 5.05095 13.6076 5.05095H11.3554C11.3335 5.05095 11.3117 5.05236 11.29 5.05513C11.2038 5.06631 9.17244 5.35518 8.66124 7.64642C8.65313 7.68284 8.64901 7.72002 8.64901 7.75732V8.80548C8.53811 8.54921 8.47939 8.26928 8.47939 7.98459V5.3024C8.47939 3.08841 10.2807 1.28712 12.4946 1.28712H19.2789C19.5598 1.34696 19.9011 1.46974 20.0306 1.71954C20.1892 2.0253 20.0086 2.44631 20.0084 2.44666C19.9433 2.58521 19.944 2.74565 20.0102 2.88361C20.0765 3.02157 20.2013 3.12241 20.3501 3.15824C21.6467 3.47035 21.9112 4.7139 21.9456 4.91505L21.9457 8.52715Z" fill="white"/>
<path d="M21.7584 7.75098C21.7504 7.67703 21.5399 5.9317 19.6699 5.24476C19.6677 5.24394 19.6654 5.24312 19.6631 5.24229L17.2924 4.41004C16.7376 4.21531 16.1297 4.22307 15.5805 4.43169C14.9007 4.68997 14.3742 4.88006 14.0582 4.98143C13.9145 5.02749 13.7633 5.05085 13.6089 5.05085H11.3568C11.3349 5.05085 11.313 5.05226 11.2913 5.05503C11.2051 5.06621 9.17383 5.35508 8.66263 7.64632C8.65451 7.68274 8.65039 7.71992 8.65039 7.75722V12.1353C8.65039 12.1391 8.65045 12.1429 8.65051 12.1466C8.65386 12.2987 8.76147 15.8903 11.243 17.5328L11.2559 17.5419C11.2665 17.5494 11.2772 17.5569 11.2883 17.5644C11.4298 17.66 11.5719 17.7637 11.7108 17.8728C12.4338 18.4404 13.7961 19.383 14.8709 19.383C14.8729 19.383 14.8748 19.383 14.8768 19.383C14.9352 19.3894 15.0394 19.398 15.1807 19.398C15.7898 19.398 17.0893 19.2384 18.3909 18.0617C18.6094 17.8643 18.855 17.6713 19.1213 17.4878L19.1593 17.4612C19.1718 17.4524 19.1842 17.4436 19.197 17.435C20.0248 16.879 21.4584 15.4444 21.7594 12.0831C21.7607 12.068 21.7615 12.0528 21.7615 12.0376V7.80599C21.7614 7.78764 21.7603 7.76934 21.7584 7.75098ZM20.7428 12.0146C20.4653 15.0481 19.1728 16.2241 18.629 16.5893C18.6097 16.6023 18.5907 16.6157 18.5716 16.6291L18.5434 16.649C18.2404 16.8577 17.9593 17.0788 17.7079 17.3061C16.3424 18.5405 15.0445 18.3786 14.9809 18.3697C14.9513 18.3652 14.9213 18.3634 14.8913 18.3642C14.3496 18.3781 13.373 17.8831 12.3399 17.0717C12.1818 16.9475 12.0198 16.8293 11.8582 16.7203L11.8457 16.7115C11.8335 16.7027 11.8213 16.6941 11.8069 16.6846C9.8044 15.3591 9.67337 12.2574 9.66896 12.128V7.81552C10.016 6.38012 11.2036 6.10496 11.3971 6.06942H13.609C13.8691 6.06942 14.1248 6.02971 14.3693 5.95135C14.7897 5.8165 15.4568 5.56834 15.9423 5.3839C16.2672 5.26041 16.6269 5.25588 16.955 5.3712L19.3221 6.20215C20.5054 6.63869 20.7166 7.67756 20.7428 7.84076V12.0146H20.7428Z" fill="white"/>
<path d="M15.6575 21.0869C15.5781 20.9282 15.4219 20.8222 15.2451 20.8072C15.0686 20.7926 14.8964 20.8702 14.7914 21.0133L13.5715 22.6748C13.4051 22.9014 13.4537 23.22 13.6802 23.3865C13.771 23.4533 13.8767 23.4856 13.9815 23.4856C14.1378 23.4856 14.292 23.4139 14.3919 23.2784L15.6119 21.623C15.6764 21.5355 15.7113 21.4236 15.7113 21.3148C15.7113 21.2358 15.6928 21.1577 15.6575 21.0869Z" fill="white"/>
<path d="M15.689 29.287C15.4977 29.0869 15.1816 29.0762 14.9773 29.2631L14.8609 29.3696C14.6866 29.529 14.6448 29.7874 14.76 29.9937L14.7635 30.0001C14.8413 30.1395 14.9801 30.2343 15.1381 30.2562C15.1616 30.2595 15.185 30.2611 15.2083 30.2611C15.3423 30.2611 15.4722 30.2081 15.5684 30.1119L15.6812 29.999C15.8769 29.8032 15.8804 29.4869 15.689 29.287Z" fill="white"/>
<path d="M15.5417 29.3696L15.4253 29.2631C15.221 29.0762 14.9048 29.0869 14.7135 29.2869C14.5221 29.4871 14.5257 29.8034 14.7215 29.9991L14.8344 30.112C14.9306 30.2082 15.0604 30.2611 15.1945 30.2611C15.2184 30.2611 15.2425 30.2595 15.2665 30.256C15.4252 30.2334 15.5639 30.1373 15.641 29.9968L15.6446 29.9904C15.7574 29.7845 15.715 29.528 15.5417 29.3696Z" fill="white"/>
<path d="M15.5488 29.3774L15.5482 29.3768C15.4695 29.3033 15.3678 29.2548 15.2557 29.2425C15.1056 29.2262 14.9594 29.277 14.8531 29.376L14.8516 29.3774C14.7486 29.4713 14.6887 29.6034 14.6857 29.7427C14.6827 29.8822 14.7369 30.0166 14.8357 30.1148L14.841 30.1202C14.9404 30.219 15.0703 30.2683 15.2002 30.2683C15.3305 30.2683 15.4608 30.2186 15.5602 30.1192L15.5656 30.1139C15.6639 30.0155 15.7178 29.8812 15.7146 29.7421C15.7115 29.6029 15.6516 29.4712 15.5488 29.3774Z" fill="white"/>
<path d="M15.3677 20.8216C15.1568 20.7541 14.9254 20.8324 14.7969 21.013C14.6533 21.2153 14.677 21.4909 14.852 21.6668C14.9505 21.7657 15.0812 21.8164 15.2129 21.8164C15.3152 21.8164 15.4181 21.7858 15.5068 21.7234C15.6424 21.628 15.723 21.4727 15.723 21.3069V21.3057C15.723 21.084 15.5789 20.889 15.3677 20.8216Z" fill="white"/>
<path d="M15.6165 21.0088L15.6122 21.0029C15.4815 20.8261 15.252 20.7532 15.0432 20.822C14.8344 20.8908 14.6934 21.0859 14.6934 21.3057V21.3144C14.6934 21.5019 14.7986 21.6728 14.9638 21.7615C15.0386 21.8017 15.1213 21.8215 15.2037 21.8215C15.3032 21.8215 15.4026 21.7927 15.488 21.7361C15.6044 21.659 15.6842 21.5375 15.7085 21.4C15.7328 21.2625 15.6995 21.1211 15.6165 21.0088Z" fill="white"/>
<path d="M21.2612 19.4089C21.2084 19.2694 21.0971 19.1601 20.9568 19.1098L19.004 18.4098C18.9882 18.4042 18.9718 18.3991 18.9554 18.3951C18.8161 18.3602 18.6684 18.3858 18.549 18.4657L14.9309 20.8834C14.9299 20.884 14.9289 20.8847 14.9279 20.8854L15.212 21.3078L14.9215 20.8897C14.8154 20.9599 14.7394 21.0675 14.7085 21.1909C14.6916 21.2587 14.6888 21.3295 14.7003 21.3984C14.7134 21.4771 14.7448 21.5517 14.7921 21.6161L17.4411 25.2238C17.5373 25.355 17.6901 25.4317 17.8515 25.4317C17.8626 25.4317 17.8737 25.4313 17.8848 25.4305C18.0583 25.4191 18.214 25.3202 18.2978 25.1677L21.231 19.8346C21.303 19.7039 21.314 19.5483 21.2612 19.4089ZM17.7898 23.9778L15.9281 21.4421L18.9016 19.4551L20.0508 19.8671L17.7898 23.9778Z" fill="white"/>
<path d="M15.7026 21.2266C15.6787 21.0899 15.6 20.9689 15.4847 20.8915L11.8545 18.4658C11.739 18.3885 11.5966 18.362 11.4608 18.3921C11.44 18.3967 11.4195 18.4027 11.3995 18.4099L9.44676 19.1099C9.30638 19.1602 9.19513 19.2695 9.14236 19.4089C9.08958 19.5484 9.10053 19.704 9.17242 19.8347L12.1056 25.1678C12.1894 25.3202 12.3452 25.4192 12.5187 25.4306C12.5297 25.4313 12.5408 25.4317 12.5519 25.4317C12.7133 25.4317 12.866 25.3549 12.9624 25.2237L14.3778 23.296C14.3789 23.2946 14.3801 23.293 14.3812 23.2914L15.6114 21.6158C15.6936 21.5039 15.7265 21.3634 15.7026 21.2266ZM13.5569 22.693C13.5556 22.6946 13.5545 22.6963 13.5532 22.6979L12.6135 23.9778L10.3525 19.8671L11.5018 19.4552L14.4753 21.4422L13.5569 22.693Z" fill="white"/>
<path d="M30.2373 28.1031L29.5803 24.1358C29.3732 22.8856 28.5043 21.841 27.3126 21.41L20.9567 19.1105C20.7607 19.0396 20.5417 19.0952 20.4032 19.2506C20.2647 19.4061 20.2347 19.6303 20.3277 19.8167L21.6547 22.4779L20.3526 22.498C20.1758 22.5008 20.013 22.5949 19.9227 22.7469C19.8323 22.8989 19.8273 23.0869 19.9093 23.2435L20.4434 24.2633L14.9776 29.2633C14.972 29.2684 14.9666 29.2736 14.9612 29.2789L14.8484 29.3918C14.6885 29.5517 14.6532 29.7979 14.7617 29.9962L14.7657 30.0035C14.8551 30.1667 15.0264 30.2683 15.2125 30.2683H28.4012C28.9491 30.2683 29.4664 30.0287 29.8207 29.6109C30.175 29.1931 30.3268 28.6434 30.2373 28.1031ZM29.044 28.9521C28.8835 29.1413 28.6492 29.2498 28.4012 29.2498H16.5013L21.4204 24.7501C21.591 24.5941 21.6351 24.3428 21.5278 24.138L21.1955 23.5036L22.4796 23.4839C22.6547 23.4812 22.8159 23.3888 22.9069 23.2393C22.9978 23.0897 23.0057 22.904 22.9276 22.7473L21.8076 20.5013L26.9664 22.3677C27.8121 22.6736 28.4287 23.4149 28.5757 24.3022L29.2326 28.2694V28.2695C29.2731 28.5142 29.2044 28.7629 29.044 28.9521Z" fill="white"/>
<path d="M15.5556 29.3816L15.5497 29.3762C15.3481 29.1937 15.0386 29.2018 14.8468 29.3947L14.8415 29.4C14.6965 29.5459 14.6534 29.7648 14.7324 29.9547C14.8114 30.1447 14.997 30.2684 15.2026 30.2684H15.2138C15.4244 30.2684 15.6133 30.1387 15.689 29.9423C15.7648 29.7457 15.7118 29.5229 15.5556 29.3816Z" fill="white"/>
<path d="M15.5391 29.3668C15.4235 29.2627 15.2667 29.2171 15.1131 29.2433C14.9598 29.2693 14.8267 29.3641 14.7518 29.5004L14.7483 29.5068C14.6409 29.7026 14.6736 29.9454 14.8289 30.1059L14.8307 30.1078C14.9305 30.211 15.0634 30.263 15.1967 30.263C15.3194 30.263 15.4424 30.2188 15.5399 30.1298L15.5452 30.125C15.5914 30.0829 15.6296 30.0324 15.6576 29.9764C15.7601 29.7715 15.7094 29.52 15.5391 29.3668Z" fill="white"/>
<path d="M15.5608 29.398L15.5587 29.3959C15.5574 29.3945 15.5559 29.3931 15.5547 29.3918L15.4417 29.279C15.4364 29.2736 15.4309 29.2684 15.4254 29.2634L9.95965 24.2633L10.4938 23.2436C10.5759 23.087 10.5708 22.899 10.4804 22.747C10.3901 22.595 10.2273 22.5008 10.0506 22.4981L8.74829 22.478L10.0753 19.8168C10.1683 19.6304 10.1383 19.4062 9.99984 19.2507C9.8614 19.0952 9.64207 19.0396 9.44634 19.1105L3.09045 21.4101C1.89874 21.841 1.02978 22.8856 0.822744 24.1359L0.165758 28.1032C0.0762737 28.6437 0.22818 29.1932 0.582471 29.611C0.936821 30.0288 1.45426 30.2684 2.00199 30.2684H15.2018C15.4081 30.2684 15.594 30.144 15.6726 29.9534C15.7512 29.7627 15.7071 29.5434 15.5608 29.398ZM2.00205 29.2499C1.75401 29.2499 1.51974 29.1414 1.35936 28.9522C1.19898 28.763 1.13026 28.5142 1.17074 28.2695L1.82773 24.3022C1.97463 23.4149 2.59126 22.6737 3.43698 22.3677L8.59573 20.5014L7.47579 22.7473C7.39766 22.9039 7.40543 23.0896 7.49644 23.2392C7.58734 23.3888 7.74872 23.4812 7.92375 23.4838L9.20783 23.5036L8.87554 24.138C8.76829 24.3428 8.81241 24.5941 8.98291 24.7501L13.902 29.2499H2.00205Z" fill="white"/>
<path d="M16.9353 23.126C16.9721 22.9789 16.9414 22.8232 16.8517 22.701L15.6123 21.0131C15.4821 20.8357 15.2524 20.7651 15.0433 20.8337C14.9304 20.8707 14.8374 20.9455 14.7755 21.0409L13.5588 22.6918C13.5413 22.7154 13.5259 22.7407 13.5127 22.7669C13.4294 22.9337 13.4438 23.1327 13.5503 23.2857L14.0684 24.0298L13.5164 27.509C13.4987 27.6207 13.5187 27.7351 13.5732 27.8342L14.7556 29.984C14.8451 30.1468 15.0162 30.2479 15.2019 30.2479C15.3876 30.2479 15.5587 30.1468 15.6481 29.984L16.8394 27.8182C16.8807 27.7431 16.9024 27.6586 16.9024 27.5729V27.5726C16.9024 27.5458 16.9002 27.5191 16.8961 27.4927L16.3467 24.0298L16.8592 23.2939C16.8944 23.243 16.9203 23.186 16.9353 23.126ZM15.2019 28.6819L14.5497 27.4962L15.1065 23.9869C15.1272 23.8569 15.0966 23.724 15.0215 23.6161L14.5947 23.0031L15.2034 22.1772L15.8152 23.0105L15.3936 23.6161C15.3184 23.724 15.2879 23.8569 15.3085 23.9869L15.8628 27.4802L15.2019 28.6819Z" fill="white"/>
</svg>
