<svg width="220" height="51" viewBox="0 0 220 51" fill="none" xmlns="http://www.w3.org/2000/svg">
<path d="M36.0469 23.801C37.8525 22.2889 39.0007 20.0178 39.0007 17.4785C39.0007 14.9393 37.8525 12.6682 36.0469 11.1561C36.2538 11.0559 36.4529 10.9472 36.6427 10.8293C37.8403 10.0846 39.2539 9.65454 40.768 9.65454C45.0891 9.65454 48.5919 13.1575 48.5919 17.4785C48.5919 21.7996 45.0891 25.3025 40.768 25.3025C39.2539 25.3025 37.8403 24.8724 36.6427 24.1278C36.4529 24.0099 36.2538 23.9012 36.0469 23.801Z" fill="#FF8159"/>
<path d="M33.8733 18.7107C34.6809 16.4985 34.5398 13.9576 33.2701 11.7585C32.0004 9.55939 29.8705 8.16666 27.5508 7.76C27.6799 7.5698 27.7979 7.37603 27.9032 7.1791C28.5681 5.93538 29.5773 4.85612 30.8885 4.09908C34.6307 1.93855 39.4159 3.22071 41.5764 6.96285C43.7368 10.705 42.4547 15.4901 38.7125 17.6506C37.4013 18.4076 35.962 18.742 34.5525 18.696C34.3294 18.6886 34.1025 18.6941 33.8733 18.7107Z" fill="#FF8159"/>
<path d="M29.4468 15.3883C29.0402 13.0686 27.6475 10.9386 25.4484 9.669C23.2493 8.39935 20.7083 8.25821 18.4961 9.06587C18.5129 8.83661 18.5182 8.60976 18.5108 8.3866C18.4649 6.97704 18.7992 5.53776 19.5562 4.22653C21.7169 0.484377 26.5019 -0.797779 30.2441 1.36275C33.9862 3.52329 35.2684 8.30836 33.1078 12.0506C32.3508 13.3617 31.2715 14.371 30.0277 15.0359C29.8309 15.1412 29.6371 15.2592 29.4468 15.3883Z" fill="#FF8159"/>
<path d="M23.9492 14.7248C22.4372 12.9192 20.1661 11.771 17.6267 11.771C15.0874 11.771 12.8163 12.9192 11.3043 14.7248C11.2041 14.5179 11.0954 14.3187 10.9775 14.129C10.2328 12.9313 9.80273 11.5178 9.80273 10.0037C9.80273 5.68261 13.3057 2.17969 17.6267 2.17969C21.9478 2.17969 25.4507 5.68261 25.4507 10.0037C25.4507 11.5178 25.0206 12.9313 24.276 14.129C24.158 14.3187 24.0493 14.5179 23.9492 14.7248Z" fill="#FF8159"/>
<path d="M18.8566 16.898C16.6443 16.0903 14.1033 16.2315 11.9042 17.501C9.70515 18.7707 8.31242 20.9006 7.90578 23.2203C7.71557 23.0912 7.5218 22.9732 7.32487 22.8679C6.08115 22.203 5.00188 21.1938 4.24484 19.8826C2.0843 16.1404 3.36645 11.3554 7.10861 9.19479C10.8508 7.03425 15.6358 8.3164 17.7964 12.0586C18.5535 13.3698 18.8878 14.8091 18.8417 16.2186C18.8345 16.4417 18.8398 16.6686 18.8566 16.898Z" fill="#FF8159"/>
<path d="M15.5342 21.326C13.2144 21.7326 11.0845 23.1254 9.81481 25.3245C8.54516 27.5235 8.40402 30.0645 9.2117 32.2767C8.98241 32.26 8.75553 32.2546 8.53234 32.2618C7.12279 32.308 5.68352 31.9736 4.37229 31.2166C0.630129 29.056 -0.652029 24.271 1.50851 20.5288C3.66904 16.7867 8.45412 15.5044 12.1963 17.665C13.5075 18.4221 14.5167 19.5013 15.1816 20.7449C15.2869 20.9419 15.405 21.1357 15.5342 21.326Z" fill="#FF8159"/>
<path d="M14.8693 26.8222C13.0637 28.3342 11.9155 30.6053 11.9155 33.1445C11.9155 35.6839 13.0637 37.955 14.8693 39.467C14.6624 39.5671 14.4632 39.676 14.2736 39.7939C13.0759 40.5385 11.6623 40.9685 10.1482 40.9685C5.82714 40.9685 2.32422 37.4656 2.32422 33.1445C2.32422 28.8234 5.82714 25.3206 10.1482 25.3206C11.6623 25.3206 13.0759 25.7506 14.2736 26.4954C14.4632 26.6132 14.6624 26.722 14.8693 26.8222Z" fill="#FF8159"/>
<path d="M17.0418 31.9143C16.234 34.1266 16.3751 36.6675 17.6448 38.8666C18.9145 41.0658 21.0445 42.4584 23.3642 42.8651C23.235 43.0554 23.117 43.2491 23.0117 43.4461C22.3468 44.6897 21.3376 45.769 20.0264 46.526C16.2842 48.6866 11.4991 47.4044 9.33859 43.6623C7.17804 39.9201 8.46021 35.1351 12.2024 32.9744C13.5136 32.2174 14.9529 31.8831 16.3624 31.9292C16.5856 31.9364 16.8124 31.9311 17.0418 31.9143Z" fill="#FF8159"/>
<path d="M21.4682 35.2383C21.8749 37.558 23.2676 39.6879 25.4667 40.9575C27.6658 42.2271 30.2069 42.3683 32.4191 41.5606C32.4023 41.79 32.397 42.0167 32.4042 42.24C32.4503 43.6495 32.116 45.0888 31.359 46.4C29.1983 50.1422 24.4133 51.4243 20.6711 49.2637C16.9289 47.1033 15.6468 42.3182 17.8074 38.576C18.5644 37.2648 19.6437 36.2556 20.8873 35.5907C21.0843 35.4854 21.278 35.3673 21.4682 35.2383Z" fill="#FF8159"/>
<path d="M26.9644 35.9026C28.4764 37.7082 30.7475 38.8564 33.2869 38.8564C35.8262 38.8564 38.0973 37.7082 39.6094 35.9026C39.7094 36.1095 39.8182 36.3087 39.9362 36.4982C40.6808 37.6959 41.1109 39.1096 41.1109 40.6237C41.1109 44.9448 37.608 48.4477 33.2869 48.4477C28.9658 48.4477 25.4629 44.9448 25.4629 40.6237C25.4629 39.1096 25.893 37.6959 26.6376 36.4982C26.7556 36.3087 26.8643 36.1095 26.9644 35.9026Z" fill="#FF8159"/>
<path d="M32.0586 33.7303C34.2708 34.538 36.8118 34.3968 39.0109 33.1273C41.21 31.8576 42.6027 29.7276 43.0093 27.408C43.1995 27.537 43.3933 27.6551 43.5902 27.7604C44.834 28.4253 45.9133 29.4345 46.6703 30.7457C48.8309 34.4879 47.5486 39.2729 43.8066 41.4335C40.0644 43.594 35.2793 42.3119 33.1187 38.5697C32.3617 37.2585 32.0274 35.8192 32.0733 34.4097C32.0807 34.1866 32.0754 33.9597 32.0586 33.7303Z" fill="#FF8159"/>
<path d="M41.1068 25.2958C41.1052 25.2985 41.1036 25.3013 41.102 25.304C39.8325 27.5031 37.7025 28.8958 35.3828 29.3025C35.5118 29.4928 35.63 29.6866 35.7352 29.8834C36.4001 31.1272 37.4094 32.2064 38.7206 32.9634C42.4628 35.1241 47.2478 33.8418 49.4084 30.0997C51.2606 26.8914 50.5825 22.9166 47.9932 20.4863C46.8557 23.2161 44.2162 25.1633 41.1068 25.2958Z" fill="#FF8159"/>
<path d="M68.8018 10.5199V33.8874H63.623V10.5199H68.8018ZM64.444 33.8874L64.5387 29.3086H77.9593V33.8874H64.444ZM78.7698 25.9613C78.7698 24.2983 79.1172 22.8457 79.8119 21.6037C80.5066 20.3405 81.4854 19.3616 82.7486 18.6669C84.0116 17.9722 85.4852 17.6249 87.1695 17.6249C88.8536 17.6249 90.3166 17.9722 91.5587 18.6669C92.8219 19.3616 93.8007 20.3405 94.4954 21.6037C95.1901 22.8457 95.5375 24.2983 95.5375 25.9613C95.5375 27.6245 95.1901 29.0771 94.4954 30.3192C93.8007 31.5612 92.8219 32.5295 91.5587 33.2242C90.3166 33.919 88.8536 34.2663 87.1695 34.2663C85.4852 34.2663 84.0116 33.919 82.7486 33.2242C81.4854 32.5295 80.5066 31.5612 79.8119 30.3192C79.1172 29.0771 78.7698 27.6245 78.7698 25.9613ZM83.6643 25.9298C83.6643 26.7298 83.8116 27.4351 84.1063 28.0456C84.4011 28.635 84.8116 29.0981 85.3378 29.435C85.8642 29.7507 86.4748 29.9086 87.1695 29.9086C87.8642 29.9086 88.4746 29.7507 89.001 29.435C89.5272 29.0981 89.9272 28.635 90.2009 28.0456C90.4957 27.4351 90.643 26.7298 90.643 25.9298C90.643 25.1298 90.4957 24.4351 90.2009 23.8457C89.9272 23.2563 89.5272 22.8036 89.001 22.4878C88.4746 22.151 87.8642 21.9825 87.1695 21.9825C86.4748 21.9825 85.8642 22.151 85.3378 22.4878C84.8116 22.8036 84.4011 23.2563 84.1063 23.8457C83.8116 24.4351 83.6643 25.1298 83.6643 25.9298ZM96.6357 25.7089C96.6357 24.0878 96.9619 22.6668 97.6145 21.4458C98.2671 20.2248 99.1618 19.2775 100.299 18.6037C101.435 17.909 102.741 17.5617 104.214 17.5617C105.456 17.5617 106.551 17.8143 107.498 18.3196C108.467 18.8248 109.119 19.488 109.456 20.309L108.982 20.6248L109.361 18.0986H113.751V32.8769C113.751 34.7295 113.393 36.3295 112.677 37.6768C111.961 39.0451 110.94 40.0977 109.614 40.8345C108.309 41.5713 106.751 41.9398 104.94 41.9398C103.425 41.9398 102.057 41.6345 100.835 41.0239C99.6354 40.4345 98.6566 39.5924 97.8987 38.4977C97.1619 37.403 96.7198 36.14 96.5725 34.7084H101.499C101.541 35.6136 101.899 36.3083 102.572 36.7926C103.267 37.2768 104.151 37.5189 105.225 37.5189C106.425 37.5189 107.351 37.1821 108.004 36.5083C108.656 35.8557 108.982 34.9821 108.982 33.8874V30.5401L109.425 30.9507C109.088 31.7718 108.435 32.4348 107.467 32.9401C106.498 33.4454 105.383 33.698 104.12 33.698C102.667 33.698 101.372 33.3612 100.235 32.6875C99.1198 32.0139 98.2355 31.0771 97.5829 29.8771C96.9513 28.6771 96.6357 27.2877 96.6357 25.7089ZM101.562 25.5825C101.562 26.3404 101.72 27.014 102.035 27.6034C102.351 28.193 102.772 28.656 103.299 28.9928C103.825 29.3086 104.404 29.4666 105.035 29.4666C105.793 29.4666 106.456 29.3086 107.025 28.9928C107.614 28.656 108.067 28.193 108.382 27.6034C108.719 27.014 108.888 26.3404 108.888 25.5825C108.888 24.8036 108.719 24.1404 108.382 23.5931C108.046 23.0247 107.583 22.5825 106.993 22.2668C106.425 21.951 105.762 21.7931 105.004 21.7931C104.372 21.7931 103.793 21.951 103.267 22.2668C102.741 22.5825 102.32 23.0247 102.004 23.5931C101.709 24.1615 101.562 24.8246 101.562 25.5825ZM115.484 25.9613C115.484 24.2983 115.831 22.8457 116.526 21.6037C117.221 20.3405 118.199 19.3616 119.463 18.6669C120.726 17.9722 122.199 17.6249 123.884 17.6249C125.568 17.6249 127.031 17.9722 128.273 18.6669C129.536 19.3616 130.515 20.3405 131.209 21.6037C131.904 22.8457 132.252 24.2983 132.252 25.9613C132.252 27.6245 131.904 29.0771 131.209 30.3192C130.515 31.5612 129.536 32.5295 128.273 33.2242C127.031 33.919 125.568 34.2663 123.884 34.2663C122.199 34.2663 120.726 33.919 119.463 33.2242C118.199 32.5295 117.221 31.5612 116.526 30.3192C115.831 29.0771 115.484 27.6245 115.484 25.9613ZM120.378 25.9298C120.378 26.7298 120.526 27.4351 120.82 28.0456C121.115 28.635 121.526 29.0981 122.052 29.435C122.578 29.7507 123.189 29.9086 123.884 29.9086C124.578 29.9086 125.189 29.7507 125.715 29.435C126.241 29.0981 126.641 28.635 126.915 28.0456C127.21 27.4351 127.357 26.7298 127.357 25.9298C127.357 25.1298 127.21 24.4351 126.915 23.8457C126.641 23.2563 126.241 22.8036 125.715 22.4878C125.189 22.151 124.578 21.9825 123.884 21.9825C123.189 21.9825 122.578 22.151 122.052 22.4878C121.526 22.8036 121.115 23.2563 120.82 23.8457C120.526 24.4351 120.378 25.1298 120.378 25.9298ZM134.297 33.8874V18.0986H139.192V33.8874H134.297ZM136.76 15.6355C135.981 15.6355 135.318 15.3723 134.771 14.846C134.244 14.2987 133.981 13.6355 133.981 12.8566C133.981 12.0778 134.244 11.4251 134.771 10.8988C135.318 10.3725 135.981 10.1094 136.76 10.1094C137.518 10.1094 138.16 10.3725 138.686 10.8988C139.234 11.4251 139.507 12.0778 139.507 12.8566C139.507 13.6355 139.234 14.2987 138.686 14.846C138.16 15.3723 137.518 15.6355 136.76 15.6355ZM142.356 41.4662V18.0986H146.81L147.061 20.0248C147.504 19.288 148.209 18.6986 149.177 18.2564C150.146 17.8143 151.188 17.5933 152.303 17.5933C153.777 17.5933 155.061 17.9196 156.156 18.5722C157.25 19.2248 158.114 20.1616 158.746 21.3827C159.376 22.5825 159.713 24.0351 159.757 25.7404C159.798 27.4034 159.524 28.8877 158.935 30.1928C158.345 31.4769 157.493 32.4875 156.377 33.2242C155.261 33.9612 153.914 34.3295 152.335 34.3295C151.24 34.3295 150.219 34.1401 149.272 33.7612C148.325 33.3822 147.619 32.898 147.157 32.3086V41.4662H142.356ZM147.251 25.993C147.251 26.7719 147.408 27.4666 147.725 28.0771C148.062 28.6666 148.515 29.1298 149.083 29.4666C149.671 29.7824 150.345 29.9401 151.103 29.9401C151.882 29.9401 152.546 29.7718 153.093 29.435C153.661 29.0981 154.094 28.635 154.387 28.0456C154.704 27.456 154.861 26.7719 154.861 25.993C154.861 25.214 154.704 24.5299 154.387 23.9404C154.094 23.351 153.661 22.8878 153.093 22.551C152.546 22.2142 151.882 22.0457 151.103 22.0457C150.345 22.0457 149.671 22.2142 149.083 22.551C148.515 22.8668 148.062 23.3195 147.725 23.9089C147.408 24.4983 147.251 25.193 147.251 25.993ZM160.589 28.8981H164.98C164.98 29.4454 165.158 29.8771 165.516 30.1928C165.895 30.5086 166.442 30.6665 167.158 30.6665C167.578 30.6665 167.927 30.6139 168.2 30.5086C168.495 30.4033 168.717 30.256 168.863 30.0665C169.032 29.856 169.116 29.6245 169.116 29.3718C169.116 29.0981 169.022 28.8666 168.832 28.6771C168.663 28.4877 168.368 28.3403 167.947 28.2351L165.169 27.5087C163.61 27.0877 162.506 26.4666 161.853 25.6457C161.2 24.8246 160.874 23.8878 160.874 22.8352C160.874 21.7825 161.138 20.8669 161.664 20.088C162.211 19.288 162.948 18.6775 163.874 18.2564C164.801 17.8143 165.842 17.5933 167 17.5933C168.747 17.5933 170.179 18.0775 171.295 19.0459C172.432 19.9931 173.032 21.2878 173.095 22.9299H168.705C168.727 22.3825 168.569 21.951 168.232 21.6352C167.895 21.2984 167.453 21.1301 166.906 21.1301C166.422 21.1301 166.021 21.2563 165.706 21.5089C165.411 21.7405 165.263 22.0669 165.263 22.4878C165.263 22.8878 165.411 23.1825 165.706 23.3721C166.001 23.5404 166.4 23.6878 166.906 23.8142L169.716 24.5089C171.022 24.8246 172.011 25.3615 172.685 26.1193C173.359 26.8772 173.694 27.8456 173.694 29.0245C173.694 30.6454 173.095 31.9296 171.895 32.8769C170.695 33.8242 169.137 34.298 167.221 34.298C165.243 34.298 163.652 33.8033 162.454 32.8138C161.273 31.8033 160.653 30.4981 160.589 28.8981ZM181.454 34.298C179.601 34.298 178.17 33.719 177.159 32.5612C176.15 31.4033 175.643 29.8875 175.643 28.0139V18.0986H180.507V26.2456C180.507 27.7192 180.77 28.7087 181.296 29.2139C181.823 29.7192 182.517 29.9718 183.38 29.9718C184.496 29.9718 185.264 29.656 185.685 29.0245C186.106 28.393 186.317 27.4877 186.317 26.3087V18.0986H191.18V33.8874H186.602L186.285 32.1191C185.801 32.7716 185.117 33.298 184.233 33.698C183.348 34.098 182.423 34.298 181.454 34.298ZM199.208 33.8874H194.313V18.0986H198.861L199.208 20.8142L198.671 20.2458C199.092 19.4458 199.724 18.8037 200.565 18.3196C201.429 17.8143 202.354 17.5617 203.345 17.5617C204.902 17.5617 206.123 17.909 207.008 18.6037C207.913 19.2984 208.565 20.2143 208.964 21.351H208.207C208.46 20.2143 209.07 19.2984 210.039 18.6037C211.008 17.909 212.165 17.5617 213.512 17.5617C215.554 17.5617 217.06 18.109 218.029 19.2037C218.996 20.2984 219.48 21.751 219.48 23.5615V33.8874H214.745V24.7615C214.745 23.772 214.502 23.0352 214.017 22.551C213.554 22.0669 212.934 21.8248 212.155 21.8248C211.692 21.8248 211.249 21.9301 210.828 22.1405C210.408 22.3299 210.059 22.6773 209.786 23.1825C209.513 23.6668 209.375 24.3615 209.375 25.2666V33.8874H204.576V24.7615C204.576 23.772 204.344 23.0457 203.881 22.5825C203.417 22.0984 202.797 21.8563 202.017 21.8563C201.555 21.8563 201.102 21.9616 200.66 22.1721C200.239 22.3616 199.892 22.7089 199.618 23.2142C199.345 23.6983 199.208 24.3825 199.208 25.2666V33.8874Z" fill="#0C1524"/>
</svg>
