<svg width="220" height="51" viewBox="0 0 220 51" fill="none" xmlns="http://www.w3.org/2000/svg">
<path d="M35.9824 23.8012C37.788 22.2892 38.9362 20.0181 38.9362 17.4787C38.9362 14.9395 37.788 12.6684 35.9824 11.1564C36.1894 11.0561 36.3885 10.9474 36.5782 10.8295C37.7759 10.0849 39.1894 9.65479 40.7035 9.65479C45.0246 9.65479 48.5275 13.1578 48.5275 17.4787C48.5275 21.7998 45.0246 25.3027 40.7035 25.3027C39.1894 25.3027 37.7759 24.8726 36.5782 24.128C36.3885 24.0102 36.1894 23.9014 35.9824 23.8012Z" fill="#FF8159"/>
<path d="M33.8088 18.7105C34.6165 16.4983 34.4753 13.9573 33.2057 11.7582C31.936 9.55914 29.806 8.16642 27.4863 7.75976C27.6155 7.56955 27.7335 7.37579 27.8387 7.17886C28.5037 5.93514 29.5129 4.85587 30.8241 4.09884C34.5663 1.9383 39.3514 3.22046 41.5119 6.96261C43.6724 10.7048 42.3903 15.4899 38.6481 17.6504C37.3369 18.4074 35.8976 18.7417 34.4881 18.6958C34.2649 18.6884 34.038 18.6939 33.8088 18.7105Z" fill="#FF8159"/>
<path d="M29.3824 15.3883C28.9757 13.0686 27.583 10.9386 25.3839 9.669C23.1848 8.39935 20.6439 8.25821 18.4316 9.06587C18.4484 8.83661 18.4538 8.60976 18.4464 8.3866C18.4004 6.97704 18.7347 5.53776 19.4918 4.22653C21.6524 0.484377 26.4374 -0.797779 30.1796 1.36275C33.9217 3.52329 35.204 8.30836 33.0433 12.0506C32.2863 13.3617 31.2071 14.371 29.9633 15.0359C29.7665 15.1412 29.5727 15.2592 29.3824 15.3883Z" fill="#FF8159"/>
<path d="M23.8848 14.7248C22.3727 12.9192 20.1016 11.771 17.5623 11.771C15.0229 11.771 12.7519 12.9192 11.2398 14.7248C11.1397 14.5179 11.0309 14.3187 10.913 14.129C10.1684 12.9313 9.73828 11.5178 9.73828 10.0037C9.73828 5.68261 13.2412 2.17969 17.5623 2.17969C21.8834 2.17969 25.3863 5.68261 25.3863 10.0037C25.3863 11.5178 24.9562 12.9313 24.2116 14.129C24.0936 14.3187 23.9848 14.5179 23.8848 14.7248Z" fill="#FF8159"/>
<path d="M18.7921 16.898C16.5799 16.0903 14.0389 16.2315 11.8398 17.501C9.64069 18.7707 8.24797 20.9006 7.84132 23.2203C7.65112 23.0912 7.45734 22.9732 7.26041 22.8679C6.01669 22.203 4.93742 21.1938 4.18039 19.8826C2.01984 16.1404 3.302 11.3554 7.04416 9.19479C10.7863 7.03425 15.5714 8.3164 17.732 12.0586C18.489 13.3698 18.8234 14.8091 18.7772 16.2186C18.77 16.4417 18.7754 16.6686 18.7921 16.898Z" fill="#FF8159"/>
<path d="M15.4697 21.326C13.15 21.7326 11.02 23.1254 9.75036 25.3245C8.48071 27.5235 8.33957 30.0645 9.14725 32.2767C8.91795 32.26 8.69107 32.2546 8.46788 32.2618C7.05834 32.308 5.61906 31.9736 4.30784 31.2166C0.565676 29.056 -0.716482 24.271 1.44405 20.5288C3.60459 16.7867 8.38966 15.5044 12.1318 17.665C13.443 18.4221 14.4522 19.5013 15.1171 20.7449C15.2224 20.9419 15.3406 21.1357 15.4697 21.326Z" fill="#FF8159"/>
<path d="M14.8049 26.8222C12.9992 28.3342 11.851 30.6053 11.851 33.1445C11.851 35.6839 12.9992 37.955 14.8049 39.467C14.5979 39.5671 14.3988 39.676 14.2091 39.7939C13.0115 40.5385 11.5978 40.9685 10.0838 40.9685C5.76269 40.9685 2.25977 37.4656 2.25977 33.1445C2.25977 28.8234 5.76269 25.3206 10.0838 25.3206C11.5978 25.3206 13.0115 25.7506 14.2091 26.4954C14.3988 26.6132 14.5979 26.722 14.8049 26.8222Z" fill="#FF8159"/>
<path d="M16.9773 31.9141C16.1696 34.1263 16.3107 36.6673 17.5804 38.8663C18.85 41.0656 20.98 42.4582 23.2997 42.8648C23.1706 43.0551 23.0526 43.2489 22.9473 43.4459C22.2824 44.6895 21.2731 45.7687 19.962 46.5258C16.2197 48.6864 11.4347 47.4041 9.27414 43.662C7.11359 39.9198 8.39576 35.1348 12.1379 32.9742C13.4491 32.2172 14.8885 31.8828 16.298 31.929C16.5211 31.9362 16.748 31.9308 16.9773 31.9141Z" fill="#FF8159"/>
<path d="M21.4038 35.2383C21.8104 37.558 23.2031 39.6879 25.4022 40.9575C27.6013 42.2271 30.1424 42.3683 32.3546 41.5606C32.3379 41.79 32.3325 42.0167 32.3397 42.24C32.3859 43.6495 32.0515 45.0888 31.2945 46.4C29.1339 50.1422 24.3489 51.4243 20.6067 49.2637C16.8644 47.1033 15.5823 42.3182 17.7429 38.576C18.5 37.2648 19.5792 36.2556 20.8229 35.5907C21.0198 35.4854 21.2136 35.3673 21.4038 35.2383Z" fill="#FF8159"/>
<path d="M26.8999 35.9026C28.412 37.7082 30.6831 38.8564 33.2224 38.8564C35.7618 38.8564 38.0329 37.7082 39.5449 35.9026C39.645 36.1095 39.7537 36.3087 39.8717 36.4982C40.6163 37.6959 41.0464 39.1096 41.0464 40.6237C41.0464 44.9448 37.5435 48.4477 33.2224 48.4477C28.9013 48.4477 25.3984 44.9448 25.3984 40.6237C25.3984 39.1096 25.8285 37.6959 26.5731 36.4982C26.6911 36.3087 26.7999 36.1095 26.8999 35.9026Z" fill="#FF8159"/>
<path d="M31.9941 33.7303C34.2064 34.538 36.7473 34.3968 38.9464 33.1273C41.1455 31.8576 42.5382 29.7276 42.9449 27.408C43.135 27.537 43.3288 27.6551 43.5258 27.7604C44.7696 28.4253 45.8488 29.4345 46.6058 30.7457C48.7665 34.4879 47.4842 39.2729 43.7421 41.4335C39.9999 43.594 35.2149 42.3119 33.0543 38.5697C32.2972 37.2585 31.9629 35.8192 32.0089 34.4097C32.0163 34.1866 32.0109 33.9597 31.9941 33.7303Z" fill="#FF8159"/>
<path d="M41.0423 25.2958C41.0407 25.2985 41.0391 25.3013 41.0375 25.304C39.768 27.5031 37.6381 28.8958 35.3184 29.3025C35.4474 29.4928 35.5655 29.6866 35.6708 29.8834C36.3357 31.1272 37.3449 32.2064 38.6561 32.9634C42.3983 35.1241 47.1833 33.8418 49.344 30.0997C51.1961 26.8914 50.518 22.9166 47.9288 20.4863C46.7913 23.2161 44.1517 25.1633 41.0423 25.2958Z" fill="#FF8159"/>
<path d="M68.7374 10.5199V33.8874H63.5586V10.5199H68.7374ZM64.3796 33.8874L64.4743 29.3086H77.8948V33.8874H64.3796ZM78.7053 25.9613C78.7053 24.2983 79.0527 22.8457 79.7474 21.6037C80.4421 20.3405 81.421 19.3616 82.6842 18.6669C83.9472 17.9722 85.4208 17.6249 87.105 17.6249C88.7892 17.6249 90.2522 17.9722 91.4942 18.6669C92.7574 19.3616 93.7363 20.3405 94.431 21.6037C95.1257 22.8457 95.473 24.2983 95.473 25.9613C95.473 27.6245 95.1257 29.0771 94.431 30.3192C93.7363 31.5612 92.7574 32.5295 91.4942 33.2242C90.2522 33.919 88.7892 34.2663 87.105 34.2663C85.4208 34.2663 83.9472 33.919 82.6842 33.2242C81.421 32.5295 80.4421 31.5612 79.7474 30.3192C79.0527 29.0771 78.7053 27.6245 78.7053 25.9613ZM83.5998 25.9298C83.5998 26.7298 83.7472 27.4351 84.0419 28.0456C84.3366 28.635 84.7472 29.0981 85.2734 29.435C85.7998 29.7507 86.4103 29.9086 87.105 29.9086C87.7997 29.9086 88.4101 29.7507 88.9365 29.435C89.4627 29.0981 89.8627 28.635 90.1365 28.0456C90.4312 27.4351 90.5786 26.7298 90.5786 25.9298C90.5786 25.1298 90.4312 24.4351 90.1365 23.8457C89.8627 23.2563 89.4627 22.8036 88.9365 22.4878C88.4101 22.151 87.7997 21.9825 87.105 21.9825C86.4103 21.9825 85.7998 22.151 85.2734 22.4878C84.7472 22.8036 84.3366 23.2563 84.0419 23.8457C83.7472 24.4351 83.5998 25.1298 83.5998 25.9298ZM96.5712 25.7089C96.5712 24.0878 96.8974 22.6668 97.5501 21.4458C98.2027 20.2248 99.0974 19.2775 100.234 18.6037C101.371 17.909 102.676 17.5617 104.15 17.5617C105.392 17.5617 106.487 17.8143 107.434 18.3196C108.402 18.8248 109.055 19.488 109.392 20.309L108.918 20.6248L109.297 18.0986H113.686V32.8769C113.686 34.7295 113.328 36.3295 112.613 37.6768C111.897 39.0451 110.876 40.0977 109.55 40.8345C108.244 41.5713 106.687 41.9398 104.876 41.9398C103.36 41.9398 101.992 41.6345 100.771 41.0239C99.571 40.4345 98.5921 39.5924 97.8342 38.4977C97.0974 37.403 96.6554 36.14 96.508 34.7084H101.434C101.476 35.6136 101.834 36.3083 102.508 36.7926C103.202 37.2768 104.087 37.5189 105.16 37.5189C106.36 37.5189 107.287 37.1821 107.939 36.5083C108.592 35.8557 108.918 34.9821 108.918 33.8874V30.5401L109.36 30.9507C109.023 31.7718 108.371 32.4348 107.402 32.9401C106.434 33.4454 105.318 33.698 104.055 33.698C102.602 33.698 101.308 33.3612 100.171 32.6875C99.0553 32.0139 98.171 31.0771 97.5184 29.8771C96.8869 28.6771 96.5712 27.2877 96.5712 25.7089ZM101.497 25.5825C101.497 26.3404 101.655 27.014 101.971 27.6034C102.287 28.193 102.708 28.656 103.234 28.9928C103.76 29.3086 104.339 29.4666 104.971 29.4666C105.729 29.4666 106.392 29.3086 106.96 28.9928C107.55 28.656 108.002 28.193 108.318 27.6034C108.655 27.014 108.823 26.3404 108.823 25.5825C108.823 24.8036 108.655 24.1404 108.318 23.5931C107.981 23.0247 107.518 22.5825 106.929 22.2668C106.36 21.951 105.697 21.7931 104.939 21.7931C104.308 21.7931 103.729 21.951 103.202 22.2668C102.676 22.5825 102.255 23.0247 101.939 23.5931C101.645 24.1615 101.497 24.8246 101.497 25.5825ZM115.419 25.9613C115.419 24.2983 115.767 22.8457 116.461 21.6037C117.156 20.3405 118.135 19.3616 119.398 18.6669C120.661 17.9722 122.135 17.6249 123.819 17.6249C125.503 17.6249 126.966 17.9722 128.208 18.6669C129.471 19.3616 130.45 20.3405 131.145 21.6037C131.84 22.8457 132.187 24.2983 132.187 25.9613C132.187 27.6245 131.84 29.0771 131.145 30.3192C130.45 31.5612 129.471 32.5295 128.208 33.2242C126.966 33.919 125.503 34.2663 123.819 34.2663C122.135 34.2663 120.661 33.919 119.398 33.2242C118.135 32.5295 117.156 31.5612 116.461 30.3192C115.767 29.0771 115.419 27.6245 115.419 25.9613ZM120.314 25.9298C120.314 26.7298 120.461 27.4351 120.756 28.0456C121.051 28.635 121.461 29.0981 121.988 29.435C122.514 29.7507 123.124 29.9086 123.819 29.9086C124.514 29.9086 125.124 29.7507 125.651 29.435C126.177 29.0981 126.577 28.635 126.851 28.0456C127.145 27.4351 127.293 26.7298 127.293 25.9298C127.293 25.1298 127.145 24.4351 126.851 23.8457C126.577 23.2563 126.177 22.8036 125.651 22.4878C125.124 22.151 124.514 21.9825 123.819 21.9825C123.124 21.9825 122.514 22.151 121.988 22.4878C121.461 22.8036 121.051 23.2563 120.756 23.8457C120.461 24.4351 120.314 25.1298 120.314 25.9298ZM134.233 33.8874V18.0986H139.127V33.8874H134.233ZM136.696 15.6355C135.917 15.6355 135.254 15.3723 134.706 14.846C134.18 14.2987 133.917 13.6355 133.917 12.8566C133.917 12.0778 134.18 11.4251 134.706 10.8988C135.254 10.3725 135.917 10.1094 136.696 10.1094C137.453 10.1094 138.096 10.3725 138.622 10.8988C139.169 11.4251 139.443 12.0778 139.443 12.8566C139.443 13.6355 139.169 14.2987 138.622 14.846C138.096 15.3723 137.453 15.6355 136.696 15.6355ZM142.292 41.4662V18.0986H146.745L146.997 20.0248C147.439 19.288 148.145 18.6986 149.112 18.2564C150.081 17.8143 151.124 17.5933 152.239 17.5933C153.712 17.5933 154.997 17.9196 156.091 18.5722C157.186 19.2248 158.049 20.1616 158.681 21.3827C159.312 22.5825 159.649 24.0351 159.692 25.7404C159.734 27.4034 159.459 28.8877 158.871 30.1928C158.281 31.4769 157.429 32.4875 156.313 33.2242C155.196 33.9612 153.85 34.3295 152.271 34.3295C151.176 34.3295 150.155 34.1401 149.208 33.7612C148.261 33.3822 147.555 32.898 147.092 32.3086V41.4662H142.292ZM147.186 25.993C147.186 26.7719 147.344 27.4666 147.661 28.0771C147.997 28.6666 148.45 29.1298 149.018 29.4666C149.607 29.7824 150.281 29.9401 151.039 29.9401C151.818 29.9401 152.482 29.7718 153.028 29.435C153.597 29.0981 154.029 28.635 154.323 28.0456C154.639 27.456 154.797 26.7719 154.797 25.993C154.797 25.214 154.639 24.5299 154.323 23.9404C154.029 23.351 153.597 22.8878 153.028 22.551C152.482 22.2142 151.818 22.0457 151.039 22.0457C150.281 22.0457 149.607 22.2142 149.018 22.551C148.45 22.8668 147.997 23.3195 147.661 23.9089C147.344 24.4983 147.186 25.193 147.186 25.993ZM160.525 28.8981H164.915C164.915 29.4454 165.093 29.8771 165.452 30.1928C165.831 30.5086 166.377 30.6665 167.093 30.6665C167.514 30.6665 167.863 30.6139 168.136 30.5086C168.431 30.4033 168.652 30.256 168.798 30.0665C168.967 29.856 169.051 29.6245 169.051 29.3718C169.051 29.0981 168.957 28.8666 168.768 28.6771C168.599 28.4877 168.304 28.3403 167.883 28.2351L165.105 27.5087C163.546 27.0877 162.441 26.4666 161.789 25.6457C161.135 24.8246 160.81 23.8878 160.81 22.8352C160.81 21.7825 161.073 20.8669 161.599 20.088C162.146 19.288 162.884 18.6775 163.809 18.2564C164.736 17.8143 165.777 17.5933 166.936 17.5933C168.682 17.5933 170.114 18.0775 171.231 19.0459C172.367 19.9931 172.967 21.2878 173.031 22.9299H168.641C168.662 22.3825 168.505 21.951 168.168 21.6352C167.831 21.2984 167.388 21.1301 166.842 21.1301C166.357 21.1301 165.957 21.2563 165.641 21.5089C165.346 21.7405 165.199 22.0669 165.199 22.4878C165.199 22.8878 165.346 23.1825 165.641 23.3721C165.936 23.5404 166.335 23.6878 166.842 23.8142L169.651 24.5089C170.957 24.8246 171.946 25.3615 172.62 26.1193C173.294 26.8772 173.63 27.8456 173.63 29.0245C173.63 30.6454 173.031 31.9296 171.831 32.8769C170.63 33.8242 169.073 34.298 167.157 34.298C165.179 34.298 163.588 33.8033 162.389 32.8138C161.209 31.8033 160.589 30.4981 160.525 28.8981ZM181.389 34.298C179.537 34.298 178.105 33.719 177.094 32.5612C176.085 31.4033 175.579 29.8875 175.579 28.0139V18.0986H180.442V26.2456C180.442 27.7192 180.705 28.7087 181.232 29.2139C181.758 29.7192 182.452 29.9718 183.316 29.9718C184.432 29.9718 185.2 29.656 185.621 29.0245C186.041 28.393 186.253 27.4877 186.253 26.3087V18.0986H191.116V33.8874H186.537L186.221 32.1191C185.736 32.7716 185.052 33.298 184.169 33.698C183.284 34.098 182.358 34.298 181.389 34.298ZM199.143 33.8874H194.248V18.0986H198.796L199.143 20.8142L198.607 20.2458C199.027 19.4458 199.659 18.8037 200.501 18.3196C201.364 17.8143 202.29 17.5617 203.28 17.5617C204.838 17.5617 206.058 17.909 206.943 18.6037C207.849 19.2984 208.501 20.2143 208.9 21.351H208.142C208.395 20.2143 209.006 19.2984 209.974 18.6037C210.943 17.909 212.1 17.5617 213.448 17.5617C215.49 17.5617 216.995 18.109 217.964 19.2037C218.932 20.2984 219.416 21.751 219.416 23.5615V33.8874H214.68V24.7615C214.68 23.772 214.437 23.0352 213.953 22.551C213.49 22.0669 212.87 21.8248 212.09 21.8248C211.627 21.8248 211.185 21.9301 210.764 22.1405C210.343 22.3299 209.995 22.6773 209.721 23.1825C209.448 23.6668 209.311 24.3615 209.311 25.2666V33.8874H204.511V24.7615C204.511 23.772 204.28 23.0457 203.817 22.5825C203.353 22.0984 202.732 21.8563 201.953 21.8563C201.49 21.8563 201.038 21.9616 200.595 22.1721C200.174 22.3616 199.827 22.7089 199.554 23.2142C199.281 23.6983 199.143 24.3825 199.143 25.2666V33.8874Z" fill="#0C1524"/>
</svg>
