<svg width="31" height="31" viewBox="0 0 31 31" fill="none" xmlns="http://www.w3.org/2000/svg">
<path d="M15.4102 0.723633C7.11334 0.723633 0.410156 7.41908 0.410156 15.7236C0.410156 24.0282 7.1056 30.7236 15.4102 30.7236C23.7147 30.7236 30.4102 24.0282 30.4102 15.7236C30.4102 7.41908 23.7071 0.723633 15.4102 0.723633ZM15.4102 28.718C8.21134 28.718 2.41572 22.9224 2.41572 15.7236C2.41572 8.52476 8.2114 2.72914 15.4102 2.72914C22.6089 2.72914 28.4046 8.52476 28.4046 15.7236C28.4046 22.9224 22.609 28.718 15.4102 28.718Z" fill="white"/>
<path d="M22.609 11.3236C22.2125 10.927 21.61 10.927 21.2059 11.3236L13.5114 19.0181L9.61459 15.1213C9.21807 14.7248 8.61559 14.7248 8.21145 15.1213C7.81493 15.5178 7.81493 16.1202 8.21145 16.5244L12.8098 21.1227C13.0081 21.321 13.2063 21.4201 13.5114 21.4201C13.8088 21.4201 14.0147 21.321 14.213 21.1227L22.609 12.7267C23.0055 12.3302 23.0055 11.7279 22.609 11.3236Z" fill="white"/>
</svg>
