<svg width="26" height="30" viewBox="0 0 26 30" fill="none" xmlns="http://www.w3.org/2000/svg">
<path d="M17.3385 19.3678C20.3653 14.6182 19.9848 15.2108 20.0721 15.0869C21.1741 13.5326 21.7565 11.7032 21.7565 9.79644C21.7565 4.73977 17.6531 0.574219 12.5898 0.574219C7.54307 0.574219 3.42318 4.73155 3.42318 9.79644C3.42318 11.702 4.01784 13.5793 5.15596 15.1546L7.84107 19.3679C4.97023 19.8091 0.0898438 21.1238 0.0898438 24.0187C0.0898438 25.0739 0.778621 26.5778 4.05995 27.7497C6.35118 28.568 9.38045 29.0187 12.5898 29.0187C18.5912 29.0187 25.0898 27.3258 25.0898 24.0187C25.0898 21.1233 20.2152 19.8099 17.3385 19.3678ZM6.54812 14.2378C6.53895 14.2235 6.5294 14.2095 6.5194 14.1957C5.57234 12.8928 5.08984 11.3487 5.08984 9.79644C5.08984 5.62877 8.44573 2.24089 12.5898 2.24089C16.7253 2.24089 20.0898 5.63027 20.0898 9.79644C20.0898 11.3512 19.6165 12.8429 18.7206 14.1115C18.6403 14.2174 19.0592 13.5667 12.5898 23.7181L6.54812 14.2378ZM12.5898 27.352C6.03462 27.352 1.75651 25.4252 1.75651 24.0187C1.75651 23.0733 3.95473 21.5189 8.82584 20.9131L11.8871 25.7166C12.0401 25.9567 12.3051 26.102 12.5898 26.102C12.8745 26.102 13.1396 25.9566 13.2925 25.7166L16.3537 20.9131C21.2249 21.5189 23.4232 23.0733 23.4232 24.0187C23.4232 25.4132 19.1836 27.352 12.5898 27.352Z" fill="white"/>
<path d="M12.5924 5.62891C10.2949 5.62891 8.42578 7.49807 8.42578 9.79557C8.42578 12.0931 10.2949 13.9622 12.5924 13.9622C14.8899 13.9622 16.7591 12.0931 16.7591 9.79557C16.7591 7.49807 14.8899 5.62891 12.5924 5.62891ZM12.5924 12.2956C11.2139 12.2956 10.0924 11.1741 10.0924 9.79557C10.0924 8.41707 11.2139 7.29557 12.5924 7.29557C13.9709 7.29557 15.0924 8.41707 15.0924 9.79557C15.0924 11.1741 13.9709 12.2956 12.5924 12.2956Z" fill="white"/>
</svg>
