<svg width="38" height="51" viewBox="0 0 38 51" fill="none" xmlns="http://www.w3.org/2000/svg">
<path d="M8.75891 49.6367C8.75891 50.0978 8.39269 50.4757 7.93169 50.4757C7.47068 50.4757 7.09277 50.0978 7.09277 49.6367V39.1305C7.09277 38.4219 7.39969 37.7834 7.89619 37.3228C8.381 36.8739 9.03117 36.6021 9.75191 36.6021H19.5249C20.2456 36.6021 20.9075 36.8735 21.3798 37.3228C21.8759 37.7838 22.184 38.4219 22.184 39.1305V49.6367C22.184 50.0978 21.8174 50.4757 21.3564 50.4757C20.8954 50.4757 20.5175 50.0978 20.5175 49.6367V39.1305C20.5175 38.9062 20.4227 38.6933 20.2573 38.54C20.0686 38.3747 19.8201 38.2682 19.5249 38.2682H15.4711V49.6372C15.4711 50.0982 15.1053 50.4761 14.6443 50.4761C14.1837 50.4761 13.8053 50.0982 13.8053 49.6372V38.2678H9.75191C9.46837 38.2678 9.21992 38.3747 9.03117 38.5396C8.86581 38.6929 8.75933 38.9058 8.75933 39.1301L8.75891 49.6367Z" fill="white"/>
<path d="M6.4073 25.3991H11.8667C12.3277 25.3991 12.6939 25.7657 12.6939 26.2263V31.3082C12.6939 31.7692 12.3277 32.1346 11.8667 32.1346H6.4073C5.9463 32.1346 5.58008 31.7688 5.58008 31.3082V26.2263C5.57966 25.7657 5.9463 25.3991 6.4073 25.3991ZM6.4073 15.2949H11.8667C12.3277 15.2949 12.6939 15.6616 12.6939 16.1221V21.2037C12.6939 21.6647 12.3277 22.0309 11.8667 22.0309H6.4073C5.9463 22.0309 5.58008 21.6642 5.58008 21.2037V16.1226C5.57966 15.6616 5.9463 15.2949 6.4073 15.2949ZM11.0278 16.9619H7.24622V20.3647H11.0278V16.9619ZM20.1506 20.3647C20.6116 20.3647 20.9774 20.7431 20.9774 21.2041C20.9774 21.6651 20.6112 22.0313 20.1506 22.0313H17.4209C16.9599 22.0313 16.5816 21.6647 16.5816 21.2041V16.1226C16.5816 15.6616 16.9595 15.2953 17.4209 15.2953C17.8819 15.2953 18.2481 15.662 18.2481 16.1226V20.3647H20.1506ZM17.4209 25.3991H22.8686C23.3296 25.3991 23.7076 25.7657 23.7076 26.2263V31.3082C23.7076 31.7692 23.3296 32.1346 22.8686 32.1346H17.4209C16.9599 32.1346 16.5816 31.7688 16.5816 31.3082V26.2263C16.5816 25.7657 16.9599 25.3991 17.4209 25.3991ZM22.0418 27.0656H18.2486V30.4689H22.0418V27.0656ZM11.0278 27.0656H7.24622V30.4689H11.0278V27.0656Z" fill="white"/>
<path d="M28.6828 26.0728C28.4469 26.4628 27.9391 26.6043 27.5486 26.368C27.4184 26.2853 27.3123 26.1793 27.2413 26.0611L20.0798 13.9242C19.7132 13.2978 19.4063 12.4944 19.2175 11.7853C19.028 11.0525 18.9336 10.2967 18.9336 9.51622C18.9336 7.02244 19.9383 4.76585 21.5806 3.12268C23.2117 1.49246 25.4687 0.476074 27.9742 0.476074C30.4675 0.476074 32.7245 1.49246 34.3673 3.1231C35.9979 4.76627 37.0147 7.02286 37.0147 9.51664C37.0147 10.2967 36.9082 11.0529 36.7195 11.7858C36.5299 12.5424 36.2343 13.251 35.8685 13.9129L28.6828 26.0728ZM27.9742 24.0162L34.4262 13.0848C34.7218 12.5533 34.9582 11.9741 35.1118 11.3715C35.2651 10.7802 35.3477 10.166 35.3477 9.51622C35.3477 7.48345 34.5214 5.64026 33.1855 4.30485C31.8501 2.96985 30.0065 2.14221 27.9742 2.14221C25.9297 2.14221 24.0861 2.96943 22.7511 4.30485C21.427 5.64026 20.6001 7.48345 20.6001 9.51622C20.6001 10.1664 20.6824 10.7802 20.8248 11.3715C20.9781 11.962 21.2144 12.5295 21.4979 13.061L27.9742 24.0162Z" fill="white"/>
<path d="M27.9737 4.69482C29.2974 4.69482 30.5026 5.23893 31.3765 6.11292C32.2514 6.97564 32.7951 8.18077 32.7951 9.51618C32.7951 10.8512 32.2509 12.0571 31.3765 12.9315C30.5021 13.7943 29.2974 14.3375 27.9737 14.3375C26.6383 14.3375 25.4327 13.7943 24.5583 12.9315C23.6839 12.0571 23.1523 10.8516 23.1523 9.51618C23.1523 8.18077 23.6839 6.97564 24.5583 6.11292C25.4327 5.23851 26.6379 4.69482 27.9737 4.69482ZM30.1952 7.28297C29.6277 6.7159 28.8364 6.36138 27.9737 6.36138C27.0993 6.36138 26.3071 6.7159 25.7401 7.28297C25.1726 7.86215 24.8185 8.64177 24.8185 9.5166C24.8185 10.391 25.1726 11.1827 25.7401 11.7502C26.3067 12.3173 27.0993 12.6718 27.9737 12.6718C28.8364 12.6718 29.6277 12.3173 30.1952 11.7502C30.774 11.1832 31.1285 10.391 31.1285 9.5166C31.1285 8.64177 30.774 7.86215 30.1952 7.28297Z" fill="white"/>
<path d="M27.1349 29.6533C27.1349 29.1923 27.5128 28.814 27.9738 28.814C28.4348 28.814 28.801 29.1923 28.801 29.6533V49.6365C28.801 50.0975 28.4344 50.4755 27.9738 50.4755H1.31355C0.852544 50.4755 0.486328 50.0975 0.486328 49.6365V13.1093C0.486328 12.4003 0.793665 11.7618 1.29017 11.3012C1.76286 10.8519 2.42473 10.5684 3.14546 10.5684H16.2979C16.7589 10.5684 17.1251 10.9463 17.1251 11.4077C17.1251 11.8687 16.7585 12.2466 16.2979 12.2466H3.14546C2.84982 12.2466 2.60178 12.3414 2.41303 12.5184C2.24767 12.6717 2.15288 12.8847 2.15288 13.1093V48.8089H27.1353L27.1349 29.6533Z" fill="white"/>
</svg>
