<svg width="51" height="51" viewBox="0 0 51 51" fill="none" xmlns="http://www.w3.org/2000/svg">
<path d="M19.9281 30.4761C15.3256 30.4761 11.5947 34.2069 11.5947 38.8094C11.5947 43.4119 15.3256 47.1427 19.9281 47.1427C24.5305 47.1427 28.2614 43.4119 28.2614 38.8094C28.2565 34.209 24.5285 30.481 19.9281 30.4761ZM19.9281 45.4761C16.246 45.4761 13.2614 42.4915 13.2614 38.8094C13.2614 35.1274 16.246 32.1427 19.9281 32.1427C23.6101 32.1427 26.5947 35.1274 26.5947 38.8094C26.5907 42.4894 23.6081 45.472 19.9281 45.4761Z" fill="white"/>
<path d="M19.9281 36.3096C20.9457 36.3096 21.5947 36.8027 21.5947 37.1429H23.2614C23.2614 35.9588 22.2124 34.9998 20.7614 34.7263V33.8096H19.0947V34.7263C17.6437 34.9977 16.5947 35.9572 16.5947 37.1429C16.5947 38.5455 18.0588 39.6429 19.9281 39.6429C20.9457 39.6429 21.5947 40.1361 21.5947 40.4762C21.5947 40.8164 20.9457 41.3096 19.9281 41.3096C18.9104 41.3096 18.2614 40.8164 18.2614 40.4762H16.5947C16.5947 41.6603 17.6437 42.6194 19.0947 42.8928V43.8096H20.7614V42.8928C22.2124 42.6214 23.2614 41.6619 23.2614 40.4762C23.2614 39.0736 21.7974 37.9762 19.9281 37.9762C18.9104 37.9762 18.2614 37.4831 18.2614 37.1429C18.2614 36.8027 18.9104 36.3096 19.9281 36.3096Z" fill="white"/>
<path d="M43.2617 48.8094H8.26172V28.8094H21.5951C22.9757 28.8094 24.0951 27.69 24.0951 26.3094V5.47607H33.2617V15.4761H43.2617V27.1427H44.9284V14.2977L34.4401 3.80941H24.0951V2.97607C24.0951 1.59546 22.9757 0.476074 21.5951 0.476074H3.26172C1.8811 0.476074 0.761719 1.59546 0.761719 2.97607V26.3094C0.761719 27.69 1.8811 28.8094 3.26172 28.8094H6.59505V50.4761H44.9284V38.8094H43.2617V48.8094ZM34.9284 6.65446L42.0833 13.8094H34.9284V6.65446ZM2.42839 26.3094V2.97607C2.42839 2.51587 2.80151 2.14274 3.26172 2.14274H21.5951C22.0553 2.14274 22.4284 2.51587 22.4284 2.97607V26.3094C22.4284 26.7696 22.0553 27.1427 21.5951 27.1427H3.26172C2.80151 27.1427 2.42839 26.7696 2.42839 26.3094Z" fill="white"/>
<path d="M27.4287 21.3096H29.0954V22.9762H27.4287V21.3096Z" fill="white"/>
<path d="M30.7617 21.3096H40.7617V22.9762H30.7617V21.3096Z" fill="white"/>
<path d="M27.4287 17.9761H29.0954V19.6427H27.4287V17.9761Z" fill="white"/>
<path d="M30.7617 17.9761H40.7617V19.6427H30.7617V17.9761Z" fill="white"/>
<path d="M27.4287 24.6426H29.0954V26.3092H27.4287V24.6426Z" fill="white"/>
<path d="M30.7617 24.6426H40.7617V26.3092H30.7617V24.6426Z" fill="white"/>
<path d="M27.4287 27.9761H29.0954V29.6427H27.4287V27.9761Z" fill="white"/>
<path d="M30.7617 27.9761H40.7617V29.6427H30.7617V27.9761Z" fill="white"/>
<path d="M21.5951 2.97607H3.26172V8.80941H21.5951V2.97607ZM19.9284 7.14274H4.92839V4.64274H19.9284V7.14274Z" fill="white"/>
<path d="M7.42806 9.64258H5.76139C4.84098 9.64258 4.09473 10.3888 4.09473 11.3092V12.9759C4.09473 13.8963 4.84098 14.6426 5.76139 14.6426H7.42806C8.34847 14.6426 9.09473 13.8963 9.09473 12.9759V11.3092C9.09473 10.3888 8.34847 9.64258 7.42806 9.64258ZM5.76139 12.9759V11.3092H7.42806V12.9759H5.76139Z" fill="white"/>
<path d="M13.262 9.64258H11.5954C10.675 9.64258 9.92871 10.3888 9.92871 11.3092V12.9759C9.92871 13.8963 10.675 14.6426 11.5954 14.6426H13.262C14.1825 14.6426 14.9287 13.8963 14.9287 12.9759V11.3092C14.9287 10.3888 14.1825 9.64258 13.262 9.64258ZM11.5954 12.9759V11.3092H13.262V12.9759H11.5954Z" fill="white"/>
<path d="M19.0951 9.64258H17.4284C16.508 9.64258 15.7617 10.3888 15.7617 11.3092V12.9759C15.7617 13.8963 16.508 14.6426 17.4284 14.6426H19.0951C20.0155 14.6426 20.7617 13.8963 20.7617 12.9759V11.3092C20.7617 10.3888 20.0155 9.64258 19.0951 9.64258ZM17.4284 12.9759V11.3092H19.0951V12.9759H17.4284Z" fill="white"/>
<path d="M7.42806 15.4761H5.76139C4.84098 15.4761 4.09473 16.2223 4.09473 17.1427V18.8094C4.09473 19.7298 4.84098 20.4761 5.76139 20.4761H7.42806C8.34847 20.4761 9.09473 19.7298 9.09473 18.8094V17.1427C9.09473 16.2223 8.34847 15.4761 7.42806 15.4761ZM5.76139 18.8094V17.1427H7.42806V18.8094H5.76139Z" fill="white"/>
<path d="M13.262 15.4761H11.5954C10.675 15.4761 9.92871 16.2223 9.92871 17.1427V18.8094C9.92871 19.7298 10.675 20.4761 11.5954 20.4761H13.262C14.1825 20.4761 14.9287 19.7298 14.9287 18.8094V17.1427C14.9287 16.2223 14.1825 15.4761 13.262 15.4761ZM11.5954 18.8094V17.1427H13.262V18.8094H11.5954Z" fill="white"/>
<path d="M19.0951 15.4761H17.4284C16.508 15.4761 15.7617 16.2223 15.7617 17.1427V18.8094C15.7617 19.7298 16.508 20.4761 17.4284 20.4761H19.0951C20.0155 20.4761 20.7617 19.7298 20.7617 18.8094V17.1427C20.7617 16.2223 20.0155 15.4761 19.0951 15.4761ZM17.4284 18.8094V17.1427H19.0951V18.8094H17.4284Z" fill="white"/>
<path d="M7.42806 21.3096H5.76139C4.84098 21.3096 4.09473 22.0558 4.09473 22.9762V24.6429C4.09473 25.5633 4.84098 26.3096 5.76139 26.3096H7.42806C8.34847 26.3096 9.09473 25.5633 9.09473 24.6429V22.9762C9.09473 22.0558 8.34847 21.3096 7.42806 21.3096ZM5.76139 24.6429V22.9762H7.42806V24.6429H5.76139Z" fill="white"/>
<path d="M13.262 21.3096H11.5954C10.675 21.3096 9.92871 22.0558 9.92871 22.9762V24.6429C9.92871 25.5633 10.675 26.3096 11.5954 26.3096H13.262C14.1825 26.3096 14.9287 25.5633 14.9287 24.6429V22.9762C14.9287 22.0558 14.1825 21.3096 13.262 21.3096ZM11.5954 24.6429V22.9762H13.262V24.6429H11.5954Z" fill="white"/>
<path d="M19.0951 21.3096H17.4284C16.508 21.3096 15.7617 22.0558 15.7617 22.9762V24.6429C15.7617 25.5633 16.508 26.3096 17.4284 26.3096H19.0951C20.0155 26.3096 20.7617 25.5633 20.7617 24.6429V22.9762C20.7617 22.0558 20.0155 21.3096 19.0951 21.3096ZM17.4284 24.6429V22.9762H19.0951V24.6429H17.4284Z" fill="white"/>
<path d="M50.0048 27.0662C49.0156 26.1218 47.4592 26.1218 46.47 27.0662L32.1841 41.3517C32.1149 41.4217 32.0584 41.5031 32.0173 41.5926L30.0056 45.9611C29.8603 46.2776 29.9274 46.6516 30.174 46.8978C30.4202 47.1443 30.7941 47.2115 31.1107 47.0662L35.4792 45.0545C35.5687 45.0134 35.6501 44.9573 35.7201 44.8877L50.0048 30.6018C50.9813 29.6256 50.9813 28.0424 50.0048 27.0662ZM34.6459 43.6027L32.4624 44.6085L33.4683 42.4251L44.1197 31.7728L45.2981 32.9512L34.6459 43.6027ZM46.479 31.7692L45.3006 30.5912L45.8841 30.0077L47.0625 31.1861L46.479 31.7692ZM48.8292 29.4193L48.24 30.0085L47.0616 28.8301L47.6516 28.2409C47.9808 27.926 48.4996 27.926 48.8292 28.2409C49.1543 28.5665 49.1543 29.0938 48.8292 29.4193Z" fill="white"/>
</svg>
