<svg width="30" height="31" viewBox="0 0 30 31" fill="none" xmlns="http://www.w3.org/2000/svg">
<path d="M15 0.736572C6.70318 0.736572 0 7.43202 0 15.7366C0 24.0411 6.69545 30.7366 15 30.7366C23.3046 30.7366 30 24.0411 30 15.7366C30 7.43202 23.2969 0.736572 15 0.736572ZM15 28.7309C7.80118 28.7309 2.00556 22.9353 2.00556 15.7365C2.00556 8.5377 7.80124 2.74208 15 2.74208C22.1988 2.74208 27.9944 8.5377 27.9944 15.7365C27.9944 22.9353 22.1988 28.7309 15 28.7309Z" fill="white"/>
<path d="M22.1989 11.3365C21.8024 10.9399 21.1999 10.9399 20.7957 11.3365L13.1013 19.031L9.20444 15.1342C8.80792 14.7377 8.20543 14.7377 7.8013 15.1342C7.40478 15.5307 7.40478 16.1332 7.8013 16.5374L12.3996 21.1357C12.5979 21.334 12.7961 21.4331 13.1012 21.4331C13.3986 21.4331 13.6045 21.334 13.8028 21.1357L22.1989 12.7397C22.5954 12.3432 22.5954 11.7408 22.1989 11.3365Z" fill="white"/>
</svg>
