<svg width="37" height="33" viewBox="0 0 37 33" fill="none" xmlns="http://www.w3.org/2000/svg">
<path d="M34.3054 0.215088H27.5216C27.2303 0.215088 26.9942 0.451198 26.9942 0.742433C26.9942 1.03367 27.2303 1.26978 27.5216 1.26978H34.3054C34.934 1.26978 35.4454 1.78116 35.4454 2.40976V22.447H1.55469V2.40976C1.55469 1.78116 2.06607 1.26978 2.69467 1.26978H25.0606C25.3518 1.26978 25.5879 1.03367 25.5879 0.742433C25.5879 0.451198 25.3518 0.215088 25.0606 0.215088H2.69467C1.48452 0.215088 0.5 1.19961 0.5 2.40976V24.1196C0.5 25.3297 1.48452 26.3142 2.69467 26.3142H7.74319C8.03442 26.3142 8.27053 26.0781 8.27053 25.7869C8.27053 25.4956 8.03442 25.2595 7.74319 25.2595H2.69467C2.06607 25.2595 1.55469 24.7482 1.55469 24.1196V23.5017H35.4454V24.1196C35.4454 24.7482 34.934 25.2595 34.3054 25.2595H10.1809C9.88969 25.2595 9.65358 25.4956 9.65358 25.7869C9.65358 26.0781 9.88969 26.3142 10.1809 26.3142H13.5L12.9793 29.3233H12.017C11.1446 29.3233 10.435 30.0329 10.435 30.9053C10.435 31.7777 11.1446 32.4873 12.017 32.4873H24.9831C25.8554 32.4873 26.5651 31.7777 26.5651 30.9053C26.5651 30.0329 25.8554 29.3233 24.9831 29.3233H24.0208L23.5001 26.3142H34.3053C35.5155 26.3142 36.5 25.3297 36.5 24.1196V2.40976C36.5001 1.19961 35.5156 0.215088 34.3054 0.215088ZM22.9504 29.3233H21.5148C21.2235 29.3233 20.9874 29.5594 20.9874 29.8506C20.9874 30.1418 21.2235 30.3779 21.5148 30.3779H24.9831C25.2739 30.3779 25.5104 30.6145 25.5104 30.9053C25.5104 31.1961 25.2739 31.4326 24.9831 31.4326H12.017C11.7262 31.4326 11.4897 31.1961 11.4897 30.9053C11.4897 30.6145 11.7262 30.3779 12.017 30.3779H19.053C19.3442 30.3779 19.5803 30.1418 19.5803 29.8506C19.5803 29.5594 19.3442 29.3233 19.053 29.3233H14.0497L14.5703 26.3142H22.4298L22.9504 29.3233Z" fill="white"/>
<path d="M29.0272 13.5582C28.8288 13.5582 28.6472 13.6696 28.5572 13.8464L26.0685 18.7377L23.9684 14.61C23.8784 14.4332 23.6968 14.3218 23.4984 14.3218C23.3 14.3218 23.1184 14.4332 23.0284 14.61L21.8899 16.8476H20.0723C19.781 16.8476 19.5449 17.0837 19.5449 17.3749C19.5449 17.6662 19.781 17.9023 20.0723 17.9023H22.2133C22.4117 17.9023 22.5933 17.7909 22.6833 17.6141L23.4984 16.0121L25.5985 20.1398C25.6885 20.3167 25.8701 20.4281 26.0685 20.4281C26.267 20.4281 26.4486 20.3167 26.5386 20.1398L29.0272 15.2485L30.2308 17.6141C30.3208 17.791 30.5024 17.9024 30.7008 17.9024H32.8418C33.1331 17.9024 33.3692 17.6662 33.3692 17.375C33.3692 17.0838 33.1331 16.8477 32.8418 16.8477H31.0242L29.4973 13.8465C29.4073 13.6696 29.2256 13.5582 29.0272 13.5582Z" fill="white"/>
</svg>
