<svg width="28" height="31" viewBox="0 0 28 31" fill="none" xmlns="http://www.w3.org/2000/svg">
<path d="M24.0155 19.9058H24.0139C24.7337 19.103 25.1098 17.911 25.1098 16.76C25.1098 15.9071 24.771 15.0891 24.1679 14.4859C23.5647 13.8828 22.7467 13.544 21.8938 13.544C21.0409 13.544 20.2229 13.8828 19.6198 14.4859C19.0166 15.0891 18.6778 15.9071 18.6778 16.76C18.6778 17.6803 18.946 18.6652 19.3952 19.3944C19.5061 19.5753 19.6323 19.7464 19.7725 19.9058H19.7703C19.0218 19.9042 18.292 20.1395 17.6853 20.5779C17.4122 20.5326 17.1359 20.5096 16.8591 20.5093H16.3191C16.6534 20.2083 16.9441 19.8623 17.183 19.4811C17.8502 18.433 18.2328 17.0545 18.2328 15.6989C18.2349 15.1106 18.1209 14.5277 17.8973 13.9835C17.6737 13.4394 17.3448 12.9448 16.9296 12.528C16.5143 12.1112 16.0209 11.7806 15.4776 11.5549C14.9343 11.3293 14.3518 11.2131 13.7635 11.2131C13.1752 11.2131 12.5927 11.3293 12.0493 11.5549C11.506 11.7806 11.0126 12.1112 10.5974 12.528C10.1821 12.9448 9.85328 13.4394 9.62964 13.9835C9.40601 14.5277 9.292 15.1106 9.29417 15.6989C9.29417 17.0016 9.67304 18.3945 10.3077 19.4247C10.5517 19.8279 10.8533 20.1934 11.2029 20.5094H10.6664C10.3896 20.5098 10.1133 20.5327 9.84016 20.578C9.23349 20.1396 8.50367 19.9043 7.75516 19.9059H7.75298C7.89315 19.7465 8.01937 19.5754 8.13028 19.3945C8.57949 18.6652 8.84768 17.6804 8.84768 16.7601C8.84768 15.9074 8.50894 15.0896 7.90598 14.4867C7.30303 13.8837 6.48524 13.545 5.63253 13.545C4.77983 13.545 3.96204 13.8837 3.35909 14.4867C2.75613 15.0896 2.41739 15.9074 2.41739 16.7601C2.41739 17.9111 2.7936 19.1031 3.5127 19.9059H3.50997C1.62838 19.9059 0.0976562 21.3429 0.0976562 23.109V26.8228C0.0976563 26.9511 0.148635 27.0742 0.239379 27.1649C0.330122 27.2556 0.453197 27.3066 0.581527 27.3066H5.91016V30.3768C5.91016 30.5052 5.96113 30.6283 6.05188 30.719C6.14262 30.8097 6.2657 30.8607 6.39403 30.8607H21.1321C21.2605 30.8607 21.3835 30.8097 21.4743 30.719C21.565 30.6283 21.616 30.5052 21.616 30.3768V27.3065H26.9457C27.074 27.3065 27.1971 27.2555 27.2878 27.1648C27.3785 27.074 27.4295 26.951 27.4295 26.8226V23.1089C27.4295 21.3427 25.898 19.9058 24.0155 19.9058ZM19.6456 16.76C19.6456 16.1637 19.8824 15.5919 20.3041 15.1702C20.7257 14.7486 21.2975 14.5117 21.8938 14.5117C22.4901 14.5117 23.0619 14.7486 23.4836 15.1702C23.9052 15.5919 24.142 16.1637 24.142 16.76C24.142 17.9763 23.5312 19.9058 21.8929 19.9058C20.2557 19.9058 19.6456 17.9763 19.6456 16.76ZM13.7626 12.1962C14.6912 12.1973 15.5814 12.5666 16.238 13.2232C16.8946 13.8799 17.264 14.7701 17.265 15.6987C17.265 15.7239 17.264 15.7492 17.2636 15.7744C15.9153 15.6207 14.7515 15.3208 13.1798 14.0885C13.1025 14.0279 13.0085 13.9923 12.9104 13.9864C12.8123 13.9805 12.7148 14.0046 12.6307 14.0555L10.269 15.4857C10.3239 14.596 10.7157 13.7606 11.3648 13.1495C12.0138 12.5385 12.8712 12.1976 13.7626 12.1962ZM11.1315 18.9171C10.7276 18.2612 10.4447 17.4297 10.3254 16.5824L12.8498 15.054C14.4906 16.2715 15.7748 16.5806 17.1779 16.7386C17.0444 17.5535 16.7617 18.3403 16.3665 18.9611C15.917 19.6674 15.1003 20.5095 13.7625 20.5095C12.6678 20.5093 11.7825 19.9736 11.1315 18.9171ZM3.38483 16.76C3.38483 16.4649 3.44296 16.1726 3.55591 15.8999C3.66885 15.6273 3.83439 15.3795 4.04308 15.1708C4.25177 14.9622 4.49952 14.7966 4.77219 14.6837C5.04486 14.5707 5.3371 14.5126 5.63223 14.5126C5.92737 14.5126 6.21961 14.5707 6.49227 14.6837C6.76494 14.7966 7.01269 14.9622 7.22138 15.1708C7.43007 15.3795 7.59562 15.6273 7.70856 15.8999C7.8215 16.1726 7.87963 16.4649 7.87963 16.76C7.87963 17.9763 7.26947 19.9058 5.63223 19.9058C3.99499 19.9058 3.38483 17.9763 3.38483 16.76ZM1.0651 26.3388V23.1089C1.0651 21.8763 2.16173 20.8735 3.50967 20.8735H7.75485C8.01548 20.8735 8.27467 20.9122 8.5239 20.9884C6.97467 21.7232 5.90967 23.2273 5.90967 24.9608V26.3389L1.0651 26.3388ZM20.6478 29.893H18.195V26.91C18.195 26.7817 18.1441 26.6586 18.0533 26.5679C17.9626 26.4771 17.8395 26.4262 17.7112 26.4262C17.5828 26.4262 17.4598 26.4771 17.369 26.5679C17.2783 26.6586 17.2273 26.7817 17.2273 26.91V29.893H10.2996V26.91C10.2996 26.7817 10.2486 26.6586 10.1579 26.5679C10.0671 26.4771 9.94405 26.4262 9.81572 26.4262C9.68739 26.4262 9.56431 26.4771 9.47357 26.5679C9.38283 26.6586 9.33185 26.7817 9.33185 26.91V29.893H6.87741V24.9606C6.87741 23.0398 8.57701 21.4771 10.6661 21.4771H16.8594C18.9485 21.4771 20.6481 23.0398 20.6481 24.9606L20.6478 29.893ZM26.4618 26.3388H21.6155V24.9606C21.6155 23.2271 20.5505 21.723 19.0013 20.9882C19.2505 20.912 19.5097 20.8733 19.7703 20.8733H24.0155C25.3643 20.8733 26.4618 21.8761 26.4618 23.1087V26.3388ZM11.0739 6.62229L10.6964 9.24124C10.6839 9.32844 10.6953 9.41741 10.7296 9.49856C10.7639 9.57971 10.8197 9.64997 10.891 9.70174C10.9623 9.75351 11.0463 9.78484 11.1341 9.79235C11.2219 9.79986 11.31 9.78326 11.3891 9.74435L13.7626 8.57574L16.1378 9.74447C16.2168 9.78337 16.305 9.79996 16.3928 9.79244C16.4805 9.78492 16.5646 9.75358 16.6359 9.7018C16.7071 9.65003 16.7629 9.57977 16.7972 9.49862C16.8315 9.41747 16.843 9.3285 16.8304 9.2413L16.4529 6.62235L18.298 4.72533C18.3595 4.6622 18.4025 4.58349 18.4225 4.49771C18.4424 4.41192 18.4386 4.32231 18.4114 4.23853C18.3842 4.15476 18.3347 4.07999 18.2681 4.0223C18.2016 3.96461 18.1205 3.92618 18.0337 3.91116L15.4254 3.45965L14.1905 1.11892C14.1494 1.04102 14.0879 0.975795 14.0125 0.930294C13.9371 0.884793 13.8507 0.860736 13.7626 0.860718C13.6745 0.860737 13.5881 0.884807 13.5127 0.93033C13.4372 0.975854 13.3757 1.0411 13.3346 1.11904L12.1014 3.45977L9.49328 3.91122C9.40649 3.92624 9.32545 3.96467 9.25889 4.02236C9.19233 4.08005 9.14278 4.15482 9.11558 4.23859C9.08838 4.32237 9.08457 4.41198 9.10455 4.49777C9.12453 4.58355 9.16755 4.66226 9.22897 4.7254L11.0739 6.62229ZM12.501 4.37259C12.5739 4.35996 12.6431 4.33073 12.703 4.28717C12.7629 4.24361 12.812 4.18688 12.8465 4.12134L13.7626 2.38213L14.6803 4.12158C14.7149 4.18706 14.764 4.24374 14.8238 4.28725C14.8837 4.33077 14.9528 4.35996 15.0257 4.37259L16.9644 4.70816L15.5932 6.11822C15.5415 6.17134 15.5028 6.23561 15.4799 6.30608C15.457 6.37655 15.4506 6.45133 15.4612 6.52467L15.7417 8.47098L13.9762 7.60225C13.9097 7.56953 13.8366 7.55251 13.7625 7.55251C13.6884 7.55251 13.6153 7.56953 13.5488 7.60225L11.7853 8.47062L12.0657 6.52461C12.0763 6.45128 12.0699 6.37651 12.047 6.30605C12.0241 6.23559 11.9853 6.17133 11.9337 6.11822L10.5622 4.70816L12.501 4.37259ZM2.09326 7.4384L1.83397 9.24148C1.82143 9.32868 1.83293 9.41765 1.86724 9.49879C1.90155 9.57993 1.95736 9.65017 2.02865 9.70192C2.09994 9.75368 2.18401 9.78498 2.27179 9.79247C2.35957 9.79996 2.44772 9.78334 2.52675 9.74441L4.16108 8.93931L5.79379 9.74429C5.87281 9.78324 5.96096 9.79988 6.04875 9.79241C6.13653 9.78495 6.22061 9.75365 6.29192 9.70191C6.36322 9.65017 6.41905 9.57994 6.45337 9.4988C6.4877 9.41766 6.49922 9.32869 6.48669 9.24148L6.22739 7.43858L7.4981 6.13298C7.55953 6.06985 7.60257 5.99115 7.62256 5.90536C7.64256 5.81958 7.63876 5.72996 7.61158 5.64618C7.58439 5.56239 7.53485 5.48762 7.4683 5.42992C7.40174 5.37221 7.3207 5.33377 7.23391 5.31874L5.43838 5.00785L4.58919 3.39747C4.54811 3.31959 4.48657 3.2544 4.41119 3.20891C4.3358 3.16342 4.24943 3.13936 4.16139 3.13933C4.07336 3.13932 3.987 3.16333 3.91161 3.20876C3.83621 3.2542 3.77464 3.31934 3.73352 3.39717L2.88251 5.00785L1.08844 5.3188C1.00168 5.33384 0.92067 5.37226 0.854134 5.42994C0.787598 5.48761 0.738061 5.56235 0.710861 5.6461C0.683661 5.72984 0.679829 5.81943 0.699777 5.90519C0.719726 5.99095 0.7627 6.06965 0.824067 6.13279L2.09326 7.4384ZM3.28195 5.9208C3.35483 5.90818 3.42385 5.87901 3.4837 5.83555C3.54355 5.79209 3.59264 5.73549 3.62719 5.67009L4.16078 4.66001L4.69304 5.67009C4.72757 5.7356 4.77668 5.7923 4.83657 5.83584C4.89647 5.87938 4.96556 5.90859 5.03852 5.92122L6.16419 6.1161L5.36756 6.93463C5.31589 6.98772 5.27711 7.05197 5.2542 7.12242C5.23128 7.19286 5.22485 7.26763 5.2354 7.34096L5.39786 8.47062L4.37489 7.9663C4.30836 7.93352 4.23519 7.91647 4.16102 7.91647C4.08686 7.91647 4.01368 7.93352 3.94715 7.9663L2.92225 8.47116L3.08477 7.34108C3.09531 7.2678 3.0889 7.19307 3.06602 7.12266C3.04314 7.05224 3.0044 6.98802 2.9528 6.93493L2.15713 6.11574L3.28195 5.9208ZM21.2979 7.4384L21.0388 9.24148C21.0263 9.32868 21.0378 9.41765 21.0721 9.49879C21.1064 9.57993 21.1622 9.65017 21.2335 9.70192C21.3048 9.75368 21.3888 9.78498 21.4766 9.79247C21.5644 9.79996 21.6526 9.78334 21.7316 9.74441L23.366 8.93931L25.0004 9.74441C25.0795 9.78336 25.1677 9.79997 25.2555 9.79246C25.3433 9.78495 25.4274 9.7536 25.4987 9.7018C25.57 9.64999 25.6258 9.57969 25.6601 9.4985C25.6943 9.4173 25.7058 9.32828 25.6932 9.24106L25.4324 7.43864L26.7029 6.13322C26.7644 6.07009 26.8074 5.99139 26.8274 5.90561C26.8474 5.81982 26.8436 5.7302 26.8164 5.64642C26.7892 5.56263 26.7397 5.48786 26.6731 5.43016C26.6066 5.37246 26.5255 5.33402 26.4387 5.31898L24.6432 5.0081L23.7937 3.39747C23.7526 3.31958 23.6911 3.25438 23.6157 3.20889C23.5403 3.1634 23.4539 3.13935 23.3659 3.13933C23.2778 3.13933 23.1915 3.16334 23.1161 3.20878C23.0407 3.25421 22.9792 3.31935 22.9381 3.39717L22.0872 5.00785L20.2932 5.3188C20.2064 5.33383 20.1254 5.37225 20.0588 5.42992C19.9923 5.48759 19.9427 5.56233 19.9155 5.64608C19.8883 5.72982 19.8845 5.81941 19.9044 5.90518C19.9244 5.99094 19.9674 6.06964 20.0287 6.13279L21.2979 7.4384ZM22.4865 5.9208C22.5594 5.90817 22.6284 5.879 22.6882 5.83553C22.7481 5.79205 22.7972 5.73544 22.8317 5.67003L23.3653 4.65995L23.8976 5.67003C23.9321 5.73554 23.9812 5.79224 24.0411 5.83578C24.101 5.87932 24.1701 5.90853 24.2431 5.92116L25.3688 6.11604L24.5721 6.93457C24.5204 6.98771 24.4816 7.05203 24.4587 7.12256C24.4358 7.19309 24.4294 7.26793 24.44 7.34132L24.6033 8.47056L23.5793 7.96612C23.5128 7.93338 23.4396 7.91636 23.3655 7.91636C23.2913 7.91636 23.2182 7.93338 23.1516 7.96612L22.1268 8.47092L22.2893 7.34096C22.2999 7.26767 22.2934 7.19293 22.2706 7.12251C22.2477 7.05208 22.2089 6.98785 22.1573 6.93475L21.3617 6.11574L22.4865 5.9208Z" fill="white"/>
</svg>
