<svg width="29" height="31" viewBox="0 0 29 31" fill="none" xmlns="http://www.w3.org/2000/svg">
<path d="M7.36457 17.5523C7.54922 17.7352 7.55063 18.0332 7.36775 18.2177L5.62957 19.9723C5.53763 20.0652 5.41646 20.1117 5.29522 20.1117C5.17669 20.1117 5.05822 20.0672 4.96675 19.9781L3.99717 19.033C3.81105 18.8516 3.80723 18.5537 3.98864 18.3676C4.16999 18.1815 4.46787 18.1776 4.65405 18.359L5.2894 18.9783L6.69904 17.5555C6.88204 17.3707 7.17998 17.3695 7.36457 17.5523ZM6.69904 12.7731L5.2894 14.196L4.65405 13.5767C4.46787 13.3952 4.16999 13.3991 3.98864 13.5852C3.80723 13.7713 3.81099 14.0693 3.99717 14.2506L4.96675 15.1958C5.05822 15.2849 5.17669 15.3293 5.29522 15.3293C5.41646 15.3293 5.53757 15.2828 5.62957 15.1899L7.36775 13.4354C7.55063 13.2508 7.54922 12.9528 7.36457 12.7699C7.17998 12.5871 6.88204 12.5885 6.69904 12.7731ZM9.20939 10.5889H14.6128C14.8727 10.5889 15.0834 10.3782 15.0834 10.1183C15.0834 9.85841 14.8727 9.6477 14.6128 9.6477H9.20939C8.94951 9.6477 8.7388 9.85841 8.7388 10.1183C8.7388 10.3782 8.94951 10.5889 9.20939 10.5889ZM9.20939 15.3712H14.6128C14.8727 15.3712 15.0834 15.1605 15.0834 14.9006C15.0834 14.6408 14.8727 14.43 14.6128 14.43H9.20939C8.94951 14.43 8.7388 14.6408 8.7388 14.9006C8.7388 15.1605 8.94951 15.3712 9.20939 15.3712ZM6.69904 7.99077L5.2894 9.41365L4.65405 8.79435C4.46787 8.61288 4.16999 8.61682 3.98864 8.80288C3.80723 8.989 3.81099 9.28694 3.99717 9.46829L4.96675 10.4134C5.05822 10.5026 5.17669 10.547 5.29522 10.547C5.41646 10.547 5.53757 10.5005 5.62957 10.4076L7.36775 8.65306C7.55063 8.46841 7.54922 8.17047 7.36457 7.98759C7.17998 7.80477 6.88204 7.80612 6.69904 7.99077ZM9.20939 20.1536H14.6128C14.8727 20.1536 15.0834 19.9429 15.0834 19.683C15.0834 19.4231 14.8727 19.2124 14.6128 19.2124H9.20939C8.94951 19.2124 8.7388 19.4231 8.7388 19.683C8.7388 19.9429 8.94951 20.1536 9.20939 20.1536ZM6.69904 22.3378L5.2894 23.7607L4.65405 23.1414C4.46787 22.9599 4.16999 22.9639 3.98864 23.1499C3.80723 23.336 3.81099 23.634 3.99717 23.8153L4.96675 24.7604C5.05822 24.8496 5.17669 24.894 5.29522 24.894C5.41646 24.894 5.53757 24.8475 5.62957 24.7546L7.36775 23.0001C7.55063 22.8154 7.54922 22.5175 7.36457 22.3346C7.17998 22.1518 6.88204 22.1531 6.69904 22.3378ZM9.20939 13.533H16.7995C17.0594 13.533 17.2701 13.3223 17.2701 13.0625C17.2701 12.8026 17.0594 12.5919 16.7995 12.5919H9.20939C8.94951 12.5919 8.7388 12.8026 8.7388 13.0625C8.7388 13.3223 8.94951 13.533 9.20939 13.533ZM14.5834 23.9947H9.20939C8.94951 23.9947 8.7388 24.2054 8.7388 24.4653C8.7388 24.7252 8.94951 24.9359 9.20939 24.9359H14.5834C14.8433 24.9359 15.054 24.7252 15.054 24.4653C15.054 24.2054 14.8433 23.9947 14.5834 23.9947ZM28.9404 15.5152V28.781C28.9404 29.586 28.2856 30.2407 27.4808 30.2407H17.124C16.3191 30.2407 15.6644 29.5859 15.6644 28.781V27.3751H1.99123C1.21635 27.3751 0.585938 26.7447 0.585938 25.9698V5.94453C0.585938 5.56365 0.72829 5.22007 0.997584 4.95083L5.2961 0.65231C5.56528 0.383016 5.90893 0.240723 6.28975 0.240723H19.1339C19.9088 0.240723 20.5392 0.871133 20.5392 1.64601V1.8299C20.8934 1.76143 21.259 1.72513 21.633 1.72513C24.8055 1.72513 27.3866 4.30619 27.3866 7.47871C27.3866 10.6512 24.8055 13.2323 21.633 13.2323C21.2591 13.2323 20.8935 13.196 20.5392 13.1275V14.0555H27.4808C28.2856 14.0555 28.9404 14.7103 28.9404 15.5152ZM21.633 2.66631C18.9794 2.66631 16.8205 4.82513 16.8205 7.47871C16.8205 10.1323 18.9793 12.2911 21.633 12.2911C24.2865 12.2911 26.4454 10.1323 26.4454 7.47871C26.4454 4.82513 24.2865 2.66631 21.633 2.66631ZM16.931 3.34925H9.0401V5.37036H16.2794C16.4488 4.94148 16.6686 4.53783 16.9311 4.16636V3.34925H16.931ZM2.1927 5.08683H5.05875C5.26458 5.08683 5.43205 4.91936 5.43205 4.71348V1.84748L2.1927 5.08683ZM15.6643 26.4339V23.0977H9.20939C8.94951 23.0977 8.7388 22.887 8.7388 22.6271C8.7388 22.3673 8.94951 22.1566 9.20939 22.1566H15.6643V18.3153H9.20939C8.94951 18.3153 8.7388 18.1046 8.7388 17.8447C8.7388 17.5849 8.94951 17.3742 9.20939 17.3742H15.6643V15.5151C15.6643 14.7102 16.3191 14.0555 17.124 14.0555H19.598V12.8602C17.8131 12.183 16.4498 10.6424 16.0213 8.75076H9.20939C8.94951 8.75076 8.7388 8.54006 8.7388 8.28018C8.7388 8.0203 8.94951 7.80959 9.20939 7.80959H15.8891C15.8828 7.70006 15.8793 7.58977 15.8793 7.47871C15.8793 7.07894 15.9204 6.68859 15.9984 6.31159H8.92369C8.46892 6.31159 8.09892 5.94159 8.09892 5.48683V3.23283C8.09892 2.77813 8.46892 2.40807 8.92369 2.40807H17.0474C17.4685 2.40807 17.8163 2.72548 17.8656 3.13348C18.3731 2.69284 18.9586 2.33978 19.598 2.09719V1.64596C19.598 1.39001 19.3898 1.18184 19.1338 1.18184H6.37316V4.71348C6.37316 5.4383 5.78352 6.02801 5.05869 6.02801H1.52711V25.9698C1.52711 26.2257 1.73529 26.4339 1.99123 26.4339H15.6643ZM27.9992 15.5152C27.9992 15.2293 27.7666 14.9967 27.4808 14.9967H17.124C16.8381 14.9967 16.6056 15.2293 16.6056 15.5152V28.781C16.6056 29.067 16.8381 29.2995 17.124 29.2995H27.4807C27.7665 29.2995 27.9991 29.067 27.9991 28.781V15.5152H27.9992ZM27.1949 16.4962V18.2869C27.1949 18.6703 26.8831 18.9821 26.4997 18.9821H18.105C17.7216 18.9821 17.4097 18.6702 17.4097 18.2869V16.4962C17.4097 16.1128 17.7217 15.8009 18.105 15.8009H26.4996C26.8831 15.8009 27.1949 16.1128 27.1949 16.4962ZM26.2538 16.742H18.3509V18.041H26.2538V16.742ZM20.3293 26.3583V27.8873C20.3293 28.2707 20.0174 28.5825 19.634 28.5825H18.1051C17.7217 28.5825 17.4098 28.2706 17.4098 27.8873V26.3583C17.4098 25.9749 17.7217 25.663 18.1051 25.663H19.634C20.0174 25.663 20.3293 25.9749 20.3293 26.3583ZM19.3881 26.6041H18.3509V27.6413H19.3881V26.6041ZM23.7621 26.3583V27.8873C23.7621 28.2707 23.4502 28.5825 23.0668 28.5825H21.5378C21.1544 28.5825 20.8426 28.2706 20.8426 27.8873V26.3583C20.8426 25.9749 21.1545 25.663 21.5378 25.663H23.0668C23.4502 25.663 23.7621 25.9749 23.7621 26.3583ZM22.8209 26.6041H21.7837V27.6413H22.8209V26.6041ZM27.1949 23.2163V27.8872C27.1949 28.2706 26.8831 28.5824 26.4997 28.5824H24.9707C24.5873 28.5824 24.2755 28.2705 24.2755 27.8872V23.2163C24.2755 22.8329 24.5874 22.521 24.9707 22.521H26.4997C26.8831 22.521 27.1949 22.8329 27.1949 23.2163ZM26.2538 23.4621H25.2166V27.6413H26.2538V23.4621ZM20.3293 23.2162V24.7452C20.3293 25.1286 20.0174 25.4404 19.634 25.4404H18.1051C17.7217 25.4404 17.4098 25.1286 17.4098 24.7452V23.2162C17.4098 22.8328 17.7217 22.521 18.1051 22.521H19.634C20.0174 22.521 20.3293 22.8329 20.3293 23.2162ZM19.3881 23.4621H18.3509V24.4993H19.3881V23.4621ZM23.7621 23.2162V24.7452C23.7621 25.1286 23.4502 25.4404 23.0668 25.4404H21.5378C21.1544 25.4404 20.8426 25.1286 20.8426 24.7452V23.2162C20.8426 22.8328 21.1545 22.521 21.5378 22.521H23.0668C23.4502 22.521 23.7621 22.8329 23.7621 23.2162ZM22.8209 23.4621H21.7837V24.4993H22.8209V23.4621ZM20.3293 20.0742V21.6032C20.3293 21.9866 20.0174 22.2984 19.634 22.2984H18.1051C17.7217 22.2984 17.4098 21.9866 17.4098 21.6032V20.0742C17.4098 19.6908 17.7217 19.379 18.1051 19.379H19.634C20.0174 19.379 20.3293 19.6909 20.3293 20.0742ZM19.3881 20.3202H18.3509V21.3573H19.3881V20.3202ZM23.7621 20.0742V21.6032C23.7621 21.9866 23.4502 22.2984 23.0668 22.2984H21.5378C21.1544 22.2984 20.8426 21.9866 20.8426 21.6032V20.0742C20.8426 19.6908 21.1545 19.379 21.5378 19.379H23.0668C23.4502 19.379 23.7621 19.6909 23.7621 20.0742ZM22.8209 20.3202H21.7837V21.3573H22.8209V20.3202ZM27.1949 20.0742V21.6032C27.1949 21.9866 26.8831 22.2984 26.4997 22.2984H24.9707C24.5873 22.2984 24.2755 21.9866 24.2755 21.6032V20.0742C24.2755 19.6908 24.5874 19.379 24.9707 19.379H26.4997C26.8831 19.379 27.1949 19.6909 27.1949 20.0742ZM26.2538 20.3202H25.2166V21.3573H26.2538V20.3202ZM17.4749 7.47865C17.4749 5.18589 19.3402 3.3206 21.633 3.3206C23.9258 3.3206 25.7911 5.18589 25.7911 7.47865C25.7911 9.77141 23.9258 11.6367 21.633 11.6367C19.3402 11.6367 17.4749 9.77141 17.4749 7.47865ZM18.4161 7.47865C18.4161 9.25241 19.8591 10.6955 21.633 10.6955C23.4068 10.6955 24.8499 9.25247 24.8499 7.47865C24.8499 5.70483 23.4068 4.26177 21.633 4.26177C19.8591 4.26183 18.4161 5.70489 18.4161 7.47865ZM21.5471 7.9493H21.7188C21.8799 7.9493 22.016 8.08535 22.016 8.24653C22.016 8.40771 21.88 8.54377 21.7188 8.54377H21.4771C21.3826 8.54377 21.2924 8.49712 21.2358 8.41894C21.0836 8.20835 20.7894 8.16112 20.5788 8.31329C20.3682 8.46559 20.3209 8.75982 20.4732 8.97041C20.643 9.20529 20.8885 9.37118 21.1624 9.44382V9.67041C21.1624 9.93029 21.3731 10.141 21.633 10.141C21.8928 10.141 22.1035 9.93029 22.1035 9.67041V9.42382C22.5987 9.26165 22.9572 8.79518 22.9572 8.24659C22.9572 7.56377 22.4017 7.00818 21.7188 7.00818H21.5471C21.386 7.00818 21.2498 6.87206 21.2498 6.71089C21.2498 6.54971 21.386 6.41359 21.5471 6.41359H21.7888C21.8832 6.41359 21.9734 6.4603 22.03 6.53848C22.1822 6.749 22.4764 6.79636 22.6871 6.64406C22.8977 6.49183 22.945 6.19759 22.7927 5.98701C22.6228 5.75212 22.3774 5.58624 22.1035 5.51354V5.28701C22.1035 5.02713 21.8928 4.81642 21.633 4.81642C21.3731 4.81642 21.1624 5.02713 21.1624 5.28701V5.53354C20.6672 5.69577 20.3087 6.16218 20.3087 6.71083C20.3087 7.39377 20.8643 7.9493 21.5471 7.9493Z" fill="white"/>
</svg>
