<svg width="30" height="31" viewBox="0 0 30 31" fill="none" xmlns="http://www.w3.org/2000/svg">
<path d="M24.3463 26.8656L23.2261 23.5047C22.8347 22.3313 21.836 21.4652 20.6185 21.2435L17.3848 20.6552V20.4045C17.9476 20.0779 18.4373 19.641 18.8273 19.1237H19.8042C20.6045 19.1237 21.2558 18.4724 21.2558 17.6721V11.8656C21.2558 8.39725 18.4339 5.57532 14.9655 5.57532C11.4971 5.57532 8.67516 8.39725 8.67516 11.8656V15.2527C8.67516 16.1856 9.33854 16.9661 10.2182 17.1481C10.4897 18.5387 11.3587 19.7155 12.5461 20.4045V20.6552L9.31193 21.2435C8.09499 21.4652 7.0958 22.3313 6.70483 23.5047L6.51128 24.0858L4.86322 22.4377C4.67451 22.249 4.67451 21.9418 4.86322 21.7531L6.77451 19.8423L3.18709 16.2548L1.02709 18.4148C0.387414 19.0545 0.0351562 19.9052 0.0351562 20.81C0.0351562 21.7148 0.387414 22.565 1.02709 23.2047L7.56661 29.7442C8.20628 30.3839 9.05693 30.7366 9.96177 30.7366C10.8666 30.7366 11.7168 30.3839 12.3414 29.7587L14.6984 27.5992L13.9634 26.8656H24.3463ZM20.2881 17.6721C20.2881 17.9392 20.0708 18.156 19.8042 18.156H19.3973C19.5376 17.8361 19.644 17.4989 19.7127 17.1481C19.9198 17.105 20.1105 17.0227 20.2881 16.9192V17.6721ZM19.8042 16.086V14.4195C20.0921 14.5874 20.2881 14.8961 20.2881 15.2527C20.2881 15.6094 20.0921 15.9181 19.8042 16.086ZM10.1268 16.086C9.83887 15.9181 9.6429 15.6094 9.6429 15.2527C9.6429 14.8961 9.83887 14.5874 10.1268 14.4195V16.086ZM10.1268 12.8334V13.386C9.95451 13.431 9.7929 13.4987 9.6429 13.5863V11.8656C9.6429 8.93096 12.0308 6.54306 14.9655 6.54306C17.9002 6.54306 20.2881 8.93096 20.2881 11.8656V13.5863C20.1381 13.4987 19.9764 13.4305 19.8042 13.386V12.8334H19.3203C17.8895 12.8334 16.5443 12.276 15.5321 11.2642L14.9655 10.6976L14.3989 11.2642C13.3866 12.276 12.0414 12.8334 10.6106 12.8334H10.1268ZM11.0945 16.2205V13.7827C12.5476 13.6734 13.9024 13.0739 14.9655 12.0631C16.0285 13.0739 17.3834 13.6739 18.8364 13.7827V16.2205C18.8364 16.926 18.6439 17.586 18.3129 18.156H14.9655V19.1237H17.5174C16.8352 19.7242 15.9434 20.0914 14.9655 20.0914C12.8311 20.0914 11.0945 18.3548 11.0945 16.2205ZM16.4171 20.8361V20.8589L14.9655 22.3105L13.5139 20.8589V20.8361C13.9726 20.9803 14.4598 21.0592 14.9655 21.0592C15.4711 21.0592 15.9584 20.9803 16.4171 20.8361ZM7.62225 23.8105C7.90145 22.9724 8.61516 22.3535 9.48467 22.1948L12.8669 21.5803L14.9655 23.6789L17.0635 21.5808L20.4453 22.1953C21.3148 22.354 22.0285 22.9724 22.3077 23.811L23.004 25.8979H12.9956L11.111 24.0132L9.01677 25.9076C8.83435 26.091 8.51548 26.091 8.33258 25.9076L7.2758 24.8508L7.62225 23.8105ZM3.18661 17.6232L5.40564 19.8423L4.88016 20.3677L2.66112 18.1487L3.18661 17.6232ZM11.6713 29.061C11.2145 29.5168 10.6068 29.7689 9.9608 29.7689C9.31483 29.7689 8.70709 29.5168 8.24983 29.06L1.71032 22.521C1.25354 22.0642 1.00193 21.4564 1.00193 20.8105C1.00193 20.164 1.25354 19.5563 1.71032 19.0995L1.97645 18.8334L4.19548 21.0524L4.17806 21.0698C3.61241 21.636 3.61241 22.5568 4.17806 23.1229L7.6479 26.5927C7.92225 26.8666 8.28661 27.0181 8.67467 27.0181C9.06274 27.0181 9.42709 26.8671 9.68354 26.6097L9.71983 26.5773L11.949 28.8064L11.6713 29.061ZM12.6632 28.1513L10.4389 25.9269L11.0781 25.3492L13.2985 27.5697L12.6632 28.1513Z" fill="white"/>
<path d="M28.5149 0.736572H21.7407C20.9404 0.736572 20.2891 1.38786 20.2891 2.18819V6.05915C20.2891 6.85948 20.9404 7.51077 21.7407 7.51077H23.0331L22.5328 10.429L27.2021 7.51077H28.5149C29.3152 7.51077 29.9665 6.85948 29.9665 6.05915V2.18819C29.9665 1.38786 29.3152 0.736572 28.5149 0.736572ZM28.9987 6.05915C28.9987 6.32577 28.7815 6.54302 28.5149 6.54302H26.9244L23.8513 8.46351L24.1808 6.54302H21.7407C21.4741 6.54302 21.2568 6.32577 21.2568 6.05915V2.18819C21.2568 1.92157 21.4741 1.70431 21.7407 1.70431H28.5149C28.7815 1.70431 28.9987 1.92157 28.9987 2.18819V6.05915Z" fill="white"/>
<path d="M28.0311 2.672H22.2246V3.63974H28.0311V2.672Z" fill="white"/>
<path d="M26.0956 4.60754H22.2246V5.57529H26.0956V4.60754Z" fill="white"/>
<path d="M28.0302 4.60754H27.0625V5.57529H28.0302V4.60754Z" fill="white"/>
<path d="M14.966 2.18823C8.6437 2.18823 3.19774 6.56146 1.78193 12.6616L0.864995 11.1331L0.0351562 11.631L1.73596 14.465L4.56999 12.7642L4.07209 11.9344L2.7608 12.7211C4.13209 7.14065 9.15032 3.15597 14.966 3.15597C16.2371 3.15597 17.4913 3.34468 18.6937 3.71726L18.9802 2.79307C17.6848 2.39146 16.3343 2.18823 14.966 2.18823Z" fill="white"/>
<path d="M29.7304 11.4504L26.8964 9.74963L25.196 12.5841L26.0259 13.0821L26.8727 11.6706C27.3183 12.9746 27.5462 14.3387 27.5462 15.7366C27.5462 18.6142 26.5494 21.4274 24.7402 23.6575L25.4917 24.2672C27.4407 21.8653 28.5139 18.8353 28.5139 15.7366C28.5139 14.2564 28.2754 12.8111 27.8104 11.4272L29.2325 12.2803L29.7304 11.4504Z" fill="white"/>
</svg>
