<svg width="41" height="39" viewBox="0 0 41 39" fill="none" xmlns="http://www.w3.org/2000/svg">
<path d="M19.8288 31.4576C19.8288 31.8949 20.1832 32.2493 20.6204 32.2493C21.0577 32.2493 21.4121 31.8949 21.4121 31.4576C21.4121 31.0203 21.0577 30.666 20.6204 30.666C20.1832 30.666 19.8288 31.0203 19.8288 31.4576Z" fill="#FF8159"/>
<path d="M2.9668 24.3328C2.9668 21.7135 5.09749 19.5828 7.7168 19.5828C10.3361 19.5828 12.4668 21.7135 12.4668 24.3328C12.4668 26.9521 10.3361 29.0828 7.7168 29.0828C5.09749 29.0828 2.9668 26.9521 2.9668 24.3328ZM7.7168 27.4994C9.46279 27.4994 10.8835 26.0788 10.8835 24.3328C10.8835 22.5868 9.46279 21.1661 7.7168 21.1661C5.9708 21.1661 4.55013 22.5868 4.55013 24.3328C4.55013 26.0788 5.9708 27.4994 7.7168 27.4994Z" fill="#FF8159"/>
<path d="M7.71588 29.0827C9.71082 29.0827 11.7002 29.9108 13.0553 31.2536C14.839 28.9095 17.5895 27.4993 20.6201 27.4993C23.5223 27.4993 26.3346 28.8235 28.1845 31.2536C29.5399 29.9111 31.529 29.0827 33.5242 29.0827C37.515 29.0827 40.8867 32.3455 40.8867 36.2077V37.791C40.8867 38.2283 40.5323 38.5827 40.0951 38.5827H1.14505C0.707775 38.5827 0.353382 38.2283 0.353382 37.791V36.2077C0.353382 32.3455 3.72508 29.0827 7.71588 29.0827ZM39.3034 36.2077C39.3034 33.2037 36.6569 30.666 33.5242 30.666C31.8101 30.666 30.1102 31.4255 29.0578 32.6328C29.7536 33.9768 30.1201 35.4748 30.1201 36.9993H39.3034V36.2077ZM20.6201 29.0827C16.2149 29.0827 12.7034 32.6569 12.7034 36.9993H28.5367C28.5367 32.5991 24.9535 29.0827 20.6201 29.0827ZM1.93671 36.9993H11.1201C11.1201 35.4748 11.4865 33.9768 12.1823 32.6328C11.1299 31.4255 9.43003 30.666 7.71588 30.666C4.58323 30.666 1.93671 33.2037 1.93671 36.2077V36.9993Z" fill="#FF8159"/>
<path d="M28.7754 24.3328C28.7754 21.7135 30.9061 19.5828 33.5254 19.5828C36.1447 19.5828 38.2754 21.7135 38.2754 24.3328C38.2754 26.9521 36.1447 29.0828 33.5254 29.0828C30.9061 29.0828 28.7754 26.9521 28.7754 24.3328ZM33.5254 27.4994C35.2714 27.4994 36.6921 26.0788 36.6921 24.3328C36.6921 22.5868 35.2714 21.1661 33.5254 21.1661C31.7794 21.1661 30.3587 22.5868 30.3587 24.3328C30.3587 26.0788 31.7794 27.4994 33.5254 27.4994Z" fill="#FF8159"/>
<path d="M14.2884 21.166C14.2884 17.6737 17.1294 14.8326 20.6217 14.8326C24.114 14.8326 26.9551 17.6737 26.9551 21.166C26.9551 24.6583 24.114 27.4993 20.6217 27.4993C17.1294 27.4993 14.2884 24.6583 14.2884 21.166ZM20.6217 25.916C23.241 25.916 25.3717 23.7853 25.3717 21.166C25.3717 18.5467 23.241 16.416 20.6217 16.416C18.0024 16.416 15.8717 18.5467 15.8717 21.166C15.8717 23.7853 18.0024 25.916 20.6217 25.916Z" fill="#FF8159"/>
<path d="M14.3542 5.18699C14.4473 4.90032 14.695 4.69158 14.9934 4.64828L18.4081 4.15256L19.937 1.02672C20.0697 0.754891 20.3455 0.582642 20.648 0.582642C20.9504 0.582642 21.2263 0.754891 21.3592 1.02641L22.8878 4.15256L26.3025 4.64797C26.6009 4.69127 26.8486 4.90032 26.9417 5.18699C27.0348 5.47366 26.9572 5.78816 26.7413 5.99845L24.2686 8.40839L24.8521 11.8116C24.9032 12.1085 24.781 12.4088 24.537 12.5857C24.2946 12.7619 23.9717 12.787 23.7033 12.646L20.648 11.0394L17.5914 12.646C17.3248 12.7864 17.0017 12.7629 16.7577 12.5857C16.514 12.4085 16.3918 12.1085 16.4429 11.8113L17.027 8.40839L14.5546 5.99845C14.3388 5.78816 14.2611 5.47366 14.3542 5.18699ZM18.4307 7.56508C18.6172 7.74692 18.7025 8.00916 18.6583 8.26583L18.2751 10.4983L20.2797 9.44436C20.5104 9.32314 20.7859 9.32314 21.0166 9.44436L23.0205 10.4983L22.6376 8.26583C22.5937 8.00885 22.6791 7.74692 22.8656 7.56508L24.4872 5.98453L22.2468 5.6592C21.9876 5.62179 21.764 5.4585 21.6493 5.22348L20.648 3.17628L19.6469 5.22348C19.5319 5.45881 19.3083 5.62179 19.0495 5.6592L16.8087 5.98453L18.4307 7.56508Z" fill="#FF8159"/>
<path d="M2.52354 11.1205C2.61662 10.8338 2.86432 10.6251 3.16275 10.5818L5.47621 10.2456L6.51063 8.14893C6.64391 7.87865 6.91883 7.70764 7.22035 7.70764C7.22035 7.70764 7.22035 7.70764 7.22066 7.70764C7.52186 7.70764 7.79709 7.87865 7.93037 8.14893L8.96542 10.2456L11.2792 10.5818C11.5773 10.6251 11.825 10.8338 11.9181 11.1205C12.0115 11.4071 11.9339 11.7216 11.718 11.9319L10.0441 13.5644L10.4393 15.8683C10.49 16.1652 10.3681 16.4651 10.1242 16.6423C9.88047 16.8195 9.55731 16.843 9.29074 16.703L7.22066 15.6153L5.15119 16.703C4.88462 16.843 4.56115 16.8195 4.31747 16.6423C4.07378 16.4655 3.95194 16.1652 4.00266 15.8683L4.39787 13.5644L2.72362 11.9319C2.50777 11.7216 2.43045 11.4071 2.52354 11.1205ZM5.80091 12.7214C5.9877 12.9033 6.07274 13.1652 6.02852 13.4219L5.83431 14.5549L6.85204 14.0203C7.08273 13.899 7.35827 13.899 7.58866 14.0203L8.60731 14.5552L8.41279 13.4219C8.36888 13.1652 8.45392 12.9033 8.6404 12.7214L9.46423 11.918L8.3259 11.7529C8.06799 11.7155 7.84502 11.5534 7.72967 11.3199L7.22066 10.2886L6.71195 11.3196C6.5966 11.5534 6.37363 11.7155 6.11572 11.7529L4.97739 11.918L5.80091 12.7214Z" fill="#FF8159"/>
<path d="M29.4396 11.1205C29.5326 10.8338 29.7803 10.6251 30.0788 10.5818L32.3922 10.2456L33.4266 8.14893C33.5599 7.87865 33.8348 7.70764 34.1364 7.70764C34.4379 7.70764 34.7131 7.87865 34.8464 8.14893L35.8814 10.2456L38.1952 10.5818C38.4933 10.6251 38.741 10.8338 38.8341 11.1205C38.9275 11.4071 38.8499 11.7216 38.634 11.9319L36.9601 13.5644L37.355 15.8683C37.406 16.1652 37.2839 16.4651 37.0402 16.6423C36.7965 16.8195 36.4733 16.843 36.2064 16.703L34.1367 15.6153L32.0672 16.703C31.7988 16.844 31.4759 16.8186 31.2335 16.6423C30.9898 16.4655 30.8676 16.1652 30.9187 15.8683L31.3139 13.5644L29.6396 11.9319C29.4238 11.7216 29.3465 11.4071 29.4396 11.1205ZM32.7172 12.7214C32.9037 12.9033 32.9888 13.1652 32.9448 13.4219L32.7503 14.5549L33.7684 14.0203C33.9987 13.899 34.2743 13.899 34.5047 14.0203L35.5236 14.5552L35.3291 13.4219C35.2849 13.1652 35.3702 12.9033 35.5567 12.7214L36.3806 11.918L35.2419 11.7529C34.9843 11.7155 34.7613 11.5534 34.646 11.3199L34.137 10.2886L33.6283 11.3196C33.5129 11.5534 33.29 11.7155 33.032 11.7529L31.8937 11.918L32.7172 12.7214Z" fill="#FF8159"/>
<path d="M17.1505 31.7025C17.516 31.4622 18.0068 31.5639 18.2467 31.9295C18.487 32.2947 18.3853 32.7855 18.0197 33.0257C17.2878 33.5066 16.7027 34.1771 16.3279 34.9644C16.1405 35.3587 15.6686 35.5272 15.273 35.3389C14.8781 35.1512 14.7105 34.6787 14.8982 34.2841C15.3974 33.2351 16.1763 32.3423 17.1505 31.7025Z" fill="#FF8159"/>
</svg>
