<svg width="26" height="19" viewBox="0 0 26 19" fill="none" xmlns="http://www.w3.org/2000/svg">
<path d="M23.3105 0.542969H2.70508C1.49106 0.542969 0.507812 1.53232 0.507812 2.74023V15.9238C0.507812 17.1389 1.49829 18.1211 2.70508 18.1211H23.3105C24.5144 18.1211 25.5078 17.1431 25.5078 15.9238V2.74023C25.5078 1.53447 24.5285 0.542969 23.3105 0.542969ZM23.0028 2.00781C22.5539 2.45435 14.8283 10.1393 14.5615 10.4046C14.1465 10.8197 13.5947 11.0482 13.0078 11.0482C12.4209 11.0482 11.8691 10.8196 11.4527 10.4033C11.2733 10.2248 3.63296 2.62471 3.01279 2.00781H23.0028ZM1.97266 15.6257V3.03931L8.30264 9.33594L1.97266 15.6257ZM3.01372 16.6562L9.34121 10.369L10.4183 11.4404C11.11 12.1321 12.0296 12.513 13.0078 12.513C13.986 12.513 14.9056 12.1321 15.5959 11.4418L16.6744 10.369L23.0019 16.6562H3.01372ZM24.043 15.6257L17.713 9.33594L24.043 3.03931V15.6257Z" fill="white"/>
</svg>
