<svg width="30" height="31" viewBox="0 0 30 31" fill="none" xmlns="http://www.w3.org/2000/svg">
<path d="M10.1614 11.3819H6.77431V7.99474C6.77431 7.86641 6.72333 7.74333 6.63258 7.65259C6.54184 7.56184 6.41876 7.51086 6.29043 7.51086C5.42912 7.51086 4.58714 7.76627 3.87099 8.24479C3.15483 8.72331 2.59666 9.40345 2.26704 10.1992C1.93743 10.995 1.85119 11.8706 2.01923 12.7153C2.18726 13.5601 2.60202 14.3361 3.21106 14.9451C3.82011 15.5542 4.59607 15.9689 5.44084 16.137C6.2856 16.305 7.16122 16.2187 7.95697 15.8891C8.75272 15.5595 9.43286 15.0013 9.91138 14.2852C10.3899 13.569 10.6453 12.7271 10.6453 11.8657C10.6453 11.7374 10.5943 11.6143 10.5036 11.5236C10.4128 11.4329 10.2898 11.3819 10.1614 11.3819ZM5.80656 8.51297V11.6654L3.58073 13.8913C3.22742 13.4216 3.00267 12.868 2.92864 12.285C2.85462 11.702 2.93388 11.1098 3.1586 10.5668C3.38333 10.0238 3.74575 9.5488 4.21011 9.18862C4.67447 8.82844 5.22472 8.59557 5.80656 8.51297ZM6.29043 15.2529C5.55994 15.2528 4.8493 15.0151 4.26589 14.5755L6.49172 12.3496H9.64417C9.52673 13.1555 9.12329 13.8923 8.50755 14.4253C7.8918 14.9584 7.10485 15.2521 6.29043 15.2529Z" fill="white"/>
<path d="M8.22606 10.4141H12.0971C12.2254 10.4141 12.3485 10.3631 12.4392 10.2724C12.53 10.1816 12.5809 10.0585 12.5809 9.9302C12.5795 8.77565 12.1203 7.66878 11.3039 6.85239C10.4875 6.03599 9.38062 5.57673 8.22606 5.57532C8.09773 5.57532 7.97466 5.6263 7.88391 5.71704C7.79317 5.80779 7.74219 5.93086 7.74219 6.05919V9.9302C7.74219 10.0585 7.79317 10.1816 7.88391 10.2724C7.97466 10.3631 8.09773 10.4141 8.22606 10.4141ZM8.70994 6.57742C9.43321 6.68316 10.1031 7.01946 10.6199 7.53633C11.1368 8.0532 11.4731 8.72305 11.5788 9.44632H8.70994V6.57742Z" fill="white"/>
<path d="M18.388 12.8335C17.1439 12.8335 15.9277 13.2024 14.8933 13.8936C13.8588 14.5848 13.0526 15.5672 12.5765 16.7167C12.1004 17.8661 11.9758 19.1309 12.2185 20.3511C12.4612 21.5713 13.0603 22.6921 13.9401 23.5719C14.8198 24.4516 15.9406 25.0507 17.1609 25.2934C18.3811 25.5361 19.6459 25.4115 20.7953 24.9354C21.9447 24.4593 22.9271 23.6531 23.6183 22.6186C24.3095 21.5842 24.6784 20.368 24.6784 19.1239C24.6765 17.4562 24.0132 15.8573 22.8339 14.678C21.6546 13.4988 20.0558 12.8354 18.388 12.8335ZM15.9687 17.1884V14.3887C16.278 14.2302 16.6021 14.1025 16.9364 14.0074V17.1884H15.9687ZM21.7752 18.1561V19.1239H15.0009V18.1561H21.7752ZM19.8397 17.1884V14.0074C20.174 14.1025 20.4981 14.2302 20.8074 14.3887V17.1884H19.8397ZM18.8719 13.8259V17.1884H17.9042V13.8259C18.0638 13.8114 18.2245 13.8012 18.388 13.8012C18.5516 13.8012 18.7122 13.8114 18.8719 13.8259ZM15.0009 15.0211V17.1884H14.517C14.3887 17.1884 14.2656 17.2394 14.1749 17.3301C14.0841 17.4208 14.0332 17.5439 14.0332 17.6723V19.6078C14.0332 19.7361 14.0841 19.8592 14.1749 19.9499C14.2656 20.0407 14.3887 20.0916 14.517 20.0916H22.2591C22.3874 20.0916 22.5105 20.0407 22.6012 19.9499C22.6919 19.8592 22.7429 19.7361 22.7429 19.6078V17.6723C22.7429 17.5439 22.6919 17.4208 22.6012 17.3301C22.5105 17.2394 22.3874 17.1884 22.2591 17.1884H21.7752V15.0211C22.6414 15.7325 23.2597 16.7003 23.5411 17.7853C23.8225 18.8704 23.7524 20.0167 23.341 21.0594H13.4351C13.0237 20.0167 12.9536 18.8704 13.235 17.7853C13.5164 16.7003 14.1346 15.7325 15.0009 15.0211ZM18.388 24.4465C17.5028 24.4456 16.6317 24.2239 15.8537 23.8014C15.0757 23.379 14.4154 22.7691 13.9325 22.0271H22.8436C22.3607 22.7691 21.7004 23.379 20.9224 23.8014C20.1444 24.2239 19.2733 24.4456 18.388 24.4465Z" fill="white"/>
<path d="M29.3572 26.9902L27.264 24.897C27.3607 24.7147 27.3967 24.5064 27.3667 24.3022C27.3367 24.0981 27.2422 23.9089 27.097 23.7623L25.8656 22.5308C26.4587 21.2415 26.7057 19.8199 26.5822 18.4061C26.4588 16.9923 25.9691 15.635 25.1615 14.468V2.1882C25.1615 1.8032 25.0086 1.43398 24.7364 1.16174C24.4641 0.889511 24.0949 0.736572 23.7099 0.736572H1.45163C1.06663 0.736572 0.697405 0.889511 0.425172 1.16174C0.152939 1.43398 0 1.8032 0 2.1882V20.5755C0 20.9605 0.152939 21.3297 0.425172 21.6019C0.697405 21.8742 1.06663 22.0271 1.45163 22.0271H10.7004C11.095 23.0817 11.7027 24.0437 12.4857 24.853C13.2686 25.6623 14.2099 26.3016 15.2509 26.7309C16.2919 27.1602 17.4102 27.3703 18.536 27.3482C19.6618 27.326 20.771 27.0721 21.7942 26.6022L23.0257 27.8336C23.1712 27.9807 23.3605 28.0765 23.5652 28.1066C23.7698 28.1367 23.9787 28.0995 24.1604 28.0006L26.2536 30.0938C26.6652 30.5054 27.2234 30.7366 27.8054 30.7366C28.3875 30.7366 28.9457 30.5054 29.3572 30.0938C29.7688 29.6822 30 29.124 30 28.542C30 27.96 29.7688 27.4018 29.3572 26.9902ZM1.45163 1.70432H23.7099C23.8382 1.70432 23.9613 1.7553 24.0521 1.84605C24.1428 1.93679 24.1938 2.05987 24.1938 2.1882V3.63983H0.967752V2.1882C0.967752 2.05987 1.01873 1.93679 1.10948 1.84605C1.20022 1.7553 1.3233 1.70432 1.45163 1.70432ZM1.45163 21.0594C1.3233 21.0594 1.20022 21.0084 1.10948 20.9176C1.01873 20.8269 0.967752 20.7038 0.967752 20.5755V4.60758H24.1938V13.3033C23.4935 12.6074 22.6741 12.0428 21.7744 11.6364V6.05921C21.7744 5.93087 21.7234 5.8078 21.6327 5.71705C21.5419 5.62631 21.4189 5.57533 21.2905 5.57533H19.355C19.2267 5.57533 19.1036 5.62631 19.0129 5.71705C18.9221 5.8078 18.8712 5.93087 18.8712 6.05921V10.9226C18.71 10.913 18.5508 10.898 18.3873 10.898C18.2237 10.898 18.0645 10.913 17.9034 10.9226V8.96246C17.9034 8.83413 17.8524 8.71105 17.7617 8.62031C17.6709 8.52956 17.5479 8.47858 17.4195 8.47858H15.484C15.3557 8.47858 15.2326 8.52956 15.1419 8.62031C15.0511 8.71105 15.0001 8.83413 15.0001 8.96246V11.6364C13.2502 12.4182 11.8309 13.7905 10.9905 15.5131C10.1502 17.2357 9.94234 19.199 10.4033 21.0594H1.45163ZM20.8067 11.2623C20.489 11.1665 20.1658 11.0903 19.8389 11.0339V6.54308H20.8067V11.2623ZM16.9357 11.0339C16.6087 11.0903 16.2855 11.1665 15.9679 11.2623V9.44634H16.9357V11.0339ZM11.1291 19.1239C11.1291 17.6883 11.5548 16.285 12.3524 15.0914C13.1499 13.8979 14.2835 12.9676 15.6097 12.4182C16.936 11.8689 18.3953 11.7251 19.8033 12.0052C21.2112 12.2852 22.5045 12.9765 23.5196 13.9916C24.5346 15.0066 25.2259 16.2999 25.506 17.7079C25.786 19.1158 25.6423 20.5752 25.0929 21.9014C24.5436 23.2277 23.6133 24.3612 22.4197 25.1588C21.2261 25.9563 19.8228 26.382 18.3873 26.382C16.463 26.3798 14.6181 25.6144 13.2574 24.2537C11.8967 22.893 11.1313 21.0482 11.1291 19.1239ZM22.6851 26.1246C23.7847 25.4469 24.7103 24.5212 25.388 23.4216L26.4128 24.4465L23.7099 27.1494L22.6851 26.1246ZM27.8054 29.7691C27.6442 29.7695 27.4846 29.7379 27.3356 29.6762C27.1867 29.6145 27.0515 29.5239 26.9378 29.4096L24.878 27.3497L26.6132 25.6146L28.673 27.6744C28.8446 27.846 28.9614 28.0647 29.0088 28.3027C29.0561 28.5407 29.0318 28.7874 28.9389 29.0116C28.8461 29.2358 28.6888 29.4274 28.4871 29.5622C28.2853 29.6971 28.0481 29.7691 27.8054 29.7691Z" fill="white"/>
<path d="M8.22593 17.1884H2.41942C2.29109 17.1884 2.16802 17.2393 2.07727 17.3301C1.98653 17.4208 1.93555 17.5439 1.93555 17.6722V19.6077C1.93555 19.7361 1.98653 19.8591 2.07727 19.9499C2.16802 20.0406 2.29109 20.0916 2.41942 20.0916H8.22593C8.35426 20.0916 8.47734 20.0406 8.56808 19.9499C8.65883 19.8591 8.70981 19.7361 8.70981 19.6077V17.6722C8.70981 17.5439 8.65883 17.4208 8.56808 17.3301C8.47734 17.2393 8.35426 17.1884 8.22593 17.1884ZM7.74206 19.1239H2.9033V18.1561H7.74206V19.1239Z" fill="white"/>
</svg>
