<svg width="212" height="51" viewBox="0 0 212 51" fill="none" xmlns="http://www.w3.org/2000/svg">
<path d="M64.3867 35.3133H79.3267V30.8133H69.6967V13.8633H64.3867V35.3133Z" fill="#0C1524"/>
<path d="M88.1783 32.3132C86.0483 32.3132 84.9383 30.4532 84.9383 27.6632C84.9383 24.8732 86.0483 22.9832 88.1783 22.9832C90.3083 22.9832 91.4483 24.8732 91.4483 27.6632C91.4483 30.4532 90.3083 32.3132 88.1783 32.3132ZM88.2083 35.7932C93.1583 35.7932 96.3983 32.2832 96.3983 27.6632C96.3983 23.0432 93.1583 19.5332 88.2083 19.5332C83.2883 19.5332 79.9883 23.0432 79.9883 27.6632C79.9883 32.2832 83.2883 35.7932 88.2083 35.7932Z" fill="#0C1524"/>
<path d="M104.967 40.6234C107.247 40.6234 109.257 40.1134 110.607 38.9134C111.837 37.8034 112.647 36.1234 112.647 33.8134V19.9534H107.967V21.6034H107.907C107.007 20.3134 105.627 19.5034 103.587 19.5034C99.7767 19.5034 97.1367 22.6834 97.1367 27.1834C97.1367 31.8934 100.347 34.4734 103.797 34.4734C105.657 34.4734 106.827 33.7234 107.727 32.7034H107.847V34.2334C107.847 36.0934 106.977 37.1734 104.907 37.1734C103.287 37.1734 102.477 36.4834 102.207 35.6734H97.4667C97.9467 38.8834 100.737 40.6234 104.967 40.6234ZM104.937 30.8434C103.107 30.8434 101.907 29.3434 101.907 27.0334C101.907 24.6934 103.107 23.1934 104.937 23.1934C106.977 23.1934 108.057 24.9334 108.057 27.0034C108.057 29.1634 107.067 30.8434 104.937 30.8434Z" fill="#0C1524"/>
<path d="M122.268 32.3132C120.138 32.3132 119.028 30.4532 119.028 27.6632C119.028 24.8732 120.138 22.9832 122.268 22.9832C124.398 22.9832 125.538 24.8732 125.538 27.6632C125.538 30.4532 124.398 32.3132 122.268 32.3132ZM122.298 35.7932C127.248 35.7932 130.488 32.2832 130.488 27.6632C130.488 23.0432 127.248 19.5332 122.298 19.5332C117.378 19.5332 114.078 23.0432 114.078 27.6632C114.078 32.2832 117.378 35.7932 122.298 35.7932Z" fill="#0C1524"/>
<path d="M131.918 35.3133H136.808V19.9533H131.918V35.3133ZM131.918 17.8233H136.808V13.8633H131.918V17.8233Z" fill="#0C1524"/>
<path d="M138.93 40.3834H143.82V33.7234H143.88C144.84 35.0134 146.25 35.7934 148.23 35.7934C152.25 35.7934 154.92 32.6134 154.92 27.6334C154.92 23.0134 152.43 19.5034 148.35 19.5034C146.25 19.5034 144.75 20.4334 143.7 21.8134H143.61V19.9534H138.93V40.3834ZM146.97 32.0134C144.87 32.0134 143.67 30.3034 143.67 27.8134C143.67 25.3234 144.75 23.4334 146.88 23.4334C148.98 23.4334 149.97 25.1734 149.97 27.8134C149.97 30.4234 148.83 32.0134 146.97 32.0134Z" fill="#0C1524"/>
<path d="M162.882 35.7934C166.902 35.7934 169.872 34.0534 169.872 30.6934C169.872 26.7634 166.692 26.0734 163.992 25.6234C162.042 25.2634 160.302 25.1134 160.302 24.0334C160.302 23.0734 161.232 22.6234 162.432 22.6234C163.782 22.6234 164.712 23.0434 164.892 24.4234H169.392C169.152 21.3934 166.812 19.5034 162.462 19.5034C158.832 19.5034 155.832 21.1834 155.832 24.4234C155.832 28.0234 158.682 28.7434 161.352 29.1934C163.392 29.5534 165.252 29.7034 165.252 31.0834C165.252 32.0734 164.322 32.6134 162.852 32.6134C161.232 32.6134 160.212 31.8634 160.032 30.3334H155.412C155.562 33.7234 158.382 35.7934 162.882 35.7934Z" fill="#0C1524"/>
<path d="M176.511 35.7634C178.641 35.7634 179.991 34.9234 181.101 33.4234H181.191V35.3134H185.871V19.9534H180.981V28.5334C180.981 30.3634 179.961 31.6234 178.281 31.6234C176.721 31.6234 175.971 30.6934 175.971 29.0134V19.9534H171.111V30.0334C171.111 33.4534 172.971 35.7634 176.511 35.7634Z" fill="#0C1524"/>
<path d="M188 35.3134H192.89V26.7034C192.89 24.8734 193.79 23.5834 195.32 23.5834C196.79 23.5834 197.48 24.5434 197.48 26.1934V35.3134H202.37V26.7034C202.37 24.8734 203.24 23.5834 204.8 23.5834C206.27 23.5834 206.96 24.5434 206.96 26.1934V35.3134H211.85V25.3234C211.85 21.8734 210.11 19.5034 206.63 19.5034C204.65 19.5034 203 20.3434 201.8 22.2034H201.74C200.96 20.5534 199.43 19.5034 197.42 19.5034C195.2 19.5034 193.73 20.5534 192.77 22.1434H192.68V19.9534H188V35.3134Z" fill="#0C1524"/>
<path fill-rule="evenodd" clip-rule="evenodd" d="M25.4161 50.3132C39.2232 50.3132 50.4161 39.1203 50.4161 25.3132C50.4161 11.5061 39.2232 0.313232 25.4161 0.313232C11.6089 0.313232 0.416016 11.5061 0.416016 25.3132C0.416016 39.1203 11.6089 50.3132 25.4161 50.3132ZM33.2152 11.9593C33.5948 10.6108 32.2862 9.8134 31.0911 10.6649L14.4074 22.5502C13.1113 23.4736 13.3152 25.3132 14.7137 25.3132H19.1069V25.2792H27.6692L20.6926 27.7408L17.6169 38.6672C17.2373 40.0157 18.5458 40.8131 19.7411 39.9616L36.4247 28.0763C37.7208 27.153 37.5168 25.3132 36.1184 25.3132H29.4562L33.2152 11.9593Z" fill="#FF8159"/>
</svg>
