<svg width="37" height="37" viewBox="0 0 37 37" fill="none" xmlns="http://www.w3.org/2000/svg">
<path d="M15.2623 31.9965H14.9559C14.6915 30.9407 14.4336 29.9012 14.188 28.8583C13.7176 26.8605 13.2353 25.5855 10.5565 24.8256L7.96695 22.9656C7.52205 22.6461 6.98956 22.536 6.48694 22.6166L4.76259 18.5463C3.59485 15.7898 2.07687 16.1116 1.63977 16.276C0.562904 16.6807 -0.0691364 18.1074 0.3136 19.2692L2.51193 25.9417C2.53511 26.0121 2.55865 26.0841 2.58255 26.1576C2.9416 27.2595 3.38839 28.6308 4.41665 29.3375L7.41413 31.3976C7.6517 31.5608 7.82004 31.7559 7.9319 31.9962H7.86573C7.86566 31.9962 7.86558 31.9962 7.86551 31.9962C7.53641 31.9962 7.22793 32.1236 6.99677 32.3549C6.76562 32.5862 6.63845 32.8949 6.63874 33.2241V33.2242L6.64049 35.0424C6.64115 35.7182 7.1915 36.2681 7.86719 36.2681L15.264 36.2684C15.5933 36.2684 15.9018 36.141 16.133 35.9096C16.3641 35.6782 16.4912 35.3695 16.4909 35.0404L16.4892 33.2221C16.4884 32.5463 15.938 31.9965 15.2623 31.9965ZM7.99202 30.5567L4.99455 28.4965C4.2513 27.9858 3.86397 26.7968 3.55265 25.8415C3.52831 25.7669 3.50448 25.6938 3.48102 25.6223L1.28269 18.9499C1.05379 18.2552 1.48506 17.424 1.99875 17.231C2.59224 17.0079 3.27427 17.6483 3.82324 18.9442L5.55364 23.0289C5.41518 23.1398 5.28925 23.2712 5.18074 23.4223C4.53857 24.3164 4.7435 25.5662 5.63752 26.2084L9.17645 28.7506C9.40535 28.9149 9.72396 28.8626 9.88843 28.6338C10.0528 28.405 10.0005 28.0862 9.77169 27.9218L6.23276 25.3797C5.79558 25.0657 5.69538 24.4545 6.00947 24.0174C6.32349 23.5801 6.93469 23.4799 7.37179 23.7941L10.0348 25.7069C10.084 25.7421 10.139 25.7685 10.1973 25.7844C12.4686 26.4079 12.7724 27.2979 13.195 29.092C13.4228 30.0592 13.6606 31.0218 13.9042 31.9962L9.01343 31.9959C8.85201 31.3961 8.50899 30.9119 7.99202 30.5567ZM15.4112 35.1885C15.384 35.2157 15.3364 35.2481 15.2639 35.2481L7.86733 35.2476C7.7535 35.2476 7.66088 35.155 7.66081 35.0412L7.65906 33.2229C7.65899 33.1506 7.69134 33.103 7.71852 33.0757C7.74571 33.0485 7.79322 33.0162 7.86566 33.0162L14.5552 33.0166C14.5559 33.0166 14.5566 33.0167 14.5574 33.0167C14.5583 33.0167 14.5593 33.0166 14.5603 33.0166H15.2623C15.3761 33.0166 15.4687 33.1092 15.4689 33.223L15.4705 35.0413C15.4707 35.1137 15.4383 35.1613 15.4112 35.1885ZM34.761 16.276C34.3237 16.1116 32.806 15.7898 31.6382 18.5462L29.9139 22.6166C29.4115 22.5363 28.8787 22.646 28.4338 22.9655L25.8443 24.8255C23.1656 25.5854 22.6833 26.8604 22.2128 28.8583C21.9656 29.908 21.7082 30.945 21.4449 31.9964H21.1386C20.4628 31.9964 19.9125 32.5462 19.9118 33.2221L19.9101 35.0404C19.9098 35.3695 20.0369 35.6782 20.2681 35.9096C20.4993 36.141 20.8078 36.2684 21.1373 36.2684L28.5335 36.2679C29.2093 36.2679 29.7596 35.7181 29.7603 35.0423L29.762 33.2241C29.7623 32.8949 29.6352 32.5862 29.404 32.3548C29.1728 32.1234 28.8644 31.996 28.5353 31.996C28.5353 31.996 28.5351 31.996 28.5351 31.996H28.4689C28.5807 31.7558 28.7491 31.5607 28.9866 31.3974L31.9841 29.3373C33.0125 28.6306 33.4593 27.259 33.8184 26.1569C33.8422 26.0836 33.8656 26.0117 33.8888 25.9415L36.0871 19.2691C36.4699 18.1074 35.8379 16.6807 34.761 16.276ZM28.5353 33.0163C28.6076 33.0163 28.6552 33.0486 28.6824 33.0758C28.7095 33.103 28.7419 33.1506 28.7418 33.2229L28.7401 35.0414C28.74 35.1551 28.6474 35.2477 28.5335 35.2477L21.1369 35.2482C21.0645 35.2482 21.017 35.2158 20.9897 35.1886C20.9624 35.1614 20.9302 35.1138 20.9302 35.0414L20.932 33.2231C20.9321 33.1092 21.0247 33.0167 21.1385 33.0167H21.8404C21.8414 33.0167 21.8424 33.0168 21.8434 33.0168C21.8442 33.0168 21.8449 33.0167 21.8456 33.0167L28.5353 33.0163ZM35.1182 18.9499L32.9198 25.6223C32.8964 25.6936 32.8726 25.7666 32.8484 25.8409C32.5372 26.7965 32.1497 27.9857 31.4064 28.4966L28.4088 30.5567C27.8918 30.912 27.5488 31.3963 27.3874 31.9961L22.4967 31.9964C22.7393 31.0258 22.9767 30.0654 23.2059 29.0922C23.6285 27.2981 23.9324 26.408 26.2035 25.7846C26.2619 25.7685 26.317 25.7423 26.3661 25.707L29.029 23.7942C29.4664 23.4801 30.0774 23.5805 30.3914 24.0175C30.5426 24.228 30.6024 24.4862 30.5601 24.7447C30.5177 25.0031 30.3785 25.2287 30.168 25.3799L26.6291 27.922C26.4003 28.0864 26.3481 28.4052 26.5123 28.634C26.6768 28.8629 26.9955 28.915 27.2243 28.7508L30.7633 26.2086C31.195 25.8985 31.4804 25.4372 31.5668 24.9099C31.6533 24.3825 31.5301 23.8542 31.22 23.4224C31.1115 23.2714 30.9856 23.14 30.8471 23.0291L32.5775 18.9444C33.1264 17.6486 33.8084 17.0078 34.402 17.2312C34.9158 17.424 35.3471 18.2552 35.1182 18.9499ZM24.9687 20.0515C27.2713 17.6707 28.5394 14.9195 28.5394 12.3045V3.72487C28.5394 3.47739 28.3618 3.26554 28.118 3.22247C25.814 2.81576 23.5317 1.85163 21.3348 0.356756C21.2502 0.299259 21.1502 0.268433 21.0479 0.268433H15.3531C15.2508 0.268433 15.1508 0.299186 15.0661 0.356829C12.8691 1.85163 10.5869 2.81583 8.28286 3.22255C8.0391 3.26554 7.86143 3.47739 7.86143 3.72494V12.3045C7.86143 14.9194 9.12945 17.6706 11.432 20.0515C13.3147 21.9982 15.7882 23.5807 18.0488 24.2845C18.0982 24.2999 18.1493 24.3075 18.2004 24.3075C18.2515 24.3075 18.3027 24.2999 18.3521 24.2845C20.6127 23.5805 23.0862 21.9981 24.9687 20.0515ZM18.2004 23.2618C16.1369 22.5837 13.8922 21.1277 12.1655 19.3422C10.0479 17.1527 8.88167 14.6533 8.88167 12.3045V4.14696C11.1387 3.68581 13.3654 2.72569 15.5092 1.28868H20.8916C23.0355 2.72569 25.2622 3.68581 27.5191 4.14696V12.3045C27.5191 14.6533 26.3529 17.1527 24.2352 19.3422C22.5088 21.1277 20.2641 22.5837 18.2004 23.2618ZM26.1261 4.85887C24.2846 4.34438 22.4626 3.51361 20.7103 2.38966C20.6281 2.33698 20.5326 2.30892 20.4349 2.30892H15.9661C15.8684 2.30892 15.7729 2.3369 15.6907 2.38966C13.9383 3.51368 12.1161 4.34445 10.2749 4.85887C10.0545 4.92045 9.90206 5.12129 9.90206 5.35019V12.3045C9.90206 14.8149 11.3689 16.9573 12.5994 18.3124C14.1129 19.9793 16.0871 21.3644 18.0161 22.1124C18.0754 22.1354 18.138 22.147 18.2006 22.147C18.2631 22.147 18.3257 22.1354 18.385 22.1124C20.3139 21.3644 22.2882 19.9794 23.8017 18.3125C25.0323 16.9573 26.4991 14.8148 26.4991 12.3045V5.35019C26.499 5.12129 26.3466 4.92045 26.1261 4.85887ZM25.4788 12.3045C25.4788 14.009 24.6149 15.8991 23.0463 17.6267C21.705 19.1041 19.9065 20.3864 18.2005 21.0876C16.4944 20.3863 14.696 19.104 13.3546 17.6267C11.7861 15.8991 10.9222 14.0091 10.9222 12.3045V5.73315C12.6894 5.19992 14.4338 4.39247 16.1148 3.32916H20.2862C21.9671 4.3924 23.7114 5.19985 25.4788 5.73315V12.3045ZM15.47 10.8402C15.0282 10.1215 14.084 9.89625 13.3653 10.3379C13.0172 10.552 12.7732 10.8887 12.6784 11.2862C12.5835 11.6836 12.6491 12.0943 12.8631 12.4424L14.6401 15.3344C14.8599 15.692 15.2063 15.9333 15.6156 16.014C15.715 16.0336 15.8161 16.0432 15.9175 16.0432C16.2679 16.0432 16.6206 15.9278 16.9189 15.7101L23.1367 11.1719C23.4662 10.932 23.6825 10.5782 23.7458 10.1756C23.8091 9.77302 23.7119 9.36987 23.472 9.04048C22.9767 8.36034 22.0207 8.21 21.3401 8.70548L16.3818 12.3244L15.47 10.8402ZM21.9411 9.52983C22.1665 9.36579 22.4832 9.41557 22.6473 9.64097C22.7268 9.75013 22.7589 9.88364 22.738 10.017C22.717 10.1504 22.6454 10.2675 22.5357 10.3474L16.3174 14.886C16.1621 14.9993 15.9781 15.0454 15.8128 15.013C15.6824 14.9873 15.5803 14.9156 15.5092 14.8002L13.7323 11.9083L13.7323 11.9082C13.6609 11.7923 13.6391 11.6555 13.6707 11.5231C13.7024 11.3907 13.7836 11.2785 13.8996 11.2072C13.9827 11.1562 14.0747 11.1318 14.1657 11.1318C14.3371 11.1318 14.5045 11.2181 14.6007 11.3744L15.8018 13.3291C15.8762 13.4504 15.998 13.535 16.1377 13.5626C16.2772 13.59 16.4221 13.558 16.5371 13.4741L21.9411 9.52983Z" fill="white"/>
</svg>
