<svg width="31" height="31" viewBox="0 0 31 31" fill="none" xmlns="http://www.w3.org/2000/svg">
<path d="M28.5458 21.8104C28.7273 21.3306 28.8273 20.8116 28.8273 20.2696C28.8273 18.2576 27.4572 16.5585 25.5951 16.041V12.5312H26.6007C27.8146 12.5312 28.8022 11.5487 28.8022 10.3412C28.8022 10.0146 28.5375 9.74996 28.211 9.74996C27.8845 9.74996 27.6198 10.0146 27.6198 10.3412C27.6198 10.8968 27.1626 11.3487 26.6007 11.3487H25.0039C24.6774 11.3487 24.4127 11.6134 24.4127 11.94V15.0199L20.994 11.5265C20.8828 11.4128 20.7305 11.3487 20.5715 11.3487H10.9551C10.7961 11.3487 10.6438 11.4128 10.5326 11.5264L7.11233 15.0202V11.94C7.11233 11.6134 6.84766 11.3487 6.52112 11.3487H4.80532C4.24253 11.3487 3.78462 10.8968 3.78462 10.3412V3.04913C3.78462 2.49443 4.24247 2.04308 4.80532 2.04308H26.6006C27.1625 2.04308 27.6196 2.49437 27.6196 3.04913V5.08128C27.6196 5.40782 27.8844 5.67249 28.2108 5.67249C28.5374 5.67249 28.8021 5.40782 28.8021 5.08128V3.04913C28.8021 1.84245 27.8145 0.860718 26.6006 0.860718H4.80532C3.59056 0.860718 2.60226 1.84245 2.60226 3.04913V10.3411C2.60226 11.5487 3.59056 12.5311 4.80532 12.5311H5.92985V16.0413C4.06769 16.5593 2.69759 18.258 2.69759 20.2696C2.69759 20.8119 2.79773 21.3312 2.97949 21.8112C1.67273 22.9785 0.931641 24.6144 0.931641 26.3678V28.5245C0.931699 29.8127 1.98533 30.8607 3.28048 30.8607H4.47064C4.79718 30.8607 5.06185 30.596 5.06185 30.2695C5.06185 29.943 4.79718 29.6782 4.47064 29.6782H3.28048C2.63736 29.6782 2.11412 29.1607 2.11412 28.5245V26.3678C2.11412 25.0471 2.63707 23.808 3.56724 22.8817C4.37408 23.9615 5.667 24.6627 7.122 24.6627C8.577 24.6627 9.86992 23.9614 10.6768 22.8817C11.6069 23.808 12.1299 25.0471 12.1299 26.3678V28.5245C12.1299 29.1607 11.6066 29.6782 10.9635 29.6782H9.77336C9.44682 29.6782 9.18215 29.9429 9.18215 30.2695C9.18215 30.596 9.44682 30.8607 9.77336 30.8607H10.9635C12.2586 30.8607 13.3123 29.8127 13.3123 28.5245V26.3678C13.3123 24.6143 12.5712 22.9784 11.2644 21.8112C11.4462 21.3312 11.5463 20.8119 11.5463 20.2696C11.5463 18.0996 9.95201 16.2932 7.86532 15.9412L11.2037 12.5311H20.3229L23.6603 15.9414C21.5741 16.2939 19.9804 18.1 19.9804 20.2696C19.9804 20.8116 20.0803 21.3306 20.2619 21.8103C18.9544 22.9786 18.2128 24.615 18.2128 26.3678V28.5245C18.2128 29.8127 19.2672 30.8607 20.5632 30.8607H28.2461C29.5412 30.8607 30.5949 29.8127 30.5949 28.5245V26.3678C30.5948 24.6151 29.8533 22.9788 28.5458 21.8104ZM10.3639 20.2696C10.3639 22.04 8.90957 23.4804 7.12194 23.4804C5.33431 23.4804 3.88001 22.0401 3.88001 20.2696C3.88001 18.5 5.33431 17.0605 7.12194 17.0605C8.90957 17.0605 10.3639 18.5 10.3639 20.2696ZM24.4046 17.0604C26.1913 17.0604 27.6448 18.5 27.6448 20.2696C27.6448 22.04 26.1913 23.4804 24.4046 23.4804C22.617 23.4804 21.1626 22.04 21.1626 20.2696C21.1627 18.5 22.617 17.0604 24.4046 17.0604ZM29.4124 28.5245C29.4124 29.1607 28.8892 29.6782 28.246 29.6782H20.5631C19.9191 29.6782 19.3951 29.1607 19.3951 28.5245V26.3678C19.3951 25.0476 19.9185 23.8083 20.8493 22.881C21.6562 23.9611 22.9493 24.6627 24.4047 24.6627C25.8593 24.6627 27.1519 23.9613 27.9584 22.8812C28.8891 23.8085 29.4125 25.0478 29.4125 26.3678L29.4124 28.5245Z" fill="white"/>
<path d="M7.40762 8.74077H23.9955C24.3221 8.74077 24.5867 8.47604 24.5867 8.14956C24.5867 7.82308 24.3221 7.55835 23.9955 7.55835H7.40762C7.08107 7.55835 6.81641 7.82308 6.81641 8.14956C6.81641 8.47604 7.08107 8.74077 7.40762 8.74077Z" fill="white"/>
<path d="M7.40762 5.24748H9.15511C9.4816 5.24748 9.74632 4.98276 9.74632 4.65627C9.74632 4.32979 9.4816 4.06506 9.15511 4.06506H7.40762C7.08107 4.06506 6.81641 4.32979 6.81641 4.65627C6.81641 4.98276 7.08107 5.24748 7.40762 5.24748Z" fill="white"/>
<path d="M23.9961 4.06506H13.2885C12.9619 4.06506 12.6973 4.32979 12.6973 4.65627C12.6973 4.98276 12.9619 5.24748 13.2885 5.24748H23.9961C24.3227 5.24748 24.5873 4.98276 24.5873 4.65627C24.5873 4.32979 24.3227 4.06506 23.9961 4.06506Z" fill="white"/>
<path d="M28.2104 7.12012C27.8838 7.12012 27.6191 7.38478 27.6191 7.71133V7.71461C27.6191 8.04115 27.8838 8.30418 28.2104 8.30418C28.5369 8.30418 28.8016 8.03787 28.8016 7.71133C28.8016 7.38478 28.5368 7.12012 28.2104 7.12012Z" fill="white"/>
<path d="M7.12221 29.6782H7.11881C6.79226 29.6782 6.5293 29.9429 6.5293 30.2694C6.5293 30.596 6.79566 30.8606 7.12221 30.8606C7.44875 30.8606 7.71342 30.596 7.71342 30.2694C7.71336 29.9429 7.44869 29.6782 7.12221 29.6782Z" fill="white"/>
</svg>
