<svg width="34" height="41" viewBox="0 0 34 41" fill="none" xmlns="http://www.w3.org/2000/svg">
<path d="M0.509608 36.4884C0.340589 36.9971 0.294782 37.5386 0.375958 38.0684C0.457135 38.5982 0.662974 39.1011 0.976532 39.5358C1.29009 39.9705 1.7024 40.3246 2.17953 40.5687C2.65666 40.8129 3.18496 40.9403 3.72094 40.9404H30.2796C30.8155 40.9403 31.3437 40.8129 31.8208 40.5687C32.2978 40.3246 32.7101 39.9706 33.0237 39.536C33.3372 39.1014 33.5431 38.5986 33.6243 38.0688C33.7055 37.5391 33.6598 36.9977 33.4909 36.4891L30.9909 28.9871C30.8152 28.4745 30.6013 27.9757 30.3509 27.4951L30.5329 26.8031C30.6114 26.5047 30.6203 26.1924 30.559 25.89C30.4978 25.5877 30.368 25.3034 30.1797 25.0591C29.9913 24.8148 29.7494 24.617 29.4726 24.4808C29.1958 24.3447 28.8914 24.2738 28.5829 24.2738H27.8409C25.8768 22.5558 23.3564 21.6084 20.7469 21.6071H20.3336V21.1244C21.5358 20.4947 22.5558 19.5662 23.2956 18.4284C23.6776 17.5937 23.9206 16.7022 24.0149 15.7891C24.4901 15.6545 24.9085 15.3687 25.2066 14.975C25.5047 14.5812 25.6663 14.101 25.6669 13.6071V9.6071C25.6669 7.30855 24.7538 5.10415 23.1285 3.47884C21.5032 1.85352 19.2988 0.94043 17.0003 0.94043C14.7017 0.94043 12.4973 1.85352 10.872 3.47884C9.2467 5.10415 8.33361 7.30855 8.33361 9.6071V13.6071C8.33421 14.101 8.49582 14.5812 8.79393 14.975C9.09205 15.3687 9.51041 15.6545 9.98561 15.7891C10.0799 16.7023 10.3231 17.5939 10.7056 18.4284C11.4451 19.5662 12.4649 20.4947 13.6669 21.1244V21.6071H13.2536C10.6442 21.6084 8.12374 22.5558 6.15961 24.2738H5.41761C5.10907 24.2737 4.80463 24.3445 4.52773 24.4806C4.25083 24.6167 4.00886 24.8145 3.82043 25.0589C3.63201 25.3032 3.50215 25.5875 3.44087 25.8899C3.37959 26.1923 3.38851 26.5047 3.46694 26.8031L3.64961 27.4958C3.39873 27.9768 3.18435 28.476 3.00828 28.9891L0.509608 36.4884ZM6.33361 39.6071V38.2738H27.6669V39.6071H6.33361ZM32.2269 36.9118C32.3287 37.2199 32.3559 37.5479 32.3063 37.8686C32.2567 38.1893 32.1318 38.4937 31.9417 38.7568C31.7516 39.0199 31.5019 39.2341 31.213 39.3819C30.924 39.5297 30.6042 39.6069 30.2796 39.6071H29.0003V38.2738C28.999 37.9544 28.8832 37.6462 28.6738 37.405C28.4645 37.1639 28.1756 37.0059 27.8596 36.9598L29.7929 29.6104L32.2269 36.9118ZM25.5809 24.2738H19.6476C19.9507 23.8813 20.1614 23.4255 20.2643 22.9404H20.7449C22.4476 22.9411 24.1185 23.4018 25.5809 24.2738ZM17.0003 2.27376C18.9445 2.27606 20.8084 3.04941 22.1832 4.42418C23.558 5.79895 24.3313 7.66288 24.3336 9.6071V11.5404C24.2289 11.492 24.1206 11.4518 24.0096 11.4204C23.89 10.7963 23.5725 10.2273 23.1042 9.79765C22.6359 9.36803 22.0417 9.10065 21.4096 9.0351C20.0829 8.85841 18.821 8.35438 17.7376 7.56843C17.5213 7.41974 17.2651 7.34014 17.0026 7.34014C16.7402 7.34014 16.4839 7.41974 16.2676 7.56843C15.1949 8.36047 13.9376 8.86532 12.6149 9.0351C11.9774 9.09353 11.3764 9.35822 10.9029 9.78903C10.4293 10.2198 10.1092 10.7933 9.99094 11.4224C9.88062 11.4536 9.77295 11.4935 9.66894 11.5418V9.6071C9.67124 7.66323 10.4443 5.7996 11.8187 4.42489C13.193 3.05017 15.0564 2.27659 17.0003 2.27376ZM11.8949 17.8258C11.5343 16.9843 11.3216 16.0869 11.2663 15.1731C11.2576 15.0022 11.1835 14.8413 11.0594 14.7235C10.9353 14.6058 10.7707 14.5402 10.5996 14.5404C10.3521 14.5404 10.1147 14.4421 9.93964 14.2671C9.76461 14.092 9.66628 13.8546 9.66628 13.6071C9.66628 13.3596 9.76461 13.1222 9.93964 12.9471C10.1147 12.7721 10.3521 12.6738 10.5996 12.6738C10.7764 12.6738 10.946 12.6035 11.071 12.4785C11.196 12.3535 11.2663 12.1839 11.2663 12.0071C11.2648 11.6006 11.4139 11.208 11.6847 10.9048C11.9555 10.6016 12.3289 10.4094 12.7329 10.3651C14.2692 10.1735 15.73 9.58891 16.9743 8.66776C18.2454 9.58954 19.7293 10.1742 21.2876 10.3671C21.6891 10.4124 22.0595 10.6053 22.3267 10.9084C22.5939 11.2115 22.739 11.6031 22.7336 12.0071C22.7336 12.1839 22.8038 12.3535 22.9289 12.4785C23.0539 12.6035 23.2235 12.6738 23.4003 12.6738C23.6478 12.6738 23.8852 12.7721 24.0602 12.9471C24.2353 13.1222 24.3336 13.3596 24.3336 13.6071C24.3336 13.8546 24.2353 14.092 24.0602 14.2671C23.8852 14.4421 23.6478 14.5404 23.4003 14.5404C23.2292 14.5402 23.0646 14.6058 22.9405 14.7235C22.8164 14.8413 22.7423 15.0022 22.7336 15.1731C22.6783 16.0868 22.4658 16.9842 22.1056 17.8258C21.4569 19.1064 18.4503 20.9404 17.0003 20.9404C15.5503 20.9404 12.5436 19.1064 11.8949 17.8258ZM17.0003 22.2738C17.6913 22.2378 18.3696 22.0732 19.0003 21.7884V22.2738C19.0003 22.8042 18.7896 23.3129 18.4145 23.688C18.0394 24.063 17.5307 24.2738 17.0003 24.2738C16.4698 24.2738 15.9611 24.063 15.5861 23.688C15.211 23.3129 15.0003 22.8042 15.0003 22.2738V21.7884C15.6309 22.0732 16.3092 22.2378 17.0003 22.2738ZM13.2536 22.9404H13.7336C13.8365 23.4255 14.0472 23.8813 14.3503 24.2738H8.41694C9.87959 23.4017 11.5507 22.941 13.2536 22.9404ZM4.87628 25.8738C4.93993 25.7907 5.02189 25.7234 5.11578 25.6772C5.20966 25.6309 5.31295 25.6069 5.41761 25.6071H28.5829C28.6874 25.607 28.7905 25.631 28.8842 25.677C28.978 25.723 29.0599 25.79 29.1237 25.8727C29.1876 25.9553 29.2316 26.0516 29.2523 26.1539C29.2731 26.2563 29.2701 26.3621 29.2436 26.4631L26.4863 36.9404H7.51428L4.75694 26.4631C4.73022 26.3623 4.72708 26.2567 4.74778 26.1545C4.76848 26.0523 4.81244 25.9562 4.87628 25.8738ZM6.14294 36.9604C5.82672 37.0061 5.53742 37.1638 5.3277 37.4049C5.11798 37.6459 5.00178 37.9543 5.00028 38.2738V39.6071H3.72094C3.39632 39.6069 3.07636 39.5298 2.78736 39.3819C2.49836 39.2341 2.24856 39.0198 2.05848 38.7566C1.86841 38.4935 1.74347 38.189 1.69395 37.8681C1.64443 37.5473 1.67173 37.2193 1.77361 36.9111L4.20628 29.6104L6.14294 36.9604Z" fill="white"/>
<path d="M17.0003 34.9403C18.8383 34.9403 20.3337 33.7443 20.3337 32.2736C20.3337 30.8029 18.8383 29.6069 17.0003 29.6069C15.1623 29.6069 13.667 30.8029 13.667 32.2736C13.667 33.7443 15.1623 34.9403 17.0003 34.9403ZM17.0003 30.9403C18.0843 30.9403 19.0003 31.5509 19.0003 32.2736C19.0003 32.9963 18.0843 33.6069 17.0003 33.6069C15.9163 33.6069 15.0003 32.9963 15.0003 32.2736C15.0003 31.5509 15.9163 30.9403 17.0003 30.9403Z" fill="white"/>
</svg>
