<svg width="42" height="41" viewBox="0 0 42 41" fill="none" xmlns="http://www.w3.org/2000/svg">
<path d="M41.1914 24.7189L36.4959 13.1177C36.3519 12.7608 36.0827 12.4854 35.7258 12.3351C35.3689 12.1911 34.9745 12.1974 34.6239 12.3539L30.9676 13.9817C30.3478 14.2446 30.016 14.9208 30.1475 15.5656L29.177 16.1103C28.8515 16.2982 28.4571 16.367 28.0751 16.3169L21.3323 15.3215C20.1553 15.1524 18.947 15.5406 18.0955 16.3608L17.6009 16.8366H13.857C13.6879 16.8366 13.5189 16.774 13.3937 16.6613L13.0618 16.3795C13.2935 15.8098 13.137 15.1462 12.6361 14.7518L9.80624 12.5167C9.50572 12.2787 9.13008 12.1723 8.74817 12.2287C8.37253 12.2787 8.02818 12.4854 7.8028 12.7859L0.984827 22.0268C0.534052 22.6341 0.640485 23.4855 1.24152 23.9676L4.06512 26.1964C4.32181 26.3968 4.62233 26.4969 4.93537 26.4969C4.99798 26.4969 5.06684 26.4907 5.12945 26.4844C5.5051 26.4343 5.84318 26.234 6.06857 25.921L6.09361 25.8896L6.50056 26.1964C6.73847 26.3655 6.8762 26.6535 6.8762 26.954V28.6381L5.8244 29.9904C4.88528 31.2113 5.09815 32.9706 6.31274 33.9097C6.80734 34.2979 7.40837 34.5045 8.02818 34.5045C8.14088 34.5045 8.25983 34.4982 8.37253 34.4857C8.49774 34.4669 8.6167 34.4356 8.73565 34.4043C8.73565 34.4419 8.72939 34.4732 8.72939 34.5107C8.72939 35.3121 9.09251 36.0634 9.71859 36.5768C10.2069 36.9649 10.7954 37.159 11.3777 37.159C11.7408 37.159 12.1039 37.0776 12.442 36.9336V36.9649C12.5297 37.6223 12.874 38.2046 13.3749 38.574L13.4876 38.6616C13.9133 38.9746 14.4204 39.1437 14.9401 39.1437C15.059 39.1437 15.178 39.1374 15.3032 39.1186C15.5724 39.0811 15.8166 38.9872 16.0545 38.8682C16.186 39.5381 16.5679 40.1141 17.1376 40.4772L17.219 40.5336C17.6259 40.8028 18.0955 40.9405 18.5713 40.9405C18.7466 40.9405 18.9157 40.9217 19.091 40.8842C19.7483 40.7464 20.3055 40.3583 20.6749 39.7948L20.7814 39.632C21.2259 39.9701 21.758 40.1454 22.3278 40.1454C22.9977 40.1454 23.655 39.8699 24.1309 39.4004C24.6505 38.8807 24.926 38.1545 24.8759 37.422C24.8759 37.3781 24.8696 37.3281 24.8634 37.2842C25.5959 37.3907 26.366 37.159 26.9232 36.6018C27.424 36.101 27.6807 35.3997 27.6244 34.6923C27.6181 34.6046 27.6056 34.517 27.5868 34.4293C28.4195 34.4794 29.2396 34.1476 29.8031 33.4777C30.2852 32.908 30.5106 32.1567 30.4167 31.4179C30.4104 31.3616 30.4042 31.3115 30.3916 31.2551C31.1492 31.3365 31.9193 31.0736 32.4827 30.5226C33.1025 29.9028 33.3342 29.0263 33.1651 28.1999C33.1964 28.1936 33.2278 28.1999 33.2591 28.1936L35.275 27.9119C35.5317 28.1435 35.8761 28.275 36.2204 28.275C36.4145 28.275 36.6086 28.2374 36.7901 28.1498L40.4589 26.5282C41.1476 26.2277 41.4732 25.4264 41.1914 24.7189ZM4.97919 25.4201C4.88528 25.4326 4.79763 25.4076 4.72876 25.3512L1.91768 23.1287C1.77994 23.016 1.74864 22.8156 1.85507 22.6716L8.66678 13.4119C8.73565 13.318 8.82956 13.293 8.88591 13.2867H8.92974C8.98608 13.2867 9.06121 13.2993 9.13008 13.3556L11.9662 15.5907C12.1039 15.6971 12.129 15.8975 12.0288 16.0289L11.9412 16.1479C11.9349 16.1542 11.9286 16.1604 11.9224 16.1667L8.00314 21.4758C7.99688 21.4821 7.99688 21.4821 7.99062 21.4883L7.24559 22.5026L5.5364 24.8191C5.53014 24.8253 5.53014 24.8316 5.53014 24.8316L5.19206 25.2949C5.12945 25.3825 5.0418 25.4138 4.97919 25.4201ZM8.24731 33.4151C7.79654 33.4714 7.34576 33.3462 6.98264 33.0645C6.24387 32.4885 6.10613 31.4054 6.68838 30.6541L8.70435 28.0559C9.04243 27.6176 9.54955 27.3922 10.0629 27.3922C10.4261 27.3922 10.7954 27.5112 11.1085 27.7491C11.528 28.0809 11.7721 28.5755 11.7721 29.1077C11.7721 29.4896 11.6469 29.8527 11.409 30.1658L9.39303 32.764C9.10504 33.1271 8.69809 33.3587 8.24731 33.4151ZM10.401 35.7378C10.0254 35.4311 9.8125 34.9865 9.8125 34.5107C9.8125 34.1664 9.93146 33.8283 10.1631 33.534L12.1728 30.9421C12.4295 30.604 12.8051 30.3974 13.2246 30.3473C13.2872 30.3348 13.3498 30.3348 13.4062 30.3348C13.763 30.3348 14.1136 30.46 14.4392 30.723C15.1154 31.2676 15.2218 32.2631 14.6771 32.9393L12.6173 35.5062C12.0726 36.1698 11.0772 36.2763 10.401 35.7378ZM15.1404 38.048C14.7773 38.0981 14.4204 38.0105 14.1637 37.8227L14.0573 37.735C13.7568 37.5159 13.569 37.1903 13.5189 36.8209C13.4688 36.4453 13.5752 36.0759 13.8069 35.7817L15.3345 33.8909C15.5974 33.5591 15.9981 33.3838 16.3988 33.3838C16.6806 33.3838 16.9686 33.4714 17.2065 33.653C17.5508 33.9097 17.7511 34.3104 17.7511 34.7424C17.7511 35.0241 17.6698 35.2871 17.5132 35.5124C17.5007 35.525 17.4945 35.5437 17.4819 35.5625C17.4757 35.5688 17.4757 35.575 17.4694 35.575L17.4444 35.6126L16.0232 37.5159C15.8228 37.8101 15.5035 37.998 15.1404 38.048ZM20.4808 38.0919L19.7609 39.2126C19.5542 39.5319 19.2349 39.751 18.8593 39.8324C18.4899 39.9075 18.1143 39.8386 17.8075 39.6383L17.7261 39.5819C17.3943 39.3691 17.1752 39.0373 17.1063 38.6553C17.0374 38.2734 17.1188 37.8915 17.3505 37.5722C17.7261 37.0776 18.1518 36.5267 18.3209 36.3201C18.3522 36.2888 18.3835 36.2512 18.4148 36.2262C18.4211 36.2262 18.421 36.2199 18.421 36.2199C18.4273 36.2136 18.4398 36.2074 18.4461 36.2011C18.4774 36.1761 18.5024 36.151 18.5525 36.1197C19.0221 35.838 19.6106 35.838 20.0676 36.1323C20.4683 36.3889 20.7125 36.8397 20.7125 37.3281C20.7062 37.6035 20.6311 37.8665 20.4808 38.0919ZM31.7189 29.7588C31.2055 30.2659 30.3728 30.3285 29.7969 29.9091L26.1969 27.2482L24.7945 26.2089C24.5566 26.0336 24.2185 26.0837 24.037 26.3216C23.8617 26.5596 23.9117 26.8976 24.1496 27.0792L26.6039 28.8948L28.6824 30.435C29.0456 30.7042 29.2772 31.0986 29.3336 31.5494C29.3899 32.0002 29.2584 32.4384 28.9642 32.789C28.4258 33.4276 27.4741 33.5466 26.7917 33.0645L22.478 29.9779C22.2339 29.8026 21.8958 29.859 21.7267 30.1031C21.5514 30.3473 21.6078 30.6854 21.8519 30.8544L25.9778 33.8033C26.2971 34.0349 26.4974 34.3918 26.535 34.7799C26.5663 35.1744 26.4286 35.5563 26.1468 35.838C25.6773 36.3138 24.9197 36.3576 24.3876 35.957L20.3181 32.789C20.0802 32.6074 19.7421 32.645 19.5605 32.8829C19.3789 33.1146 19.4165 33.4589 19.6482 33.6405L23.2043 36.4203C23.5424 36.6832 23.7552 37.0776 23.7803 37.5034C23.8116 37.9354 23.655 38.3423 23.3483 38.6491C22.8474 39.1499 22.0022 39.2063 21.4387 38.7993C21.4387 38.7993 21.4074 38.7618 21.3636 38.718L21.3761 38.6992C21.6391 38.2985 21.7768 37.8289 21.7768 37.3343C21.7768 36.4766 21.3511 35.694 20.6374 35.2307C20.0927 34.8801 19.4416 34.7737 18.8217 34.8864C18.8217 34.8425 18.828 34.7987 18.828 34.7549C18.828 33.9723 18.4711 33.2586 17.8513 32.7953C17.3129 32.3946 16.668 32.2443 16.0545 32.332C16.1797 31.4304 15.8479 30.485 15.0653 29.8527C14.5081 29.3957 13.8006 29.1953 13.0869 29.2767C12.993 29.2892 12.9053 29.3143 12.8177 29.3331C12.8239 29.2579 12.8364 29.1891 12.8364 29.1139C12.8364 28.2437 12.4483 27.4423 11.7596 26.9039C10.7266 26.1025 9.30538 26.1463 8.31618 26.9227C8.31618 26.9164 8.31618 26.9164 8.32244 26.9102C8.30992 26.9227 8.2974 26.9352 8.28488 26.9415C8.22227 26.9915 8.15966 27.0541 8.10331 27.1105C8.05323 27.1606 7.99688 27.2044 7.94679 27.2608V26.9602C7.94679 26.3091 7.64002 25.7018 7.1329 25.3324L6.71969 25.0257L7.50854 23.9551L8.504 22.6027L8.81704 22.1833C8.83582 22.1645 8.84834 22.1457 8.86713 22.1269L12.442 17.2748L12.6737 17.4689C12.993 17.7507 13.4124 17.9072 13.8444 17.9072H16.4614L14.9588 19.3472C14.6082 19.6852 14.4142 20.1423 14.4142 20.6306C14.4142 21.3318 14.8023 21.9516 15.4347 22.2459C16.9748 22.9847 18.7967 22.9471 20.3055 22.152L20.9567 21.8139C21.5702 21.4883 22.3215 21.5635 22.8662 22.0017L29.2209 27.0917C29.5903 27.3797 29.9784 27.6176 30.3791 27.7929C30.5106 27.8493 30.6546 27.9056 30.7798 27.9494C30.8925 27.9933 31.0114 28.0308 31.1116 28.0559C31.2494 28.0997 31.3871 28.131 31.506 28.1498C31.6688 28.1811 31.8253 28.2061 31.9568 28.2124C32.0194 28.2187 32.0758 28.2187 32.1384 28.2249C32.1133 28.2312 32.0946 28.2374 32.0695 28.2437C32.2448 28.7633 32.1196 29.3581 31.7189 29.7588ZM33.1088 27.1293C32.9022 27.1543 32.6768 27.1668 32.4201 27.1606C32.3137 27.1606 32.2135 27.1543 32.0695 27.1355C31.9443 27.1293 31.8316 27.1042 31.6939 27.0792C31.6062 27.0667 31.5186 27.0479 31.4059 27.0103C31.3182 26.9915 31.2368 26.9602 31.1554 26.9289C31.0427 26.8914 30.9238 26.8413 30.8174 26.7975C30.5043 26.6597 30.1913 26.4719 29.897 26.2403L23.8679 21.4069L23.5424 21.1503C23.029 20.737 22.4029 20.5242 21.7706 20.5242C21.3198 20.5242 20.869 20.6306 20.4621 20.8497L19.8109 21.1878C18.6026 21.8264 17.1439 21.8577 15.9105 21.2629C15.6162 21.1252 15.5098 20.8435 15.5098 20.6243C15.5098 20.4929 15.5474 20.2925 15.7227 20.1235L18.8468 17.1308C19.4603 16.5423 20.3306 16.2606 21.1758 16.3858L27.9249 17.3813C28.5447 17.4689 29.1833 17.35 29.7092 17.0495L30.5356 16.5862L31.8629 19.8668L34.7178 26.9039L33.1088 27.1293ZM40.0207 25.5516L36.3456 27.1731C36.2016 27.2357 36.0263 27.1856 35.9199 27.0041L32.0132 17.3562L31.506 16.1166L31.2181 15.4029C31.1492 15.2401 31.2243 15.0523 31.3934 14.9771L35.0622 13.3493C35.1435 13.3118 35.2375 13.3118 35.3188 13.3431C35.4002 13.3744 35.4628 13.437 35.4942 13.5246L40.1897 25.1321C40.2523 25.2886 40.1772 25.4764 40.0207 25.5516Z" fill="white"/>
<path d="M21.0009 13.8188C24.5508 13.8188 27.437 10.9326 27.437 7.38276C27.437 3.8329 24.5508 0.94043 21.0009 0.94043C17.4511 0.94043 14.5586 3.82664 14.5586 7.38276C14.5649 10.9326 17.4511 13.8188 21.0009 13.8188ZM21.0009 2.02354C23.956 2.02354 26.3539 4.42768 26.3539 7.38276C26.3539 10.3378 23.9497 12.7357 21.0009 12.7357C18.0458 12.7357 15.6417 10.3316 15.6417 7.38276C15.6417 4.42768 18.0458 2.02354 21.0009 2.02354Z" fill="white"/>
<path d="M19.6859 9.34216C19.786 9.44233 19.9238 9.49868 20.0678 9.49868C20.2118 9.49868 20.3495 9.44233 20.4497 9.34216L23.5988 6.19299C23.8117 5.98013 23.8117 5.64205 23.5988 5.42918C23.386 5.21631 23.0479 5.21631 22.835 5.42918L20.0678 8.19644L19.1725 7.30115C18.9596 7.08828 18.6215 7.08828 18.4087 7.30115C18.1958 7.51401 18.1958 7.8521 18.4087 8.06496L19.6859 9.34216Z" fill="white"/>
</svg>
