<svg width="40" height="41" viewBox="0 0 40 41" fill="none" xmlns="http://www.w3.org/2000/svg">
<path d="M40 17.7146H38.5503L36.3896 18.8515C36.1464 18.7173 35.8934 18.6036 35.6206 18.5352L32.9026 17.8551V17.5461C34.105 16.7069 34.8387 15.3205 34.8387 13.8437V12.7159C34.8387 10.2096 32.8749 8.11218 30.4612 8.03909C30.3386 8.03594 30.218 8.04035 30.0967 8.04634L30.8014 6.39658L27.385 2.98113L25.3711 4.29193C24.6059 3.86098 23.7966 3.52549 22.9561 3.29016L22.4587 0.94043H17.5419L17.0445 3.2908C16.204 3.52612 15.3941 3.86161 14.6295 4.29256L12.6156 2.98176L9.20205 6.39532L9.89478 8.04634C9.86832 8.04508 9.84312 8.04035 9.81666 8.03972C8.58115 8.00381 7.41746 8.45461 6.53352 9.31272C5.64831 10.1702 5.16129 11.321 5.16129 12.5533V13.8437C5.16129 15.3205 5.89434 16.7062 7.09677 17.5455V17.8551L5.32384 18.2984L2.11032 16.4243H0V29.7928L6.34703 31.9082H7.58317L7.73752 31.3676L9.68309 32.5354C9.71491 33.5932 10.5633 34.4444 11.6201 34.4816C11.6573 35.5341 12.5031 36.3799 13.5556 36.4171C13.5928 37.4695 14.4386 38.3154 15.4911 38.3525C15.5295 39.4296 16.4116 40.2953 17.4975 40.2953C17.9007 40.2953 18.2961 40.1696 18.6284 39.9456L19.1998 40.4503C19.558 40.7656 20.0192 40.9404 20.498 40.9404H20.6174C21.691 40.9404 22.5646 40.0725 22.5781 39.0024C23.6401 38.9889 24.5001 38.1289 24.5136 37.0669C25.5762 37.0534 26.4368 36.1921 26.4491 35.1296C27.5214 35.1044 28.3871 34.2283 28.3871 33.15C28.3871 33.0851 28.3839 33.0211 28.3773 32.9566L40 27.1457V17.7146ZM33.5484 12.7159V13.8437C33.5484 14.9888 32.9297 16.0586 31.9336 16.6354L31.611 16.8219L31.6135 18.8635L34.8368 19.6687L27.7419 23.4029V21.665C27.7419 20.7977 27.3916 20.0036 26.818 19.4167L29.0323 18.8635V16.8203L28.7103 16.6341C27.7148 16.0586 27.0968 14.9888 27.0968 13.8437V12.5533C27.0968 11.6735 27.4446 10.8506 28.0768 10.2379C28.7084 9.62554 29.5464 9.29539 30.4224 9.32942C32.1459 9.38108 33.5484 10.9004 33.5484 12.7159ZM20.9728 22.8958L18.0522 21.9624C16.7213 21.5358 15.2807 21.4722 13.9182 21.774L13.5484 21.8559V21.665C13.5484 20.7754 14.1517 20.0029 15.0142 19.7868L18.7097 18.8635V16.8203L18.3877 16.6341C17.3923 16.0586 16.7742 14.9888 16.7742 13.8437V12.5533C16.7742 11.6735 17.122 10.8506 17.7542 10.2379C18.3858 9.62554 19.2291 9.29539 20.0999 9.32942C21.8233 9.38108 23.2258 10.9004 23.2258 12.7159V13.8437C23.2258 14.9888 22.6071 16.0586 21.611 16.6354L21.2884 16.8219L21.291 18.8635L24.9858 19.7868C25.8483 20.0029 26.4516 20.7754 26.4516 21.665V24.0824L26.2922 24.1662H25.8969L21.9304 23.0328C21.6179 22.9443 21.296 22.908 20.9728 22.8958ZM13.693 10.5964C14.9045 8.2489 17.3431 6.74688 20 6.74688C22.6317 6.74688 25.0599 8.22874 26.2806 10.5444C25.9734 11.1603 25.8064 11.8423 25.8064 12.5533V13.8437C25.8064 15.3205 26.5395 16.7062 27.7419 17.5455V17.8551L25.1613 18.5012L22.58 17.8551V17.5461C23.7824 16.7069 24.5161 15.3205 24.5161 13.8437V12.7159C24.5161 10.2096 22.5523 8.11218 20.1386 8.03909C18.9037 8.00287 17.7394 8.45398 16.8555 9.31209C15.9709 10.1702 15.4839 11.321 15.4839 12.5533V13.8437C15.4839 15.3205 16.2169 16.7062 17.4194 17.5455V17.8551L14.8387 18.5012L12.2574 17.8551V17.5461C13.4599 16.7069 14.1935 15.3205 14.1935 13.8437V12.7159C14.1935 11.9567 14.0108 11.2359 13.693 10.5964ZM10.7258 6.69459L12.787 4.63341L14.6012 5.81411L14.9483 5.60115C15.8181 5.06814 16.7581 4.67783 17.7419 4.44251L18.1389 4.34737L18.5878 2.23075H21.4129L21.8605 4.34674L22.2574 4.44156C23.2412 4.6772 24.1813 5.06751 25.051 5.60052L25.3982 5.81348L27.2124 4.63278L29.271 6.69207L28.5393 8.40546C28.0412 8.61968 27.5794 8.92115 27.1774 9.31083C27.151 9.33666 27.1283 9.36438 27.1024 9.39085C25.5825 6.97464 22.8953 5.45656 20 5.45656C17.0839 5.45656 14.3892 6.98882 12.873 9.42959C12.4672 9.00495 11.9846 8.66094 11.4497 8.42058L10.7258 6.69459ZM8.3871 18.8635V16.8203L8.06515 16.6341C7.06968 16.0586 6.45161 14.9888 6.45161 13.8437V12.5533C6.45161 11.6735 6.7994 10.8506 7.43164 10.2379C8.06326 9.62554 8.9031 9.29539 9.77728 9.32942C11.5008 9.38108 12.9032 10.9004 12.9032 12.7159V13.8437C12.9032 14.9888 12.2845 16.0586 11.2884 16.6354L10.9659 16.8219L10.9684 18.8635L13.182 19.4167C12.6084 20.0036 12.2581 20.7977 12.2581 21.665V22.1429L10.2457 22.5902L10.298 22.4075L10.3226 21.2151L6.92005 19.2302L8.3871 18.8635ZM1.29032 17.7146H1.76065L6.40058 20.421L4.05935 29.7856L1.29032 28.8622V17.7146ZM6.5562 30.6178L5.28635 30.1948L7.5608 21.0979L9.03226 21.9561V22.1403L6.61038 30.6178H6.5562ZM10.9677 32.4752C10.9677 32.2849 11.0446 32.0984 11.1794 31.9636L12.3135 30.8295C12.4483 30.6947 12.6348 30.6178 12.8251 30.6178C13.2239 30.6178 13.5484 30.9423 13.5484 31.3411C13.5484 31.5314 13.4715 31.7179 13.3367 31.8527L12.2026 32.9868C12.0678 33.1216 11.8813 33.1985 11.691 33.1985C11.2922 33.1985 10.9677 32.874 10.9677 32.4752ZM12.9032 34.4107C12.9032 34.2204 12.9801 34.0339 13.1149 33.8991L14.249 32.765C14.3838 32.6302 14.5703 32.5533 14.7606 32.5533C15.1594 32.5533 15.4839 32.8778 15.4839 33.2766C15.4839 33.4669 15.407 33.6534 15.2722 33.7882L14.1381 34.9223C14.0033 35.0571 13.8168 35.134 13.6265 35.134C13.2277 35.134 12.9032 34.8095 12.9032 34.4107ZM14.8387 36.3462C14.8387 36.1559 14.9156 35.9694 15.0504 35.8346L16.1845 34.7005C16.3193 34.5657 16.5058 34.4888 16.6961 34.4888C17.0949 34.4888 17.4194 34.8133 17.4194 35.2121C17.4194 35.4024 17.3425 35.5889 17.2077 35.7237L16.0736 36.8578C15.9388 36.9926 15.7523 37.0695 15.562 37.0695C15.1632 37.0695 14.8387 36.745 14.8387 36.3462ZM17.4975 39.0049C17.0987 39.0049 16.7742 38.6805 16.7742 38.2817C16.7742 38.0914 16.8511 37.9049 16.9859 37.7701L18.12 36.636C18.2548 36.5012 18.4413 36.4243 18.6316 36.4243C19.0304 36.4243 19.3548 36.7488 19.3548 37.1476C19.3548 37.3379 19.278 37.5243 19.1431 37.6592L18.0091 38.7933C17.8742 38.9281 17.6878 39.0049 17.4975 39.0049ZM20.6174 39.6501H20.498C20.3336 39.6501 20.1761 39.5903 20.0536 39.4816L19.5709 39.056L20.0554 38.5715C20.2284 38.3985 20.3626 38.1928 20.4618 37.972L21.0484 38.4603C21.2018 38.5882 21.2903 38.7766 21.2903 38.9772C21.2903 39.3483 20.9885 39.6501 20.6174 39.6501ZM26.4031 33.8437H26.2916C26.1297 33.8437 25.9715 33.7863 25.8477 33.6824L22.3491 30.7669L21.5225 31.7585L24.92 34.5893C25.0728 34.7172 25.1613 34.9056 25.1613 35.1063C25.1613 35.4773 24.8595 35.7791 24.4884 35.7791H24.3476C24.191 35.7791 24.0379 35.7237 23.9173 35.6229L20.413 32.703L19.5864 33.6946L22.9839 36.5257C23.1373 36.6527 23.2258 36.8411 23.2258 37.0417C23.2258 37.4128 22.924 37.7146 22.5529 37.7146C22.3053 37.7146 22.064 37.6267 21.8741 37.4689L20.4341 36.2687C20.1169 35.6204 19.4651 35.1683 18.7018 35.1412C18.6646 34.0887 17.8188 33.2429 16.7663 33.2057C16.7291 32.1533 15.8833 31.3074 14.8308 31.2703C14.793 30.1932 13.911 29.3275 12.8251 29.3275C12.2949 29.3275 11.7761 29.5424 11.4012 29.9172L10.2671 31.0513C10.1994 31.119 10.1433 31.1959 10.0863 31.2721L8.10452 30.0829L9.84186 24.0024L14.1973 23.0341C15.3399 22.7786 16.5445 22.834 17.6588 23.1906L18.6092 23.4946L15.3872 25.1056C14.651 25.4745 14.1935 26.2151 14.1935 27.0386V27.1662C14.1935 28.3579 15.1632 29.3275 16.3549 29.3275C16.7465 29.3275 17.1317 29.221 17.4666 29.0191L19.869 27.5785C20.3516 27.2893 20.9992 27.3527 21.416 27.7275L26.8671 32.6333C27.013 32.7657 27.0968 32.9534 27.0968 33.15C27.0968 33.5327 26.7858 33.8437 26.4031 33.8437ZM38.7097 26.3481L27.8405 31.7831C27.8053 31.7456 27.7684 31.71 27.7296 31.6754L22.2795 26.7696C21.8019 26.3386 21.1845 26.1017 20.5412 26.1017C20.0709 26.1017 19.6091 26.2296 19.2046 26.4722L16.8013 27.9134C16.6665 27.9947 16.5124 28.0372 16.3549 28.0372C15.8742 28.0372 15.4839 27.6469 15.4839 27.1662V27.0386C15.4839 26.7062 15.6685 26.4082 15.9652 26.2599L19.564 24.4605C20.1799 24.1521 20.911 24.0831 21.5748 24.274L25.6291 25.432L26.611 25.4566L38.7097 19.0887V26.3481Z" fill="white"/>
</svg>
