<svg width="208" height="51" viewBox="0 0 208 51" fill="none" xmlns="http://www.w3.org/2000/svg">
<path d="M62.9082 35.1211H77.5615V30.7075H68.1163V14.0828H62.9082V35.1211Z" fill="#0C1524"/>
<path d="M86.2457 32.1788C84.1566 32.1788 83.0679 30.3545 83.0679 27.618C83.0679 24.8816 84.1566 23.0278 86.2457 23.0278C88.3348 23.0278 89.453 24.8816 89.453 27.618C89.453 30.3545 88.3348 32.1788 86.2457 32.1788ZM86.2751 35.592C91.1301 35.592 94.308 32.1494 94.308 27.618C94.308 23.0867 91.1301 19.644 86.2751 19.644C81.4496 19.644 78.2129 23.0867 78.2129 27.618C78.2129 32.1494 81.4496 35.592 86.2751 35.592Z" fill="#0C1524"/>
<path d="M102.711 40.3292C104.947 40.3292 106.919 39.829 108.243 38.652C109.449 37.5633 110.244 35.9155 110.244 33.6499V20.0559H105.653V21.6742H105.595C104.712 20.409 103.358 19.6145 101.357 19.6145C97.6206 19.6145 95.0312 22.7335 95.0312 27.1471C95.0312 31.7667 98.1796 34.2972 101.563 34.2972C103.388 34.2972 104.535 33.5616 105.418 32.5612H105.536V34.0618C105.536 35.8861 104.682 36.9454 102.652 36.9454C101.063 36.9454 100.269 36.2686 100.004 35.4742H95.3549C95.8257 38.6226 98.5622 40.3292 102.711 40.3292ZM102.682 30.7369C100.887 30.7369 99.7097 29.2657 99.7097 27C99.7097 24.7049 100.887 23.2337 102.682 23.2337C104.682 23.2337 105.742 24.9403 105.742 26.9706C105.742 29.0891 104.771 30.7369 102.682 30.7369Z" fill="#0C1524"/>
<path d="M119.681 32.1788C117.592 32.1788 116.503 30.3545 116.503 27.618C116.503 24.8816 117.592 23.0278 119.681 23.0278C121.77 23.0278 122.889 24.8816 122.889 27.618C122.889 30.3545 121.77 32.1788 119.681 32.1788ZM119.711 35.592C124.566 35.592 127.744 32.1494 127.744 27.618C127.744 23.0867 124.566 19.644 119.711 19.644C114.885 19.644 111.648 23.0867 111.648 27.618C111.648 32.1494 114.885 35.592 119.711 35.592Z" fill="#0C1524"/>
<path d="M129.145 35.1211H133.941V20.0559H129.145V35.1211ZM129.145 17.9668H133.941V14.0828H129.145V17.9668Z" fill="#0C1524"/>
<path d="M136.021 40.0938H140.818V33.5616H140.876C141.818 34.8268 143.201 35.5919 145.143 35.5919C149.086 35.5919 151.705 32.4729 151.705 27.5885C151.705 23.0571 149.262 19.6145 145.261 19.6145C143.201 19.6145 141.73 20.5267 140.7 21.8802H140.612V20.0559H136.021V40.0938ZM143.907 31.8844C141.847 31.8844 140.671 30.2072 140.671 27.765C140.671 25.3228 141.73 23.4691 143.819 23.4691C145.879 23.4691 146.85 25.1757 146.85 27.765C146.85 30.3249 145.731 31.8844 143.907 31.8844Z" fill="#0C1524"/>
<path d="M159.514 35.5919C163.457 35.5919 166.37 33.8853 166.37 30.5898C166.37 26.7352 163.251 26.0584 160.603 25.6171C158.69 25.264 156.984 25.1168 156.984 24.0576C156.984 23.116 157.896 22.6746 159.073 22.6746C160.397 22.6746 161.309 23.0866 161.486 24.4401H165.899C165.664 21.4682 163.369 19.6145 159.102 19.6145C155.542 19.6145 152.599 21.2623 152.599 24.4401C152.599 27.971 155.395 28.6772 158.014 29.1185C160.014 29.4716 161.839 29.6188 161.839 30.9723C161.839 31.9433 160.927 32.4729 159.485 32.4729C157.896 32.4729 156.895 31.7373 156.719 30.2367H152.188C152.335 33.5616 155.1 35.5919 159.514 35.5919Z" fill="#0C1524"/>
<path d="M172.882 35.5625C174.971 35.5625 176.296 34.7386 177.384 33.2674H177.472V35.1211H182.063V20.0559H177.267V28.4712C177.267 30.2661 176.266 31.5019 174.618 31.5019C173.088 31.5019 172.353 30.5898 172.353 28.942V20.0559H167.586V29.9425C167.586 33.2968 169.41 35.5625 172.882 35.5625Z" fill="#0C1524"/>
<path d="M184.15 35.1211H188.947V26.6763C188.947 24.8814 189.829 23.6162 191.33 23.6162C192.772 23.6162 193.448 24.5578 193.448 26.1761V35.1211H198.245V26.6763C198.245 24.8814 199.098 23.6162 200.628 23.6162C202.07 23.6162 202.747 24.5578 202.747 26.1761V35.1211H207.543V25.3228C207.543 21.939 205.836 19.6145 202.423 19.6145C200.481 19.6145 198.863 20.4384 197.686 22.2627H197.627C196.862 20.6444 195.361 19.6145 193.39 19.6145C191.212 19.6145 189.77 20.6444 188.829 22.2038H188.741V20.0559H184.15V35.1211Z" fill="#0C1524"/>
<path fill-rule="evenodd" clip-rule="evenodd" d="M25.9141 0.313232C39.7212 0.313232 50.914 11.5061 50.914 25.3132C50.914 39.1204 39.7212 50.3132 25.9141 50.3132C12.1069 50.3132 0.914062 39.1204 0.914062 25.3132C0.914062 11.5061 12.1069 0.313232 25.9141 0.313232ZM49.9544 25.3132C49.9544 12.0361 39.1912 1.27273 25.9141 1.27273C24.843 1.27273 23.7885 1.34276 22.7545 1.4785C23.4226 1.42009 24.0986 1.39027 24.7817 1.39027C37.4687 1.39027 47.7536 11.6751 47.7536 24.3621C47.7536 37.049 37.4687 47.3339 24.7817 47.3339C12.7706 47.3339 2.91245 38.1157 1.8963 26.3679C2.44831 39.1557 12.9902 49.3536 25.9141 49.3536C39.1912 49.3536 49.9544 38.5904 49.9544 25.3132ZM46.794 24.3621C46.794 12.205 36.9389 2.34978 24.7817 2.34978C23.7947 2.34978 22.8227 2.41476 21.87 2.54066C22.4566 2.4913 23.0501 2.46612 23.6495 2.46612C35.2164 2.46612 44.5932 11.843 44.5932 23.4098C44.5932 34.9767 35.2164 44.3535 23.6495 44.3535C12.7127 44.3535 3.73392 35.9704 2.78821 25.2793C3.26904 37.011 12.932 46.3744 24.7817 46.3744C36.9389 46.3744 46.794 36.5191 46.794 24.3621ZM23.6495 3.42563C34.6864 3.42563 43.6337 12.3729 43.6337 23.4098C43.6337 34.4467 34.6864 43.3939 23.6495 43.3939C12.8683 43.3939 4.08106 34.8564 3.67973 24.1733C4.54621 33.8159 12.6493 41.3729 22.5174 41.3729C32.9634 41.3729 41.4317 32.9047 41.4317 22.4586C41.4317 12.0125 32.9634 3.54436 22.5174 3.54436C21.977 3.54436 21.4418 3.56703 20.9129 3.61145C21.8077 3.48893 22.7212 3.42563 23.6495 3.42563ZM40.4721 22.4586C40.4721 12.5425 32.4335 4.50387 22.5174 4.50387C21.6796 4.50387 20.8551 4.56125 20.0479 4.6723C20.4886 4.6378 20.9342 4.62023 21.3839 4.62023C30.7099 4.62023 38.2701 12.1804 38.2701 21.5064C38.2701 30.8323 30.7099 38.3925 21.3839 38.3925C12.6061 38.3925 5.39257 31.6949 4.57493 23.1313C4.92868 32.7358 12.8264 40.4134 22.5174 40.4134C32.4335 40.4134 40.4721 32.3749 40.4721 22.4586ZM21.3839 5.57974C30.1799 5.57974 37.3105 12.7104 37.3105 21.5064C37.3105 30.3024 30.1799 37.433 21.3839 37.433C12.7611 37.433 5.73885 30.5806 5.46552 22.0243C6.20374 29.54 12.542 35.4121 20.2516 35.4121C28.4576 35.4121 35.1097 28.7598 35.1097 20.554C35.1097 12.3482 28.4576 5.69607 20.2516 5.69607C19.8754 5.69607 19.5023 5.71006 19.133 5.73755C19.8684 5.63353 20.6198 5.57974 21.3839 5.57974ZM34.1502 20.554C34.1502 12.8781 27.9276 6.65558 20.2516 6.65558C19.551 6.65558 18.8624 6.70743 18.1896 6.8075C18.4967 6.78551 18.8068 6.77431 19.1195 6.77431C26.2045 6.77431 31.9481 12.5179 31.9481 19.6029C31.9481 26.688 26.2045 32.4315 19.1195 32.4315C12.4804 32.4315 7.01926 27.3883 6.35803 20.9238C6.55406 28.4288 12.6994 34.4526 20.2516 34.4526C27.9276 34.4526 34.1502 28.23 34.1502 20.554ZM19.1195 7.73383C25.6746 7.73383 30.9885 13.0478 30.9885 19.6029C30.9885 26.1581 25.6746 31.472 19.1195 31.472C12.6478 31.472 7.38582 26.2925 7.25293 19.8526C7.85077 25.2519 12.4286 29.4511 17.9873 29.4511C23.9522 29.4511 28.7877 24.6156 28.7877 18.6506C28.7877 12.6857 23.9522 7.85016 17.9873 7.85016C17.7592 7.85016 17.5327 7.85723 17.3081 7.87117C17.8987 7.78073 18.5036 7.73383 19.1195 7.73383ZM27.8283 18.6506C27.8283 13.2156 23.4223 8.80967 17.9873 8.80967C17.4415 8.80967 16.9061 8.8541 16.3844 8.93955C16.5399 8.93136 16.6963 8.92721 16.8539 8.92721C21.6986 8.92721 25.6261 12.8547 25.6261 17.6995C25.6261 22.5443 21.6986 26.4719 16.8539 26.4719C12.3741 26.4719 8.67858 23.1138 8.14713 18.7777C8.21517 24.1542 12.5947 28.4916 17.9873 28.4916C23.4223 28.4916 27.8283 24.0857 27.8283 18.6506ZM16.8539 9.88671C21.1687 9.88671 24.6666 13.3846 24.6666 17.6995C24.6666 22.0145 21.1687 25.5123 16.8539 25.5123C12.5389 25.5123 9.04102 22.0145 9.04102 17.6995C9.04102 17.6892 9.04105 17.6788 9.04108 17.6685C9.49032 20.9566 12.3101 23.4902 15.7216 23.4902C19.4457 23.4902 22.4646 20.4713 22.4646 16.7473C22.4646 13.0231 19.4457 10.0043 15.7216 10.0043C15.6374 10.0043 15.5536 10.0058 15.4701 10.0089C15.9192 9.92861 16.3816 9.88671 16.8539 9.88671ZM21.505 16.7473C21.505 13.5531 18.9158 10.9638 15.7216 10.9638C12.5275 10.9638 9.93818 13.5531 9.93818 16.7473C9.93818 19.9413 12.5275 22.5306 15.7216 22.5306C18.9158 22.5306 21.505 19.9413 21.505 16.7473Z" fill="#FF8159"/>
</svg>
