<svg width="27" height="37" viewBox="0 0 27 37" fill="none" xmlns="http://www.w3.org/2000/svg">
<path fill-rule="evenodd" clip-rule="evenodd" d="M1.08553 20.6436C1.20829 20.6436 1.3283 20.68 1.43037 20.7482C1.53244 20.8164 1.612 20.9133 1.65898 21.0267C1.70595 21.1401 1.71825 21.2649 1.6943 21.3853C1.67035 21.5057 1.61123 21.6163 1.52443 21.7031C1.43762 21.7899 1.32703 21.8491 1.20662 21.873C1.08622 21.897 0.961422 21.8847 0.848006 21.8377C0.734589 21.7907 0.637651 21.7112 0.569449 21.6091C0.501247 21.507 0.464844 21.387 0.464844 21.2642C0.464844 21.0996 0.530238 20.9418 0.64664 20.8253C0.763041 20.7089 0.920916 20.6436 1.08553 20.6436Z" fill="white"/>
<path d="M14.12 35.5403H20.3269V33.6782C20.3294 33.5557 20.3636 33.436 20.4262 33.3307L25.2924 26.0438V17.0314C25.03 17.12 24.7919 17.2688 24.5973 17.4658C24.2479 17.8147 24.0515 18.288 24.051 18.7817V23.3996C24.0525 23.4932 24.0319 23.5858 23.9909 23.6699C23.95 23.754 23.8897 23.8272 23.8152 23.8838L17.3104 30.3886C17.2527 30.4468 17.184 30.4929 17.1084 30.5245C17.0327 30.556 16.9516 30.5722 16.8697 30.5722C16.7877 30.5722 16.7066 30.556 16.631 30.5245C16.5553 30.4929 16.4867 30.4468 16.429 30.3886C16.3696 30.3329 16.3223 30.2656 16.2899 30.1908C16.2576 30.1161 16.2409 30.0355 16.2409 29.9541C16.2409 29.8727 16.2576 29.7921 16.2899 29.7174C16.3223 29.6427 16.3696 29.5753 16.429 29.5196L19.309 26.6396C19.4278 26.5212 19.4948 26.3605 19.4952 26.1927C19.4962 26.1113 19.4801 26.0306 19.4481 25.9558C19.416 25.881 19.3686 25.8137 19.309 25.7582C19.2533 25.6989 19.1859 25.6515 19.1112 25.6192C19.0365 25.5868 18.9559 25.5702 18.8745 25.5702C18.7931 25.5702 18.7125 25.5868 18.6378 25.6192C18.563 25.6515 18.4957 25.6989 18.44 25.7582L14.48 29.7058C14.365 29.8218 14.2739 29.9594 14.2122 30.1106C14.1504 30.2619 14.1191 30.4238 14.12 30.5872V35.5403ZM6.44829 25.3858C6.53799 25.1967 6.65979 25.0245 6.80829 24.8769C7.15901 24.5312 7.63169 24.3374 8.12415 24.3374C8.61661 24.3374 9.08929 24.5312 9.44001 24.8769L13.3876 28.8245L13.4993 28.9362L13.611 28.8245L17.5586 24.8769C17.9094 24.5312 18.382 24.3374 18.8745 24.3374C19.367 24.3374 19.8396 24.5312 20.1904 24.8769C20.3389 25.0245 20.4607 25.1967 20.5504 25.3858L22.8097 23.1389V18.7817C22.808 18.3737 22.8872 17.9694 23.0426 17.5921C23.1979 17.2148 23.4265 16.8721 23.715 16.5836C24.0035 16.2951 24.3463 16.0665 24.7235 15.9111C25.1008 15.7558 25.5051 15.6766 25.9131 15.6782C26.0777 15.6782 26.2356 15.7436 26.352 15.86C26.4684 15.9764 26.5338 16.1343 26.5338 16.2989V26.23C26.5332 26.3527 26.4988 26.473 26.4345 26.5776L21.5683 33.8645V35.5403H22.189C22.3536 35.5403 22.5115 35.6057 22.6279 35.7221C22.7443 35.8385 22.8097 35.9964 22.8097 36.161C22.8097 36.3256 22.7443 36.4835 22.6279 36.5999C22.5115 36.7163 22.3536 36.7817 22.189 36.7817H4.80967C4.64505 36.7817 4.48718 36.7163 4.37078 36.5999C4.25437 36.4835 4.18898 36.3256 4.18898 36.161C4.18898 35.9964 4.25437 35.8385 4.37078 35.7221C4.48718 35.6057 4.64505 35.5403 4.80967 35.5403H5.43036V33.8645L0.564154 26.5776C0.499845 26.473 0.465493 26.3527 0.464844 26.23V23.7472C0.464844 23.5826 0.530238 23.4247 0.64664 23.3083C0.763041 23.1919 0.920916 23.1265 1.08553 23.1265C1.25015 23.1265 1.40803 23.1919 1.52443 23.3083C1.64083 23.4247 1.70622 23.5826 1.70622 23.7472V26.0438L6.57243 33.3307C6.63507 33.436 6.66929 33.5557 6.67174 33.6782V35.5403H12.8786V30.5748C12.8796 30.4114 12.8483 30.2495 12.7865 30.0982C12.7247 29.947 12.6337 29.8094 12.5186 29.6934L8.53381 25.7582C8.47808 25.6989 8.41078 25.6515 8.33605 25.6192C8.26132 25.5868 8.18075 25.5702 8.09932 25.5702C8.01789 25.5702 7.93733 25.5868 7.8626 25.6192C7.78787 25.6515 7.72057 25.6989 7.66484 25.7582C7.60521 25.8137 7.55784 25.881 7.52577 25.9558C7.4937 26.0306 7.47764 26.1113 7.47863 26.1927C7.47868 26.3485 7.53614 26.4987 7.64001 26.6148L10.5448 29.5196C10.6042 29.5753 10.6515 29.6427 10.6839 29.7174C10.7162 29.7921 10.7329 29.8727 10.7329 29.9541C10.7329 30.0355 10.7162 30.1161 10.6839 30.1908C10.6515 30.2656 10.6042 30.3329 10.5448 30.3886C10.4496 30.4783 10.3276 30.5342 10.1974 30.5477C10.0673 30.5611 9.93639 30.5314 9.82484 30.4631C9.77185 30.4417 9.72495 30.4076 9.68829 30.3638L3.15864 23.8714C3.094 23.8106 3.04206 23.7376 3.00583 23.6566C2.96961 23.5757 2.94982 23.4883 2.9476 23.3996V18.7817C2.94717 18.288 2.7507 17.8147 2.40139 17.4658C2.20674 17.2688 1.96867 17.12 1.70622 17.0314V18.7817C1.70622 18.9463 1.64083 19.1042 1.52443 19.2206C1.40803 19.337 1.25015 19.4024 1.08553 19.4024C0.920916 19.4024 0.763041 19.337 0.64664 19.2206C0.530238 19.1042 0.464844 18.9463 0.464844 18.7817V16.2989C0.464844 16.1343 0.530238 15.9764 0.64664 15.86C0.763041 15.7436 0.920916 15.6782 1.08553 15.6782C1.49354 15.6766 1.89784 15.7558 2.27511 15.9111C2.65238 16.0665 2.99515 16.2951 3.28366 16.5836C3.57217 16.8721 3.80071 17.2148 3.95609 17.5921C4.11147 17.9694 4.19062 18.3737 4.18898 18.7817V23.1389L6.44829 25.3858Z" fill="white"/>
<path d="M4.81048 13.1955H2.32772C2.1631 13.1955 2.00523 13.1301 1.88883 13.0137C1.77243 12.8973 1.70703 12.7394 1.70703 12.5748C1.70703 12.4102 1.77243 12.2523 1.88883 12.1359C2.00523 12.0195 2.1631 11.9541 2.32772 11.9541H4.81048C4.9751 11.9541 5.13297 12.0195 5.24937 12.1359C5.36577 12.2523 5.43117 12.4102 5.43117 12.5748C5.43117 12.7394 5.36577 12.8973 5.24937 13.0137C5.13297 13.1301 4.9751 13.1955 4.81048 13.1955Z" fill="white"/>
<path d="M7.35501 7.0504C7.2736 7.0514 7.19289 7.03534 7.11806 7.00327C7.04324 6.9712 6.97595 6.92383 6.92052 6.8642L5.15777 5.12627C5.09908 5.06758 5.05253 4.99791 5.02077 4.92123C4.989 4.84455 4.97266 4.76237 4.97266 4.67937C4.97266 4.59637 4.989 4.51419 5.02077 4.43751C5.05253 4.36083 5.09908 4.29116 5.15777 4.23247C5.21645 4.17379 5.28613 4.12723 5.3628 4.09547C5.43948 4.06371 5.52167 4.04736 5.60466 4.04736C5.68766 4.04736 5.76984 4.06371 5.84652 4.09547C5.9232 4.12723 5.99287 4.17379 6.05156 4.23247L7.78949 5.99523C7.84887 6.05096 7.89619 6.11826 7.92854 6.19299C7.96089 6.26772 7.97758 6.34828 7.97758 6.42972C7.97758 6.51115 7.96089 6.59171 7.92854 6.66644C7.89619 6.74117 7.84887 6.80847 7.78949 6.8642C7.73407 6.92383 7.66678 6.9712 7.59195 7.00327C7.51712 7.03534 7.43641 7.0514 7.35501 7.0504Z" fill="white"/>
<path d="M13.4996 4.50588C13.335 4.50588 13.1771 4.44048 13.0607 4.32408C12.9443 4.20768 12.8789 4.0498 12.8789 3.88519V1.40243C12.8789 1.23781 12.9443 1.07994 13.0607 0.963534C13.1771 0.847132 13.335 0.781738 13.4996 0.781738C13.6642 0.781738 13.8221 0.847132 13.9385 0.963534C14.0549 1.07994 14.1203 1.23781 14.1203 1.40243V3.88519C14.1203 4.0498 14.0549 4.20768 13.9385 4.32408C13.8221 4.44048 13.6642 4.50588 13.4996 4.50588Z" fill="white"/>
<path d="M19.7066 7.05076C19.6252 7.05176 19.5444 7.0357 19.4696 7.00363C19.3948 6.97156 19.3275 6.92419 19.2721 6.86456C19.2127 6.80883 19.1654 6.74153 19.133 6.6668C19.1007 6.59207 19.084 6.5115 19.084 6.43007C19.084 6.34864 19.1007 6.26808 19.133 6.19335C19.1654 6.11862 19.2127 6.05132 19.2721 5.99559L20.9479 4.23283C21.0058 4.17496 21.0745 4.12905 21.1501 4.09773C21.2257 4.06641 21.3068 4.05029 21.3886 4.05029C21.4705 4.05029 21.5515 4.06641 21.6271 4.09773C21.7027 4.12905 21.7714 4.17496 21.8293 4.23283C21.8872 4.29071 21.9331 4.35941 21.9644 4.43502C21.9957 4.51064 22.0119 4.59168 22.0119 4.67352C22.0119 4.75537 21.9957 4.83641 21.9644 4.91202C21.9331 4.98764 21.8872 5.05634 21.8293 5.11421L20.079 6.86456C20.0235 6.92419 19.9563 6.97156 19.8814 7.00363C19.8066 7.0357 19.7259 7.05176 19.6445 7.05076H19.7066Z" fill="white"/>
<path d="M24.6718 13.1955H22.189C22.0244 13.1955 21.8666 13.1301 21.7502 13.0137C21.6338 12.8973 21.5684 12.7394 21.5684 12.5748C21.5684 12.4102 21.6338 12.2523 21.7502 12.1359C21.8666 12.0195 22.0244 11.9541 22.189 11.9541H24.6718C24.8364 11.9541 24.9943 12.0195 25.1107 12.1359C25.2271 12.2523 25.2925 12.4102 25.2925 12.5748C25.2925 12.7394 25.2271 12.8973 25.1107 13.0137C24.9943 13.1301 24.8364 13.1955 24.6718 13.1955Z" fill="white"/>
<path d="M13.4997 23.1265C13.4257 23.1384 13.3502 23.1384 13.2762 23.1265L12.7052 22.8907C10.9149 22.1803 9.38097 20.9457 8.30441 19.3486C7.22785 17.7515 6.65889 15.8664 6.6721 13.9403V10.0921C6.67103 9.96913 6.70723 9.84877 6.77593 9.74684C6.84463 9.6449 6.9426 9.56617 7.05693 9.52102L13.2638 7.03826C13.4149 6.97618 13.5844 6.97618 13.7355 7.03826L19.9424 9.52102C20.0568 9.56617 20.1547 9.6449 20.2234 9.74684C20.2921 9.84877 20.3283 9.96913 20.3273 10.0921V13.9403C20.333 15.86 19.7605 17.737 18.6844 19.3267C17.6084 20.9165 16.0785 22.1454 14.2942 22.8534L13.7231 23.0893C13.6491 23.1011 13.5737 23.1011 13.4997 23.0893V23.1265ZM7.91348 10.5141V13.9403C7.90722 15.6131 8.40477 17.2491 9.34135 18.6351C10.2779 20.0212 11.6101 21.0931 13.1645 21.7114L13.4997 21.8355L13.8224 21.7114C15.3791 21.0951 16.714 20.024 17.6529 18.6378C18.5918 17.2515 19.0912 15.6146 19.0859 13.9403V10.5141L13.4997 8.27964L7.91348 10.5141Z" fill="white"/>
<path d="M12.2582 16.9197C12.1768 16.9207 12.0961 16.9047 12.0212 16.8726C11.9464 16.8405 11.8791 16.7932 11.8237 16.7335L10.5823 15.4921C10.4671 15.3769 10.4023 15.2206 10.4023 15.0577C10.4023 14.8947 10.4671 14.7384 10.5823 14.6232C10.6975 14.5079 10.8538 14.4432 11.0168 14.4432C11.1798 14.4432 11.336 14.5079 11.4513 14.6232L12.2582 15.4177L15.5478 12.1404C15.6049 12.0834 15.6726 12.0381 15.7472 12.0072C15.8217 11.9763 15.9016 11.9604 15.9823 11.9604C16.063 11.9604 16.1429 11.9763 16.2175 12.0072C16.292 12.0381 16.3597 12.0834 16.4168 12.1404C16.4739 12.1975 16.5191 12.2652 16.55 12.3398C16.5809 12.4143 16.5968 12.4942 16.5968 12.5749C16.5968 12.6556 16.5809 12.7355 16.55 12.81C16.5191 12.8846 16.4739 12.9523 16.4168 13.0094L12.6927 16.7335C12.6372 16.7932 12.5699 16.8405 12.4951 16.8726C12.4203 16.9047 12.3396 16.9207 12.2582 16.9197Z" fill="white"/>
</svg>
