<svg width="37" height="37" viewBox="0 0 37 37" fill="none" xmlns="http://www.w3.org/2000/svg">
<path d="M18.2568 8.2262C17.4781 8.2262 16.7168 7.99527 16.0693 7.56261C15.4218 7.12995 14.9171 6.515 14.6191 5.79551C14.321 5.07603 14.2431 4.28433 14.395 3.52053C14.5469 2.75673 14.9219 2.05513 15.4726 1.50446C16.0233 0.953796 16.7249 0.578785 17.4887 0.426856C18.2525 0.274927 19.0442 0.352902 19.7637 0.650922C20.4831 0.948942 21.0981 1.45362 21.5307 2.10114C21.9634 2.74866 22.1943 3.50993 22.1943 4.2887C22.193 5.33257 21.7777 6.33329 21.0396 7.07141C20.3014 7.80954 19.3007 8.22482 18.2568 8.2262ZM18.2568 1.73581C17.7519 1.73581 17.2584 1.88554 16.8385 2.16605C16.4187 2.44657 16.0915 2.84527 15.8983 3.31175C15.7051 3.77823 15.6545 4.29153 15.753 4.78674C15.8515 5.28195 16.0946 5.73683 16.4517 6.09386C16.8087 6.45089 17.2636 6.69402 17.7588 6.79253C18.254 6.89103 18.7673 6.84048 19.2338 6.64725C19.7003 6.45403 20.099 6.12682 20.3795 5.707C20.66 5.28718 20.8097 4.79361 20.8097 4.2887C20.8088 3.61191 20.5395 2.96311 20.061 2.48455C19.5824 2.00599 18.9336 1.73673 18.2568 1.73581Z" fill="white"/>
<path d="M25.4052 19.8249H11.1113C10.9276 19.8249 10.7515 19.752 10.6217 19.6221C10.4919 19.4923 10.4189 19.3162 10.4189 19.1326V15.1384C10.4189 12.0291 12.9489 9.49915 16.0582 9.49915H20.4574C23.5667 9.49915 26.0967 12.0291 26.0967 15.1384V19.1326C26.0967 19.3161 26.0239 19.492 25.8942 19.6218C25.7646 19.7516 25.5887 19.8247 25.4052 19.8249ZM11.8036 18.4403H24.7129V15.1384C24.7117 14.0103 24.2629 12.9287 23.4651 12.131C22.6673 11.3334 21.5856 10.8848 20.4574 10.8838H16.0569C14.9291 10.8854 13.848 11.3342 13.0507 12.1318C12.2533 12.9294 11.8048 14.0106 11.8036 15.1384V18.4403Z" fill="white"/>
<path d="M22.7509 19.825C22.5673 19.825 22.3912 19.752 22.2614 19.6222C22.1315 19.4924 22.0586 19.3163 22.0586 19.1327V16.0973C22.0586 15.9137 22.1315 15.7376 22.2614 15.6078C22.3912 15.478 22.5673 15.405 22.7509 15.405C22.9345 15.405 23.1106 15.478 23.2404 15.6078C23.3703 15.7376 23.4432 15.9137 23.4432 16.0973V19.1327C23.4432 19.3163 23.3703 19.4924 23.2404 19.6222C23.1106 19.752 22.9345 19.825 22.7509 19.825Z" fill="white"/>
<path d="M13.7655 19.825C13.5819 19.825 13.4058 19.752 13.276 19.6222C13.1462 19.4924 13.0732 19.3163 13.0732 19.1327V16.0973C13.0732 15.9137 13.1462 15.7376 13.276 15.6078C13.4058 15.478 13.5819 15.405 13.7655 15.405C13.9492 15.405 14.1253 15.478 14.2551 15.6078C14.3849 15.7376 14.4579 15.9137 14.4579 16.0973V19.1327C14.4579 19.3163 14.3849 19.4924 14.2551 19.6222C14.1253 19.752 13.9492 19.825 13.7655 19.825Z" fill="white"/>
<path d="M22.956 30.5331H15.1892C15.0055 30.5331 14.8295 30.4602 14.6996 30.3304C14.5698 30.2005 14.4968 30.0244 14.4968 29.8408C14.4968 29.6572 14.5698 29.4811 14.6996 29.3513C14.8295 29.2215 15.0055 29.1485 15.1892 29.1485H22.956C23.3504 29.1418 23.7264 28.9804 24.003 28.6992C24.2795 28.4179 24.4345 28.0392 24.4345 27.6447C24.4345 27.2502 24.2795 26.8715 24.003 26.5902C23.7264 26.3089 23.3504 26.1476 22.956 26.1409H15.1701C15.1048 26.1409 13.5488 26.0868 11.606 25.2452L11.484 25.192C9.67709 24.3993 8.34959 23.9947 7.53872 23.9895C6.23113 23.9813 5.11046 24.2491 4.21132 24.7822C4.13316 24.8298 4.04634 24.8614 3.9559 24.8752C3.86545 24.889 3.77317 24.8847 3.68438 24.8626C3.5956 24.8405 3.51207 24.8011 3.43863 24.7465C3.36518 24.6919 3.30328 24.6234 3.25651 24.5447C3.20973 24.4661 3.179 24.379 3.1661 24.2884C3.1532 24.1978 3.15838 24.1056 3.18134 24.017C3.2043 23.9285 3.24459 23.8453 3.29987 23.7724C3.35516 23.6995 3.42435 23.6383 3.50344 23.5923C4.62238 22.9268 5.9819 22.5932 7.54781 22.6049C8.89911 22.614 10.7588 23.3621 12.04 23.9238L12.1568 23.9748C13.7747 24.6758 15.0918 24.7511 15.2026 24.7563H22.956C23.7159 24.7656 24.4416 25.074 24.9757 25.6146C25.5098 26.1553 25.8093 26.8847 25.8093 27.6447C25.8093 28.4047 25.5098 29.1341 24.9757 29.6747C24.4416 30.2154 23.7159 30.5238 22.956 30.5331Z" fill="white"/>
<path d="M18.1922 36.3513C17.8637 36.3513 17.5334 36.3358 17.2014 36.305C16.0486 36.1937 14.9213 35.8969 13.8631 35.4262L10.9892 34.1593C10.1143 33.7723 9.21699 33.438 8.30219 33.158C7.65055 32.9598 7.30699 32.8889 7.13392 32.8642C5.7307 32.6643 4.65502 32.6691 4.10507 32.8781C4.00012 32.9179 3.88706 32.9316 3.77562 32.9181C3.66418 32.9045 3.55771 32.864 3.46539 32.8002C3.37308 32.7363 3.29768 32.6509 3.24569 32.5514C3.19371 32.4519 3.1667 32.3413 3.16699 32.229V24.1459C3.16699 23.9623 3.23993 23.7862 3.36977 23.6564C3.4996 23.5265 3.67569 23.4536 3.8593 23.4536C4.04291 23.4536 4.219 23.5265 4.34884 23.6564C4.47867 23.7862 4.55161 23.9623 4.55161 24.1459V31.3753C5.28026 31.2948 6.20925 31.3346 7.32949 31.4943C7.65704 31.5406 8.10834 31.6518 8.70589 31.834C9.67381 32.1299 10.6231 32.4836 11.5487 32.8932L14.4231 34.1597C15.3448 34.5707 16.327 34.8299 17.3316 34.9273C18.0839 34.9992 18.8422 34.9757 19.5885 34.8572C20.537 34.704 21.9333 34.2324 22.4586 34.055L22.5481 34.0247C27.7976 32.2649 32.552 27.5343 34.3524 25.5872C34.5656 25.3605 34.7195 25.0846 34.8005 24.7841C34.8815 24.4836 34.8871 24.1678 34.8167 23.8646C34.7224 23.4713 34.4818 22.9395 33.4892 22.8586C33.039 22.824 32.5913 22.9509 32.2262 23.2165L25.5554 28.0319C25.4818 28.087 25.398 28.1269 25.3088 28.1492C25.2196 28.1716 25.1269 28.1759 25.0361 28.1621C24.9452 28.1482 24.858 28.1164 24.7796 28.0685C24.7011 28.0205 24.633 27.9575 24.5792 27.883C24.5254 27.8084 24.487 27.7239 24.4661 27.6344C24.4453 27.5449 24.4426 27.4521 24.458 27.3615C24.4734 27.2709 24.5067 27.1842 24.556 27.1066C24.6053 27.029 24.6695 26.962 24.7449 26.9095L31.4162 22.0941C32.0477 21.6348 32.8223 21.4157 33.6008 21.4762C34.9591 21.5869 35.8686 22.3195 36.1615 23.538C36.2854 24.0624 36.2778 24.6094 36.1395 25.1302C36.0011 25.6511 35.7362 26.1297 35.3684 26.5235C33.4957 28.5533 28.5405 33.4747 22.9873 35.3366L22.9008 35.366C22.3452 35.5534 20.8697 36.0519 19.8079 36.2215C19.2737 36.3077 18.7334 36.3511 18.1922 36.3513Z" fill="white"/>
<path d="M2.4087 35.0562C1.83643 35.0556 1.28775 34.828 0.883054 34.4234C0.478356 34.0188 0.250687 33.4702 0.25 32.8979V23.1455C0.25 22.573 0.477388 22.0241 0.882142 21.6193C1.2869 21.2146 1.83586 20.9872 2.40827 20.9872C2.98068 20.9872 3.52964 21.2146 3.9344 21.6193C4.33915 22.0241 4.56654 22.573 4.56654 23.1455V32.8979C4.56596 33.4701 4.33845 34.0186 3.93392 34.4232C3.52938 34.8279 2.98086 35.0555 2.4087 35.0562ZM2.4087 22.3722C2.20359 22.3723 2.00689 22.4538 1.86177 22.5988C1.71665 22.7437 1.63496 22.9403 1.63462 23.1455V32.8979C1.63462 33.1031 1.71612 33.2999 1.86121 33.445C2.0063 33.59 2.20308 33.6716 2.40827 33.6716C2.61345 33.6716 2.81024 33.59 2.95532 33.445C3.10041 33.2999 3.18192 33.1031 3.18192 32.8979V23.1455C3.18169 22.9405 3.10016 22.7439 2.9552 22.599C2.81024 22.454 2.6137 22.3725 2.4087 22.3722Z" fill="white"/>
</svg>
