<svg width="26" height="26" viewBox="0 0 26 26" fill="none" xmlns="http://www.w3.org/2000/svg">
<path d="M5.12082 17.2555C7.59598 20.2143 10.5755 22.5438 13.9763 24.1922C15.2711 24.8058 17.0026 25.5338 18.9318 25.6586C19.0514 25.6638 19.1658 25.669 19.2854 25.669C20.5802 25.669 21.6201 25.2218 22.4677 24.3014C22.4729 24.2962 22.4833 24.2858 22.4885 24.2754C22.7901 23.9114 23.1333 23.5838 23.4921 23.2354C23.7365 23.0014 23.9861 22.757 24.2253 22.5074C25.3329 21.3531 25.3329 19.8867 24.2149 18.7687L21.0897 15.6436C20.5594 15.0924 19.925 14.8012 19.2594 14.8012C18.5938 14.8012 17.9542 15.0924 17.4082 15.6384L15.5466 17.4999C15.375 17.4011 15.1983 17.3127 15.0319 17.2295C14.8239 17.1255 14.6315 17.0267 14.4599 16.9175C12.7647 15.8412 11.2255 14.4372 9.75395 12.6328C9.01036 11.6916 8.51117 10.9012 8.16277 10.0953C8.65156 9.65326 9.10916 9.19047 9.55115 8.73808C9.70715 8.57688 9.86834 8.41568 10.0295 8.25449C10.5911 7.6929 10.8927 7.04291 10.8927 6.38252C10.8927 5.72213 10.5963 5.07214 10.0295 4.51055L8.47997 2.96098C8.29797 2.77898 8.12637 2.60218 7.94958 2.42019C7.60638 2.06659 7.24759 1.7026 6.89399 1.375C6.3584 0.849814 5.72921 0.574219 5.06363 0.574219C4.40324 0.574219 3.76885 0.849814 3.21246 1.3802L1.26769 3.32497C0.560503 4.03216 0.16011 4.89014 0.0769115 5.88333C-0.0218868 7.12611 0.206909 8.44688 0.799699 10.0433C1.70968 12.5132 3.08246 14.8064 5.12082 17.2555ZM1.34569 5.99253C1.40809 5.30094 1.67328 4.72375 2.17248 4.22456L4.10684 2.29019C4.40844 1.99899 4.74123 1.8482 5.06363 1.8482C5.38082 1.8482 5.70321 1.99899 5.99961 2.30059C6.348 2.62298 6.6756 2.96098 7.02919 3.31977C7.20599 3.50177 7.38799 3.68377 7.56998 3.87096L9.11956 5.42054C9.44195 5.74293 9.60835 6.07052 9.60835 6.39292C9.60835 6.71531 9.44195 7.04291 9.11956 7.3653C8.95836 7.5265 8.79716 7.6929 8.63596 7.85409C8.15237 8.34289 7.69998 8.80568 7.20079 9.24767C7.19039 9.25807 7.18519 9.26327 7.17479 9.27367C6.7432 9.70526 6.8108 10.1161 6.91479 10.428C6.91999 10.4436 6.92519 10.454 6.93039 10.4696C7.33079 11.4316 7.88718 12.3468 8.75556 13.4388C10.3155 15.3628 11.9587 16.8551 13.7683 18.0043C13.9919 18.1499 14.2311 18.2643 14.4547 18.3787C14.6627 18.4827 14.8551 18.5815 15.0267 18.6907C15.0475 18.7011 15.0631 18.7115 15.0839 18.7219C15.2554 18.8103 15.4218 18.8519 15.5882 18.8519C16.0042 18.8519 16.2746 18.5867 16.363 18.4983L18.3078 16.5535C18.6094 16.2519 18.937 16.0908 19.2594 16.0908C19.6546 16.0908 19.977 16.3351 20.1798 16.5535L23.3153 19.6839C23.9393 20.3079 23.9341 20.9839 23.2997 21.6443C23.0813 21.8783 22.8525 22.1018 22.6081 22.3358C22.2441 22.6894 21.8645 23.0534 21.5213 23.4642C20.9234 24.109 20.211 24.4106 19.2906 24.4106C19.2022 24.4106 19.1086 24.4054 19.0202 24.4002C17.3146 24.291 15.7286 23.6254 14.5379 23.0586C11.3035 21.4935 8.46437 19.2731 6.10881 16.4547C4.16924 14.12 2.86406 11.9464 2.00088 9.61686C1.46529 8.18689 1.26249 7.03771 1.34569 5.99253Z" fill="white"/>
</svg>
