<svg width="40" height="41" viewBox="0 0 40 41" fill="none" xmlns="http://www.w3.org/2000/svg">
<path d="M39.3548 37.7146H38.7097V16.4243C38.7097 16.2532 38.6417 16.0891 38.5207 15.9681C38.3997 15.8471 38.2356 15.7791 38.0645 15.7791H30.9677V1.58559C30.9677 1.41448 30.8998 1.25038 30.7788 1.12939C30.6578 1.0084 30.4937 0.94043 30.3226 0.94043H9.67742C9.50631 0.94043 9.34221 1.0084 9.22122 1.12939C9.10023 1.25038 9.03226 1.41448 9.03226 1.58559V9.32753H1.93548C1.76438 9.32753 1.60028 9.3955 1.47929 9.51649C1.35829 9.63748 1.29032 9.80158 1.29032 9.97269V37.7146H0.645161C0.474054 37.7146 0.309955 37.7826 0.188963 37.9036C0.0679721 38.0246 0 38.1887 0 38.3598V40.2953C0 40.4664 0.0679721 40.6305 0.188963 40.7515C0.309955 40.8725 0.474054 40.9404 0.645161 40.9404H39.3548C39.5259 40.9404 39.69 40.8725 39.811 40.7515C39.932 40.6305 40 40.4664 40 40.2953V38.3598C40 38.1887 39.932 38.0246 39.811 37.9036C39.69 37.7826 39.5259 37.7146 39.3548 37.7146ZM30.9677 17.0695H37.4194V37.7146H30.9677V17.0695ZM10.3226 2.23075H29.6774V37.7146H25.1613V28.0372C25.1613 27.8661 25.0933 27.702 24.9723 27.581C24.8513 27.46 24.6872 27.392 24.5161 27.392H15.4839C15.3128 27.392 15.1487 27.46 15.0277 27.581C14.9067 27.702 14.8387 27.8661 14.8387 28.0372V37.7146H10.3226V2.23075ZM23.871 28.6824V37.7146H20.6452V28.6824H23.871ZM19.3548 28.6824V37.7146H16.129V28.6824H19.3548ZM2.58065 10.6178H9.03226V37.7146H2.58065V10.6178ZM38.7097 39.6501H1.29032V39.0049H38.7097V39.6501Z" fill="white"/>
<path d="M7.74171 11.2632H3.87075C3.69964 11.2632 3.53554 11.3312 3.41455 11.4521C3.29356 11.5731 3.22559 11.7372 3.22559 11.9083V15.7793C3.22559 15.9504 3.29356 16.1145 3.41455 16.2355C3.53554 16.3565 3.69964 16.4245 3.87075 16.4245H7.74171C7.91282 16.4245 8.07692 16.3565 8.19791 16.2355C8.3189 16.1145 8.38688 15.9504 8.38688 15.7793V11.9083C8.38688 11.7372 8.3189 11.5731 8.19791 11.4521C8.07692 11.3312 7.91282 11.2632 7.74171 11.2632ZM7.09655 15.1342H4.51591V12.5535H7.09655V15.1342Z" fill="white"/>
<path d="M7.74171 17.7148H3.87075C3.69964 17.7148 3.53554 17.7828 3.41455 17.9038C3.29356 18.0248 3.22559 18.1889 3.22559 18.36V22.231C3.22559 22.4021 3.29356 22.5662 3.41455 22.6872C3.53554 22.8082 3.69964 22.8761 3.87075 22.8761H7.74171C7.91282 22.8761 8.07692 22.8082 8.19791 22.6872C8.3189 22.5662 8.38688 22.4021 8.38688 22.231V18.36C8.38688 18.1889 8.3189 18.0248 8.19791 17.9038C8.07692 17.7828 7.91282 17.7148 7.74171 17.7148ZM7.09655 21.5858H4.51591V19.0052H7.09655V21.5858Z" fill="white"/>
<path d="M7.74171 24.166H3.87075C3.69964 24.166 3.53554 24.234 3.41455 24.355C3.29356 24.476 3.22559 24.6401 3.22559 24.8112V28.6821C3.22559 28.8533 3.29356 29.0174 3.41455 29.1383C3.53554 29.2593 3.69964 29.3273 3.87075 29.3273H7.74171C7.91282 29.3273 8.07692 29.2593 8.19791 29.1383C8.3189 29.0174 8.38688 28.8533 8.38688 28.6821V24.8112C8.38688 24.6401 8.3189 24.476 8.19791 24.355C8.07692 24.234 7.91282 24.166 7.74171 24.166ZM7.09655 28.037H4.51591V25.4563H7.09655V28.037Z" fill="white"/>
<path d="M32.2584 22.8761H36.1294C36.3005 22.8761 36.4646 22.8082 36.5856 22.6872C36.7066 22.5662 36.7746 22.4021 36.7746 22.231V18.36C36.7746 18.1889 36.7066 18.0248 36.5856 17.9038C36.4646 17.7828 36.3005 17.7148 36.1294 17.7148H32.2584C32.0873 17.7148 31.9232 17.7828 31.8022 17.9038C31.6813 18.0248 31.6133 18.1889 31.6133 18.36V22.231C31.6133 22.4021 31.6813 22.5662 31.8022 22.6872C31.9232 22.8082 32.0873 22.8761 32.2584 22.8761ZM32.9036 19.0052H35.4842V21.5858H32.9036V19.0052Z" fill="white"/>
<path d="M32.2584 29.3273H36.1294C36.3005 29.3273 36.4646 29.2593 36.5856 29.1383C36.7066 29.0174 36.7746 28.8533 36.7746 28.6821V24.8112C36.7746 24.6401 36.7066 24.476 36.5856 24.355C36.4646 24.234 36.3005 24.166 36.1294 24.166H32.2584C32.0873 24.166 31.9232 24.234 31.8022 24.355C31.6813 24.476 31.6133 24.6401 31.6133 24.8112V28.6821C31.6133 28.8533 31.6813 29.0174 31.8022 29.1383C31.9232 29.2593 32.0873 29.3273 32.2584 29.3273ZM32.9036 25.4563H35.4842V28.037H32.9036V25.4563Z" fill="white"/>
<path d="M12.2584 25.4565H27.7423C27.9134 25.4565 28.0775 25.3885 28.1985 25.2675C28.3195 25.1465 28.3875 24.9824 28.3875 24.8113V19.65C28.3875 19.4789 28.3195 19.3148 28.1985 19.1938C28.0775 19.0729 27.9134 19.0049 27.7423 19.0049H12.2584C12.0873 19.0049 11.9232 19.0729 11.8022 19.1938C11.6813 19.3148 11.6133 19.4789 11.6133 19.65V24.8113C11.6133 24.9824 11.6813 25.1465 11.8022 25.2675C11.9232 25.3885 12.0873 25.4565 12.2584 25.4565ZM19.3552 24.1662H16.7746V20.2952H19.3552V24.1662ZM20.6455 20.2952H23.2262V24.1662H20.6455V20.2952ZM27.0972 24.1662H24.5165V20.2952H27.0972V24.1662ZM12.9036 20.2952H15.4842V24.1662H12.9036V20.2952Z" fill="white"/>
<path d="M12.2584 17.7148H27.7423C27.9134 17.7148 28.0775 17.6468 28.1985 17.5258C28.3195 17.4048 28.3875 17.2407 28.3875 17.0696V11.9083C28.3875 11.7372 28.3195 11.5731 28.1985 11.4521C28.0775 11.3312 27.9134 11.2632 27.7423 11.2632H12.2584C12.0873 11.2632 11.9232 11.3312 11.8022 11.4521C11.6813 11.5731 11.6133 11.7372 11.6133 11.9083V17.0696C11.6133 17.2407 11.6813 17.4048 11.8022 17.5258C11.9232 17.6468 12.0873 17.7148 12.2584 17.7148ZM19.3552 16.4245H16.7746V12.5535H19.3552V16.4245ZM20.6455 12.5535H23.2262V16.4245H20.6455V12.5535ZM27.0972 16.4245H24.5165V12.5535H27.0972V16.4245ZM12.9036 12.5535H15.4842V16.4245H12.9036V12.5535Z" fill="white"/>
<path d="M12.2584 9.97261H27.7423C27.9134 9.97261 28.0775 9.90464 28.1985 9.78365C28.3195 9.66265 28.3875 9.49856 28.3875 9.32745V4.16616C28.3875 3.99505 28.3195 3.83095 28.1985 3.70996C28.0775 3.58897 27.9134 3.521 27.7423 3.521H12.2584C12.0873 3.521 11.9232 3.58897 11.8022 3.70996C11.6813 3.83095 11.6133 3.99505 11.6133 4.16616V9.32745C11.6133 9.49856 11.6813 9.66265 11.8022 9.78365C11.9232 9.90464 12.0873 9.97261 12.2584 9.97261ZM19.3552 8.68229H16.7746V4.81132H19.3552V8.68229ZM20.6455 4.81132H23.2262V8.68229H20.6455V4.81132ZM27.0972 8.68229H24.5165V4.81132H27.0972V8.68229ZM12.9036 4.81132H15.4842V8.68229H12.9036V4.81132Z" fill="white"/>
</svg>
