<svg width="40" height="29" viewBox="0 0 40 29" fill="none" xmlns="http://www.w3.org/2000/svg">
<path fill-rule="evenodd" clip-rule="evenodd" d="M7.61562 3.20663C7.19361 3.18703 6.83572 3.51323 6.81612 3.93523C6.79653 4.35724 7.12273 4.71513 7.54473 4.73473C7.96674 4.75424 8.32463 4.42804 8.34423 4.00612C8.36382 3.5842 8.03762 3.22614 7.61562 3.20663ZM39.8478 15.7963C39.6567 16.2294 39.3093 16.5618 38.8698 16.7321L36.5746 17.622C36.3681 17.702 36.1526 17.7419 35.9371 17.7419C35.694 17.7419 35.451 17.6911 35.2214 17.5897C34.7882 17.3986 34.4558 17.0512 34.2854 16.6117L34.0852 16.0953L32.2171 16.8748C32.3072 17.4041 32.2206 17.9542 31.9578 18.4319C31.6461 18.9986 31.1299 19.4093 30.5043 19.5884C30.4785 19.5958 30.4526 19.6028 30.4267 19.6093C30.631 20.2249 30.5901 20.9184 30.2565 21.5249C29.7641 22.4203 28.7819 22.8791 27.8251 22.7523C27.8538 23.1929 27.7623 23.6451 27.5356 24.0572C27.2248 24.6222 26.7106 25.0322 26.0876 25.2115C25.6983 25.3237 25.2971 25.3364 24.914 25.2534C24.9265 25.6686 24.8322 26.0915 24.6188 26.4793C24.308 27.0445 23.7717 27.469 23.1476 27.6439C22.932 27.7043 22.7135 27.7343 22.4971 27.7343C22.0917 27.7343 21.6935 27.6294 21.3352 27.4236L20.7024 27.0602C20.3886 27.5019 19.9395 27.8264 19.4101 27.9868C19.1726 28.0588 18.9301 28.0945 18.6893 28.0945C18.2902 28.0945 17.8957 27.9967 17.535 27.8038C16.9999 27.5175 16.6049 27.0556 16.398 26.5166C15.7297 26.8009 14.9459 26.7879 14.2688 26.4257C13.7893 26.1693 13.4206 25.767 13.2004 25.294C12.496 25.6753 11.6209 25.708 10.8654 25.3041C10.2871 24.9947 9.8633 24.4769 9.67209 23.846C9.56331 23.487 9.53742 23.1167 9.59234 22.7577C9.17727 22.7684 8.75938 22.6726 8.37874 22.4691C7.80045 22.1598 7.37667 21.642 7.18539 21.0111C6.99418 20.3802 7.05926 19.7142 7.36853 19.1359L7.98633 17.9807C7.84827 17.6525 7.78021 17.2937 7.71497 16.9431C7.59659 16.3069 7.50449 15.9128 7.22321 15.8036C7.05765 15.7393 6.62766 15.5523 5.8872 15.2223L5.63898 15.7838C5.4485 16.2149 5.10037 16.5464 4.65877 16.7173C4.45063 16.7979 4.23378 16.838 4.01757 16.838C3.77508 16.838 3.53339 16.7875 3.30542 16.6868L1.05395 15.6917C0.161714 15.2973 -0.243356 14.2504 0.150907 13.3582L5.32044 1.66199C5.511 1.23087 5.85906 0.899351 6.30066 0.728469C6.74226 0.557667 7.22297 0.568474 7.654 0.758952L9.90547 1.75409C10.7978 2.14851 11.2029 3.19534 10.8086 4.08773L10.4209 4.96496L11.8863 5.64107C11.902 5.64833 11.9174 5.65624 11.9324 5.6647C12.7378 6.11808 13.5789 5.92091 14.6436 5.67124C16.0334 5.34552 17.7439 4.94553 19.7392 6.11816C22.4961 4.41393 24.614 5.27778 26.1774 5.91679C27.3427 6.39307 28.0363 6.64492 28.737 6.28025L30.0149 5.59624L29.6632 4.68884C29.3105 3.77927 29.7636 2.75228 30.6733 2.39963L32.9685 1.50982C33.8783 1.15725 34.9053 1.61046 35.2578 2.51995L39.88 14.4429C40.0504 14.8824 40.039 15.3631 39.8478 15.7963ZM9.62847 3.56613C9.73524 3.32453 9.62556 3.04107 9.38388 2.9343L7.13241 1.93916C7.07152 1.91223 7.00668 1.89876 6.94152 1.89876C6.88266 1.89876 6.82338 1.90973 6.76637 1.93182C6.64621 1.97827 6.55178 2.06779 6.50065 2.18359L1.33104 13.8797C1.22426 14.1212 1.33402 14.4047 1.57563 14.5115L3.8271 15.5066C3.94306 15.5579 4.07306 15.5605 4.19321 15.514C4.31337 15.4675 4.40772 15.3781 4.45893 15.2622L9.62847 3.56613ZM10.2608 21.2213L11.7352 18.6697C11.9782 18.1115 11.7526 17.4554 11.2145 17.1683C10.6439 16.8637 9.93176 17.0792 9.6271 17.6489L8.50632 19.7443C8.35963 20.0187 8.32899 20.3357 8.42027 20.6367C8.51148 20.9377 8.71285 21.1844 8.98727 21.3311C9.39589 21.5497 9.89652 21.5036 10.2608 21.2213ZM13.0644 23.6787L14.6936 20.5238C14.7919 20.0237 14.5493 19.4997 14.0991 19.2594C13.6866 19.0392 13.1826 19.0877 12.8179 19.3749L10.993 22.5795C10.8463 22.8538 10.8158 23.1707 10.9071 23.4718C10.9983 23.7729 11.1997 24.0196 11.4741 24.1663C12.0433 24.4709 12.7567 24.2521 13.0644 23.6787ZM16.362 24.9641L17.8065 22.1878C17.9044 21.6879 17.662 21.1643 17.2119 20.9241C16.7632 20.6848 16.1965 20.7709 15.8357 21.1243L14.2619 24.1721C14.2312 24.6303 14.4703 25.0701 14.8774 25.2879C15.384 25.5588 16.0153 25.4185 16.362 24.9641ZM19.7305 26.1851L20.8052 24.1757C21.0168 23.7802 20.98 23.2886 20.7116 22.9236C20.609 22.7841 20.4787 22.6714 20.3243 22.5888C19.8758 22.3492 19.3087 22.4359 18.9476 22.79L17.5312 25.5124C17.4835 25.9849 17.7219 26.4405 18.1436 26.6662C18.418 26.8128 18.7349 26.8435 19.036 26.7522C19.3371 26.6609 19.5838 26.4594 19.7305 26.1851ZM23.0448 24.3304C23.0099 24.3109 22.2194 23.8511 22.2194 23.8511C22.1904 24.1732 22.0997 24.4911 21.943 24.7842L21.329 25.932L21.9779 26.3047C22.2247 26.4465 22.5165 26.4808 22.7995 26.4015C23.0922 26.3194 23.3433 26.1211 23.4883 25.8574C23.7848 25.3187 23.5857 24.6336 23.0448 24.3304ZM30.8482 16.7865C30.7456 16.575 30.5827 16.4014 30.3772 16.2842L24.2728 12.8048C23.2361 12.214 21.9412 12.7382 20.4418 13.3452C19.3209 13.799 18.0608 14.3089 16.7842 14.3091C15.5367 14.3091 14.2734 13.8225 13.1067 12.3214C12.9535 12.1248 12.8947 11.8806 12.9419 11.6346C12.9893 11.3879 13.1347 11.1828 13.3513 11.0566C15.0726 10.0519 16.5266 8.95518 17.6726 7.79706C17.9707 7.4957 18.2715 7.21869 18.5727 6.96636C17.252 6.38581 16.1225 6.64968 14.9383 6.92733C13.7684 7.20143 12.5588 7.48506 11.3237 6.80217L9.89943 6.14509L6.40912 14.0419C7.11628 14.357 7.54691 14.5449 7.69037 14.6006C8.55059 14.9345 8.79494 15.7559 8.93381 16.4463C9.68145 15.712 10.8499 15.5109 11.8222 16.0298C12.5425 16.4142 12.9973 17.113 13.1008 17.8726C13.6372 17.7739 14.2042 17.8526 14.7068 18.1209C15.3106 18.4432 15.7335 18.9872 15.9126 19.6103C16.5293 19.4142 17.2159 19.4637 17.8195 19.7858C18.4234 20.108 18.8463 20.6519 19.0254 21.275C19.6425 21.0787 20.3291 21.1283 20.9326 21.4508C21.2206 21.6047 21.4692 21.8092 21.6734 22.0591L24.8857 23.8776L24.8868 23.8782C25.1438 24.021 25.4434 24.0542 25.7308 23.9715C26.0215 23.8878 26.2611 23.6974 26.4052 23.4353C26.6998 22.8995 26.4994 22.2159 25.9583 21.9113C25.9231 21.8914 21.4486 19.3608 21.4486 19.3608C21.1381 19.1861 21.028 18.7927 21.2027 18.4822C21.3775 18.1716 21.7709 18.0615 22.0813 18.2363L27.6042 21.3439L27.6052 21.3445C28.1462 21.6419 28.8286 21.4441 29.1262 20.903C29.4208 20.3672 29.2203 19.6836 28.6792 19.379C28.6791 19.3789 28.6789 19.3788 28.6788 19.3788C27.1177 18.5043 25.8166 17.7743 24.4737 17.0056C24.1645 16.8287 24.0573 16.4345 24.2344 16.1252C24.4114 15.816 24.8055 15.7088 25.1147 15.8859C26.4532 16.6521 27.752 17.3808 29.3109 18.254C29.5655 18.3964 29.8633 18.4298 30.1494 18.3479C30.4419 18.2642 30.6827 18.0732 30.8274 17.81C31.0021 17.4923 31.0096 17.1192 30.8482 16.7865ZM33.6187 14.8919L30.4848 6.80822L29.3392 7.42143C28.0672 8.08335 26.8583 7.58909 25.6893 7.1112C24.107 6.46436 22.4709 5.79551 20.1124 7.41344C19.6101 7.75666 19.0981 8.19092 18.5897 8.70478C17.4651 9.84128 16.0725 10.917 14.445 11.9068C16.116 13.7046 17.9053 12.9802 19.9575 12.1494C21.6164 11.4778 23.3316 10.7834 24.9117 11.684L31.0161 15.1634C31.2667 15.3062 31.4873 15.4893 31.6708 15.7047L33.6187 14.8919ZM38.677 14.9094L34.0548 2.98639C33.9813 2.7968 33.7996 2.68051 33.6076 2.68051C33.5501 2.68051 33.4916 2.69091 33.4349 2.71285L31.1398 3.60266C30.8935 3.69823 30.7708 3.9762 30.8663 4.22248L35.4885 16.1455C35.5343 16.2636 35.6244 16.3573 35.7423 16.4093C35.8601 16.4613 35.9901 16.4647 36.1083 16.4189L38.4035 15.5291C38.5216 15.4833 38.6153 15.3931 38.6673 15.2753C38.7193 15.1575 38.7228 15.0275 38.677 14.9094ZM32.8935 3.95669C32.4723 3.95669 32.1286 4.30023 32.1286 4.72158C32.1286 5.14294 32.4722 5.48648 32.8935 5.48648C33.3148 5.48648 33.6584 5.14286 33.6584 4.72158C33.6584 4.30031 33.3148 3.95669 32.8935 3.95669Z" fill="white"/>
</svg>
