<svg width="30" height="31" viewBox="0 0 30 31" fill="none" xmlns="http://www.w3.org/2000/svg">
<path d="M24.3463 26.8528L23.2261 23.4919C22.8347 22.3185 21.836 21.4523 20.6185 21.2307L17.3848 20.6423V20.3917C17.9476 20.0651 18.4373 19.6281 18.8273 19.1109H19.8042C20.6045 19.1109 21.2558 18.4596 21.2558 17.6593V11.8528C21.2558 8.38444 18.4339 5.5625 14.9655 5.5625C11.4971 5.5625 8.67516 8.38444 8.67516 11.8528V15.2399C8.67516 16.1728 9.33854 16.9533 10.2182 17.1352C10.4897 18.5259 11.3587 19.7027 12.5461 20.3917V20.6423L9.31193 21.2307C8.09499 21.4523 7.0958 22.3185 6.70483 23.4919L6.51128 24.073L4.86322 22.4249C4.67451 22.2362 4.67451 21.929 4.86322 21.7402L6.77451 19.8294L3.18709 16.242L1.02709 18.402C0.387414 19.0417 0.0351562 19.8923 0.0351562 20.7972C0.0351562 21.702 0.387414 22.5522 1.02709 23.1919L7.56661 29.7314C8.20628 30.371 9.05693 30.7238 9.96177 30.7238C10.8666 30.7238 11.7168 30.371 12.3414 29.7459L14.6984 27.5864L13.9634 26.8528H24.3463ZM20.2881 17.6593C20.2881 17.9264 20.0708 18.1431 19.8042 18.1431H19.3973C19.5376 17.8233 19.644 17.486 19.7127 17.1352C19.9198 17.0922 20.1105 17.0099 20.2881 16.9064V17.6593ZM19.8042 16.0731V14.4067C20.0921 14.5746 20.2881 14.8833 20.2881 15.2399C20.2881 15.5965 20.0921 15.9052 19.8042 16.0731ZM10.1268 16.0731C9.83887 15.9052 9.6429 15.5965 9.6429 15.2399C9.6429 14.8833 9.83887 14.5746 10.1268 14.4067V16.0731ZM10.1268 12.8206V13.3731C9.95451 13.4181 9.7929 13.4859 9.6429 13.5735V11.8528C9.6429 8.91815 12.0308 6.53024 14.9655 6.53024C17.9002 6.53024 20.2881 8.91815 20.2881 11.8528V13.5735C20.1381 13.4859 19.9764 13.4177 19.8042 13.3731V12.8206H19.3203C17.8895 12.8206 16.5443 12.2631 15.5321 11.2514L14.9655 10.6848L14.3989 11.2514C13.3866 12.2631 12.0414 12.8206 10.6106 12.8206H10.1268ZM11.0945 16.2077V13.7699C12.5476 13.6606 13.9024 13.061 14.9655 12.0502C16.0285 13.061 17.3834 13.661 18.8364 13.7699V16.2077C18.8364 16.9131 18.6439 17.5731 18.3129 18.1431H14.9655V19.1109H17.5174C16.8352 19.7114 15.9434 20.0786 14.9655 20.0786C12.8311 20.0786 11.0945 18.342 11.0945 16.2077ZM16.4171 20.8233V20.846L14.9655 22.2977L13.5139 20.846V20.8233C13.9726 20.9675 14.4598 21.0464 14.9655 21.0464C15.4711 21.0464 15.9584 20.9675 16.4171 20.8233ZM7.62225 23.7977C7.90145 22.9596 8.61516 22.3407 9.48467 22.182L12.8669 21.5675L14.9655 23.666L17.0635 21.568L20.4453 22.1825C21.3148 22.3412 22.0285 22.9596 22.3077 23.7981L23.004 25.8851H12.9956L11.111 24.0004L9.01677 25.8948C8.83435 26.0781 8.51548 26.0781 8.33258 25.8948L7.2758 24.838L7.62225 23.7977ZM3.18661 17.6104L5.40564 19.8294L4.88016 20.3549L2.66112 18.1359L3.18661 17.6104ZM11.6713 29.0481C11.2145 29.504 10.6068 29.7561 9.9608 29.7561C9.31483 29.7561 8.70709 29.504 8.24983 29.0472L1.71032 22.5081C1.25354 22.0514 1.00193 21.4436 1.00193 20.7977C1.00193 20.1512 1.25354 19.5435 1.71032 19.0867L1.97645 18.8206L4.19548 21.0396L4.17806 21.057C3.61241 21.6231 3.61241 22.544 4.17806 23.1101L7.6479 26.5799C7.92225 26.8538 8.28661 27.0052 8.67467 27.0052C9.06274 27.0052 9.42709 26.8543 9.68354 26.5969L9.71983 26.5644L11.949 28.7936L11.6713 29.0481ZM12.6632 28.1385L10.4389 25.9141L11.0781 25.3364L13.2985 27.5569L12.6632 28.1385Z" fill="white"/>
<path d="M28.5149 0.723633H21.7407C20.9404 0.723633 20.2891 1.37492 20.2891 2.17525V6.04621C20.2891 6.84654 20.9404 7.49783 21.7407 7.49783H23.0331L22.5328 10.4161L27.2021 7.49783H28.5149C29.3152 7.49783 29.9665 6.84654 29.9665 6.04621V2.17525C29.9665 1.37492 29.3152 0.723633 28.5149 0.723633ZM28.9987 6.04621C28.9987 6.31283 28.7815 6.53008 28.5149 6.53008H26.9244L23.8513 8.45057L24.1808 6.53008H21.7407C21.4741 6.53008 21.2568 6.31283 21.2568 6.04621V2.17525C21.2568 1.90863 21.4741 1.69137 21.7407 1.69137H28.5149C28.7815 1.69137 28.9987 1.90863 28.9987 2.17525V6.04621Z" fill="white"/>
<path d="M28.0311 2.65918H22.2246V3.62692H28.0311V2.65918Z" fill="white"/>
<path d="M26.0956 4.59473H22.2246V5.56247H26.0956V4.59473Z" fill="white"/>
<path d="M28.0302 4.59448H27.0625V5.56222H28.0302V4.59448Z" fill="white"/>
<path d="M14.966 2.17529C8.6437 2.17529 3.19774 6.54852 1.78193 12.6487L0.864995 11.1201L0.0351562 11.618L1.73596 14.4521L4.56999 12.7513L4.07209 11.9214L2.7608 12.7082C4.13209 7.12771 9.15032 3.14303 14.966 3.14303C16.2371 3.14303 17.4913 3.33174 18.6937 3.70433L18.9802 2.78013C17.6848 2.37852 16.3343 2.17529 14.966 2.17529Z" fill="white"/>
<path d="M29.7304 11.4376L26.8964 9.73682L25.196 12.5713L26.0259 13.0692L26.8727 11.6578C27.3183 12.9618 27.5462 14.3258 27.5462 15.7238C27.5462 18.6013 26.5494 21.4146 24.7402 23.6447L25.4917 24.2544C27.4407 21.8525 28.5139 18.8225 28.5139 15.7238C28.5139 14.2436 28.2754 12.7983 27.8104 11.4144L29.2325 12.2675L29.7304 11.4376Z" fill="white"/>
</svg>
