<svg width="22" height="31" viewBox="0 0 22 31" fill="none" xmlns="http://www.w3.org/2000/svg">
<path fill-rule="evenodd" clip-rule="evenodd" d="M0.655913 17.2568C0.758214 17.2568 0.858217 17.2872 0.943277 17.344C1.02834 17.4008 1.09463 17.4816 1.13378 17.5761C1.17293 17.6707 1.18317 17.7747 1.16322 17.875C1.14326 17.9753 1.094 18.0675 1.02166 18.1398C0.94932 18.2122 0.857157 18.2614 0.756822 18.2814C0.656487 18.3013 0.552487 18.2911 0.457973 18.2519C0.36346 18.2128 0.282678 18.1465 0.225843 18.0614C0.169008 17.9764 0.138672 17.8764 0.138672 17.7741C0.138672 17.6369 0.193167 17.5053 0.290168 17.4083C0.38717 17.3113 0.518732 17.2568 0.655913 17.2568Z" fill="white"/>
<path d="M11.518 29.6708H16.6904V28.119C16.6924 28.0169 16.7209 27.9171 16.7731 27.8294L20.8283 21.757V14.2466C20.6096 14.3205 20.4112 14.4445 20.249 14.6087C19.9579 14.8994 19.7942 15.2938 19.7938 15.7052V19.5535C19.7951 19.6315 19.7779 19.7086 19.7437 19.7787C19.7096 19.8488 19.6594 19.9099 19.5973 19.957L14.1766 25.3777C14.1285 25.4261 14.0713 25.4646 14.0083 25.4909C13.9452 25.5171 13.8776 25.5307 13.8094 25.5307C13.7411 25.5307 13.6735 25.5171 13.6104 25.4909C13.5474 25.4646 13.4902 25.4261 13.4421 25.3777C13.3926 25.3312 13.3532 25.2751 13.3262 25.2129C13.2993 25.1506 13.2854 25.0834 13.2854 25.0156C13.2854 24.9477 13.2993 24.8806 13.3262 24.8183C13.3532 24.756 13.3926 24.7 13.4421 24.6535L15.8421 22.2535C15.9411 22.1548 15.9969 22.0209 15.9973 21.8811C15.9981 21.8133 15.9847 21.746 15.958 21.6837C15.9313 21.6213 15.8918 21.5652 15.8421 21.519C15.7957 21.4696 15.7396 21.4301 15.6773 21.4032C15.615 21.3762 15.5479 21.3623 15.48 21.3623C15.4122 21.3623 15.345 21.3762 15.2828 21.4032C15.2205 21.4301 15.1644 21.4696 15.118 21.519L11.818 24.8087C11.7221 24.9054 11.6462 25.02 11.5948 25.146C11.5433 25.2721 11.5172 25.407 11.518 25.5432V29.6708ZM5.12488 21.2087C5.19963 21.051 5.30113 20.9075 5.42488 20.7846C5.71715 20.4965 6.11105 20.335 6.52143 20.335C6.93181 20.335 7.32571 20.4965 7.61798 20.7846L10.9076 24.0742L11.0007 24.1673L11.0938 24.0742L14.3835 20.7846C14.6758 20.4965 15.0697 20.335 15.48 20.335C15.8904 20.335 16.2843 20.4965 16.5766 20.7846C16.7003 20.9075 16.8018 21.051 16.8766 21.2087L18.7594 19.3363V15.7052C18.758 15.3652 18.8239 15.0283 18.9534 14.7139C19.0829 14.3995 19.2734 14.1139 19.5138 13.8735C19.7542 13.633 20.0399 13.4426 20.3542 13.3131C20.6686 13.1836 21.0056 13.1177 21.3456 13.119C21.4827 13.119 21.6143 13.1735 21.7113 13.2705C21.8083 13.3675 21.8628 13.4991 21.8628 13.6363V21.9121C21.8623 22.0145 21.8336 22.1146 21.78 22.2018L17.7249 28.2742V29.6708H18.2421C18.3793 29.6708 18.5109 29.7253 18.6079 29.8223C18.7049 29.9193 18.7594 30.0508 18.7594 30.188C18.7594 30.3252 18.7049 30.4567 18.6079 30.5538C18.5109 30.6508 18.3793 30.7052 18.2421 30.7052H3.75936C3.62218 30.7052 3.49062 30.6508 3.39362 30.5538C3.29661 30.4567 3.24212 30.3252 3.24212 30.188C3.24212 30.0508 3.29661 29.9193 3.39362 29.8223C3.49062 29.7253 3.62218 29.6708 3.75936 29.6708H4.2766V28.2742L0.22143 22.2018C0.16784 22.1146 0.139213 22.0145 0.138672 21.9121V19.8432C0.138672 19.706 0.193167 19.5744 0.290168 19.4774C0.38717 19.3804 0.518732 19.3259 0.655913 19.3259C0.793094 19.3259 0.924656 19.3804 1.02166 19.4774C1.11866 19.5744 1.17315 19.706 1.17315 19.8432V21.757L5.22833 27.8294C5.28053 27.9171 5.30904 28.0169 5.31108 28.119V29.6708H10.4835V25.5328C10.4843 25.3967 10.4582 25.2617 10.4067 25.1357C10.3552 25.0096 10.2794 24.895 10.1835 24.7984L6.86281 21.519C6.81637 21.4696 6.76028 21.4301 6.69801 21.4032C6.63574 21.3762 6.5686 21.3623 6.50074 21.3623C6.43288 21.3623 6.36574 21.3762 6.30347 21.4032C6.24119 21.4301 6.18511 21.4696 6.13867 21.519C6.08898 21.5652 6.0495 21.6213 6.02277 21.6837C5.99605 21.746 5.98267 21.8133 5.9835 21.8811C5.98353 22.0109 6.03141 22.1361 6.11798 22.2328L8.53867 24.6535C8.58815 24.7 8.62759 24.756 8.65455 24.8183C8.6815 24.8806 8.69541 24.9477 8.69541 25.0156C8.69541 25.0834 8.6815 25.1506 8.65455 25.2129C8.62759 25.2751 8.58815 25.3312 8.53867 25.3777C8.45934 25.4524 8.35761 25.499 8.24917 25.5102C8.14074 25.5215 8.03162 25.4967 7.93867 25.4397C7.89451 25.4219 7.85543 25.3935 7.82488 25.357L2.3835 19.9466C2.32963 19.896 2.28635 19.8352 2.25616 19.7677C2.22598 19.7002 2.20948 19.6274 2.20764 19.5535V15.7052C2.20727 15.2938 2.04355 14.8994 1.75246 14.6087C1.59026 14.4445 1.39186 14.3205 1.17315 14.2466V15.7052C1.17315 15.8424 1.11866 15.974 1.02166 16.071C0.924656 16.168 0.793094 16.2225 0.655913 16.2225C0.518732 16.2225 0.38717 16.168 0.290168 16.071C0.193167 15.974 0.138672 15.8424 0.138672 15.7052V13.6363C0.138672 13.4991 0.193167 13.3675 0.290168 13.2705C0.38717 13.1735 0.518732 13.119 0.655913 13.119C0.995922 13.1177 1.33284 13.1836 1.64723 13.3131C1.96162 13.4426 2.24726 13.633 2.48769 13.8735C2.72811 14.1139 2.91856 14.3995 3.04804 14.7139C3.17753 15.0283 3.24349 15.3652 3.24212 15.7052V19.3363L5.12488 21.2087Z" fill="white"/>
<path d="M3.76003 11.05H1.69107C1.55389 11.05 1.42233 10.9955 1.32532 10.8985C1.22832 10.8015 1.17383 10.6699 1.17383 10.5327C1.17383 10.3956 1.22832 10.264 1.32532 10.167C1.42233 10.07 1.55389 10.0155 1.69107 10.0155H3.76003C3.89722 10.0155 4.02878 10.07 4.12578 10.167C4.22278 10.264 4.27728 10.3956 4.27728 10.5327C4.27728 10.6699 4.22278 10.8015 4.12578 10.8985C4.02878 10.9955 3.89722 11.05 3.76003 11.05Z" fill="white"/>
<path d="M5.87982 5.92905C5.81199 5.92988 5.74473 5.9165 5.68237 5.88977C5.62001 5.86305 5.56394 5.82357 5.51775 5.77388L4.04879 4.3256C3.99988 4.27669 3.96109 4.21863 3.93462 4.15474C3.90815 4.09084 3.89453 4.02235 3.89453 3.95319C3.89453 3.88402 3.90815 3.81554 3.93462 3.75164C3.96109 3.68774 3.99988 3.62968 4.04879 3.58077C4.0977 3.53187 4.15576 3.49307 4.21965 3.4666C4.28355 3.44014 4.35204 3.42651 4.4212 3.42651C4.49037 3.42651 4.55885 3.44014 4.62275 3.4666C4.68665 3.49307 4.74471 3.53187 4.79362 3.58077L6.24189 5.04974C6.29137 5.09618 6.33081 5.15226 6.35777 5.21454C6.38473 5.27681 6.39864 5.34395 6.39864 5.41181C6.39864 5.47967 6.38473 5.5468 6.35777 5.60908C6.33081 5.67135 6.29137 5.72744 6.24189 5.77388C6.19571 5.82357 6.13963 5.86305 6.07728 5.88977C6.01492 5.9165 5.94766 5.92988 5.87982 5.92905Z" fill="white"/>
<path d="M11.0016 3.80865C10.8644 3.80865 10.7329 3.75415 10.6359 3.65715C10.5389 3.56015 10.4844 3.42859 10.4844 3.29141V1.22244C10.4844 1.08526 10.5389 0.953698 10.6359 0.856697C10.7329 0.759695 10.8644 0.7052 11.0016 0.7052C11.1388 0.7052 11.2704 0.759695 11.3674 0.856697C11.4644 0.953698 11.5189 1.08526 11.5189 1.22244V3.29141C11.5189 3.42859 11.4644 3.56015 11.3674 3.65715C11.2704 3.75415 11.1388 3.80865 11.0016 3.80865Z" fill="white"/>
<path d="M16.1731 5.92935C16.1053 5.93017 16.038 5.91679 15.9757 5.89007C15.9133 5.86335 15.8572 5.82387 15.811 5.77417C15.7616 5.72774 15.7221 5.67165 15.6952 5.60938C15.6682 5.5471 15.6543 5.47996 15.6543 5.41211C15.6543 5.34425 15.6682 5.27711 15.6952 5.21484C15.7221 5.15256 15.7616 5.09647 15.811 5.05004L17.2076 3.58107C17.2558 3.53284 17.3131 3.49459 17.3761 3.46849C17.4391 3.44239 17.5066 3.42896 17.5748 3.42896C17.643 3.42896 17.7106 3.44239 17.7736 3.46849C17.8366 3.49459 17.8938 3.53284 17.9421 3.58107C17.9903 3.6293 18.0286 3.68655 18.0547 3.74956C18.0808 3.81257 18.0942 3.88011 18.0942 3.94831C18.0942 4.01652 18.0808 4.08405 18.0547 4.14706C18.0286 4.21007 17.9903 4.26733 17.9421 4.31555L16.4835 5.77417C16.4373 5.82387 16.3812 5.86335 16.3188 5.89007C16.2565 5.91679 16.1892 5.93017 16.1214 5.92935H16.1731Z" fill="white"/>
<path d="M20.3108 11.0501H18.2419C18.1047 11.0501 17.9731 10.9956 17.8761 10.8986C17.7791 10.8016 17.7246 10.67 17.7246 10.5329C17.7246 10.3957 17.7791 10.2641 17.8761 10.1671C17.9731 10.0701 18.1047 10.0156 18.2419 10.0156H20.3108C20.448 10.0156 20.5796 10.0701 20.6766 10.1671C20.7736 10.2641 20.8281 10.3957 20.8281 10.5329C20.8281 10.67 20.7736 10.8016 20.6766 10.8986C20.5796 10.9956 20.448 11.0501 20.3108 11.0501Z" fill="white"/>
<path d="M11.0004 19.3258C10.9387 19.3357 10.8759 19.3357 10.8142 19.3258L10.3383 19.1293C8.8464 18.5373 7.56812 17.5085 6.67099 16.1775C5.77386 14.8466 5.29973 13.2757 5.31073 11.6707V8.46375C5.30985 8.36132 5.34001 8.26102 5.39726 8.17608C5.45451 8.09113 5.53615 8.02552 5.63142 7.98789L10.8038 5.91893C10.9298 5.86719 11.071 5.86719 11.1969 5.91893L16.3694 7.98789C16.4646 8.02552 16.5463 8.09113 16.6035 8.17608C16.6608 8.26102 16.6909 8.36132 16.69 8.46375V11.6707C16.6948 13.2704 16.2177 14.8345 15.321 16.1593C14.4243 17.4841 13.1494 18.5082 11.6625 19.0982L11.1866 19.2948C11.1249 19.3046 11.0621 19.3046 11.0004 19.2948V19.3258ZM6.34522 8.81548V11.6707C6.34 13.0647 6.75463 14.4279 7.53511 15.583C8.31559 16.738 9.42577 17.6313 10.7211 18.1465L11.0004 18.25L11.2694 18.1465C12.5666 17.6329 13.679 16.7403 14.4614 15.5852C15.2438 14.43 15.66 13.0659 15.6556 11.6707V8.81548L11.0004 6.95341L6.34522 8.81548Z" fill="white"/>
<path d="M9.96645 14.1535C9.89861 14.1543 9.83135 14.1409 9.76899 14.1142C9.70664 14.0875 9.65056 14.048 9.60438 13.9983L8.5699 12.9638C8.47387 12.8678 8.41992 12.7376 8.41992 12.6018C8.41992 12.466 8.47387 12.3357 8.5699 12.2397C8.66592 12.1437 8.79616 12.0897 8.93196 12.0897C9.06777 12.0897 9.19801 12.1437 9.29403 12.2397L9.96645 12.9018L12.7078 10.1707C12.7554 10.1232 12.8118 10.0855 12.8739 10.0597C12.9361 10.034 13.0027 10.0208 13.0699 10.0208C13.1371 10.0208 13.2037 10.034 13.2658 10.0597C13.328 10.0855 13.3844 10.1232 13.432 10.1707C13.4795 10.2183 13.5172 10.2747 13.543 10.3368C13.5687 10.399 13.5819 10.4656 13.5819 10.5328C13.5819 10.6 13.5687 10.6666 13.543 10.7287C13.5172 10.7909 13.4795 10.8473 13.432 10.8949L10.3285 13.9983C10.2823 14.048 10.2263 14.0875 10.1639 14.1142C10.1015 14.1409 10.0343 14.1543 9.96645 14.1535Z" fill="white"/>
</svg>
