<svg width="212" height="51" viewBox="0 0 212 51" fill="none" xmlns="http://www.w3.org/2000/svg">
<path d="M64.4512 35.3133H79.3912V30.8133H69.7612V13.8633H64.4512V35.3133Z" fill="#0C1524"/>
<path d="M88.2427 32.3132C86.1127 32.3132 85.0027 30.4532 85.0027 27.6632C85.0027 24.8732 86.1127 22.9832 88.2427 22.9832C90.3727 22.9832 91.5127 24.8732 91.5127 27.6632C91.5127 30.4532 90.3727 32.3132 88.2427 32.3132ZM88.2727 35.7932C93.2227 35.7932 96.4627 32.2832 96.4627 27.6632C96.4627 23.0432 93.2227 19.5332 88.2727 19.5332C83.3527 19.5332 80.0527 23.0432 80.0527 27.6632C80.0527 32.2832 83.3527 35.7932 88.2727 35.7932Z" fill="#0C1524"/>
<path d="M105.031 40.6234C107.311 40.6234 109.321 40.1134 110.671 38.9134C111.901 37.8034 112.711 36.1234 112.711 33.8134V19.9534H108.031V21.6034H107.971C107.071 20.3134 105.691 19.5034 103.651 19.5034C99.8412 19.5034 97.2012 22.6834 97.2012 27.1834C97.2012 31.8934 100.411 34.4734 103.861 34.4734C105.721 34.4734 106.891 33.7234 107.791 32.7034H107.911V34.2334C107.911 36.0934 107.041 37.1734 104.971 37.1734C103.351 37.1734 102.541 36.4834 102.271 35.6734H97.5312C98.0112 38.8834 100.801 40.6234 105.031 40.6234ZM105.001 30.8434C103.171 30.8434 101.971 29.3434 101.971 27.0334C101.971 24.6934 103.171 23.1934 105.001 23.1934C107.041 23.1934 108.121 24.9334 108.121 27.0034C108.121 29.1634 107.131 30.8434 105.001 30.8434Z" fill="#0C1524"/>
<path d="M122.333 32.3132C120.203 32.3132 119.093 30.4532 119.093 27.6632C119.093 24.8732 120.203 22.9832 122.333 22.9832C124.463 22.9832 125.603 24.8732 125.603 27.6632C125.603 30.4532 124.463 32.3132 122.333 32.3132ZM122.363 35.7932C127.313 35.7932 130.553 32.2832 130.553 27.6632C130.553 23.0432 127.313 19.5332 122.363 19.5332C117.443 19.5332 114.143 23.0432 114.143 27.6632C114.143 32.2832 117.443 35.7932 122.363 35.7932Z" fill="#0C1524"/>
<path d="M131.982 35.3133H136.872V19.9533H131.982V35.3133ZM131.982 17.8233H136.872V13.8633H131.982V17.8233Z" fill="#0C1524"/>
<path d="M138.994 40.3834H143.884V33.7234H143.944C144.904 35.0134 146.314 35.7934 148.294 35.7934C152.314 35.7934 154.984 32.6134 154.984 27.6334C154.984 23.0134 152.494 19.5034 148.414 19.5034C146.314 19.5034 144.814 20.4334 143.764 21.8134H143.674V19.9534H138.994V40.3834ZM147.034 32.0134C144.934 32.0134 143.734 30.3034 143.734 27.8134C143.734 25.3234 144.814 23.4334 146.944 23.4334C149.044 23.4334 150.034 25.1734 150.034 27.8134C150.034 30.4234 148.894 32.0134 147.034 32.0134Z" fill="#0C1524"/>
<path d="M162.947 35.7934C166.967 35.7934 169.937 34.0534 169.937 30.6934C169.937 26.7634 166.757 26.0734 164.057 25.6234C162.107 25.2634 160.367 25.1134 160.367 24.0334C160.367 23.0734 161.297 22.6234 162.497 22.6234C163.847 22.6234 164.777 23.0434 164.957 24.4234H169.457C169.217 21.3934 166.877 19.5034 162.527 19.5034C158.897 19.5034 155.897 21.1834 155.897 24.4234C155.897 28.0234 158.747 28.7434 161.417 29.1934C163.457 29.5534 165.317 29.7034 165.317 31.0834C165.317 32.0734 164.387 32.6134 162.917 32.6134C161.297 32.6134 160.277 31.8634 160.097 30.3334H155.477C155.627 33.7234 158.447 35.7934 162.947 35.7934Z" fill="#0C1524"/>
<path d="M176.576 35.7634C178.706 35.7634 180.056 34.9234 181.166 33.4234H181.256V35.3134H185.936V19.9534H181.046V28.5334C181.046 30.3634 180.026 31.6234 178.346 31.6234C176.786 31.6234 176.036 30.6934 176.036 29.0134V19.9534H171.176V30.0334C171.176 33.4534 173.036 35.7634 176.576 35.7634Z" fill="#0C1524"/>
<path d="M188.064 35.3134H192.954V26.7034C192.954 24.8734 193.854 23.5834 195.384 23.5834C196.854 23.5834 197.544 24.5434 197.544 26.1934V35.3134H202.434V26.7034C202.434 24.8734 203.304 23.5834 204.864 23.5834C206.334 23.5834 207.024 24.5434 207.024 26.1934V35.3134H211.914V25.3234C211.914 21.8734 210.174 19.5034 206.694 19.5034C204.714 19.5034 203.064 20.3434 201.864 22.2034H201.804C201.024 20.5534 199.494 19.5034 197.484 19.5034C195.264 19.5034 193.794 20.5534 192.834 22.1434H192.744V19.9534H188.064V35.3134Z" fill="#0C1524"/>
<path fill-rule="evenodd" clip-rule="evenodd" d="M25.4805 50.3132C39.2876 50.3132 50.4805 39.1203 50.4805 25.3132C50.4805 11.5061 39.2876 0.313232 25.4805 0.313232C11.6733 0.313232 0.480469 11.5061 0.480469 25.3132C0.480469 39.1203 11.6733 50.3132 25.4805 50.3132ZM33.2796 11.9593C33.6593 10.6108 32.3506 9.8134 31.1555 10.6649L14.4719 22.5502C13.1758 23.4736 13.3796 25.3132 14.7781 25.3132H19.1714V25.2792H27.7336L20.757 27.7408L17.6814 38.6672C17.3018 40.0157 18.6103 40.8131 19.8055 39.9616L36.4891 28.0763C37.7853 27.153 37.5813 25.3132 36.1829 25.3132H29.5206L33.2796 11.9593Z" fill="#FF8159"/>
</svg>
