<svg width="36" height="37" viewBox="0 0 36 37" fill="none" xmlns="http://www.w3.org/2000/svg">
<path d="M33.3392 25.9214C33.557 25.3456 33.677 24.7227 33.677 24.0724C33.677 21.658 32.0328 19.6191 29.7983 18.9981V14.7863H31.005C32.4617 14.7863 33.6468 13.6073 33.6468 12.1583C33.6468 11.7664 33.3292 11.4488 32.9373 11.4488C32.5456 11.4488 32.2279 11.7664 32.2279 12.1583C32.2279 12.825 31.6793 13.3674 31.005 13.3674H29.0889C28.697 13.3674 28.3794 13.685 28.3794 14.0768V17.7727L24.277 13.5806C24.1436 13.4442 23.9608 13.3674 23.77 13.3674H12.2303C12.0395 13.3674 11.8568 13.4442 11.7233 13.5806L7.61898 17.7731V14.0768C7.61898 13.685 7.30138 13.3674 6.90953 13.3674H4.85057C4.17522 13.3674 3.62573 12.825 3.62573 12.1583V3.40783C3.62573 2.74219 4.17515 2.20057 4.85057 2.20057H31.0049C31.6792 2.20057 32.2277 2.74212 32.2277 3.40783V5.84641C32.2277 6.23826 32.5454 6.55586 32.9372 6.55586C33.329 6.55586 33.6466 6.23826 33.6466 5.84641V3.40783C33.6467 1.95982 32.4616 0.781738 31.0049 0.781738H4.85057C3.39285 0.781738 2.20689 1.95982 2.20689 3.40783V12.1582C2.20689 13.6073 3.39285 14.7862 4.85057 14.7862H6.2V18.9984C3.96541 19.62 2.32129 21.6585 2.32129 24.0724C2.32129 24.7232 2.44146 25.3463 2.65957 25.9223C1.09146 27.323 0.202148 29.2862 0.202148 31.3903V33.9783C0.202219 35.5241 1.46658 36.7817 3.02076 36.7817H4.44895C4.8408 36.7817 5.1584 36.4641 5.1584 36.0722C5.1584 35.6804 4.8408 35.3628 4.44895 35.3628H3.02076C2.24901 35.3628 1.62112 34.7417 1.62112 33.9782V31.3902C1.62112 29.8053 2.24866 28.3185 3.36487 27.2069C4.33307 28.5027 5.88458 29.3442 7.63058 29.3442C9.37658 29.3442 10.9281 28.5026 11.8963 27.2069C13.0125 28.3185 13.64 29.8054 13.64 31.3902V33.9782C13.64 34.7417 13.0121 35.3628 12.2404 35.3628H10.8122C10.4204 35.3628 10.1028 35.6804 10.1028 36.0722C10.1028 36.4641 10.4204 36.7817 10.8122 36.7817H12.2404C13.7945 36.7817 15.0589 35.5241 15.0589 33.9782V31.3902C15.0589 29.2861 14.1696 27.323 12.6015 25.9223C12.8196 25.3463 12.9397 24.7231 12.9397 24.0724C12.9397 21.4683 11.0266 19.3007 8.52256 18.8783L12.5286 14.7862H23.4717L27.4765 18.8786C24.9731 19.3016 23.0606 21.4688 23.0606 24.0724C23.0606 24.7227 23.1806 25.3456 23.3985 25.9213C21.8295 27.3232 20.9395 29.2869 20.9395 31.3903V33.9783C20.9395 35.5241 22.2048 36.7817 23.76 36.7817H32.9795C34.5336 36.7817 35.7981 35.5241 35.7981 33.9783V31.3903C35.798 29.287 34.9081 27.3234 33.3392 25.9214ZM11.5208 24.0724C11.5208 26.1969 9.77567 27.9254 7.63051 27.9254C5.48535 27.9254 3.7402 26.197 3.7402 24.0724C3.7402 21.9489 5.48535 20.2214 7.63051 20.2214C9.77567 20.2214 11.5208 21.9489 11.5208 24.0724ZM28.3697 20.2213C30.5137 20.2213 32.258 21.9489 32.258 24.0724C32.258 26.1968 30.5137 27.9253 28.3697 27.9253C26.2245 27.9253 24.4793 26.1969 24.4793 24.0724C24.4794 21.9489 26.2246 20.2213 28.3697 20.2213ZM34.3791 33.9782C34.3791 34.7417 33.7512 35.3628 32.9794 35.3628H23.76C22.9871 35.3628 22.3583 34.7417 22.3583 33.9782V31.3902C22.3583 29.8061 22.9864 28.3188 24.1034 27.206C25.0716 28.5022 26.6234 29.3442 28.3698 29.3442C30.1154 29.3442 31.6664 28.5024 32.6343 27.2063C33.7511 28.3191 34.3792 29.8063 34.3792 31.3902L34.3791 33.9782Z" fill="white"/>
<path d="M7.9741 10.2378H27.8796C28.2714 10.2378 28.5891 9.92008 28.5891 9.5283C28.5891 9.13652 28.2714 8.81885 27.8796 8.81885H7.9741C7.58225 8.81885 7.26465 9.13652 7.26465 9.5283C7.26465 9.92008 7.58225 10.2378 7.9741 10.2378Z" fill="white"/>
<path d="M7.9741 6.04586H10.0711C10.4629 6.04586 10.7805 5.72819 10.7805 5.3364C10.7805 4.94462 10.4629 4.62695 10.0711 4.62695H7.9741C7.58225 4.62695 7.26465 4.94462 7.26465 5.3364C7.26465 5.72819 7.58225 6.04586 7.9741 6.04586Z" fill="white"/>
<path d="M27.8799 4.62695H15.0307C14.6389 4.62695 14.3213 4.94462 14.3213 5.3364C14.3213 5.72819 14.6389 6.04586 15.0307 6.04586H27.8799C28.2718 6.04586 28.5894 5.72819 28.5894 5.3364C28.5894 4.94462 28.2718 4.62695 27.8799 4.62695Z" fill="white"/>
<path d="M32.937 8.29297C32.5451 8.29297 32.2275 8.61057 32.2275 9.00242V9.00636C32.2275 9.39821 32.5451 9.71384 32.937 9.71384C33.3288 9.71384 33.6464 9.39427 33.6464 9.00242C33.6464 8.61057 33.3288 8.29297 32.937 8.29297Z" fill="white"/>
<path d="M7.63044 35.3628H7.62636C7.23451 35.3628 6.91895 35.6804 6.91895 36.0722C6.91895 36.4641 7.23859 36.7817 7.63044 36.7817C8.02229 36.7817 8.33989 36.4641 8.33989 36.0722C8.33982 35.6805 8.02222 35.3628 7.63044 35.3628Z" fill="white"/>
</svg>
