<svg width="40" height="41" viewBox="0 0 40 41" fill="none" xmlns="http://www.w3.org/2000/svg">
<path d="M14.8382 26.8597V20.6159C14.8382 19.3706 13.8252 18.3576 12.5799 18.3576C12.2322 18.3576 11.9063 18.4434 11.6121 18.5841V14.8088C11.6121 13.5636 10.5991 12.5506 9.35382 12.5506C9.00604 12.5506 8.6802 12.6364 8.38598 12.777V10.9375C8.38598 9.6922 7.37297 8.6792 6.12769 8.6792C5.0792 8.6792 4.20234 9.40185 3.95005 10.3723C3.5513 10.1206 3.08352 9.96965 2.57895 9.96965C1.15558 9.96965 -0.00195312 11.1272 -0.00195312 12.5506V23.5194C-0.00195312 23.6271 0.0251463 23.7336 0.0767644 23.8284L3.94812 30.9259C3.9778 30.9795 4.01522 31.0298 4.05845 31.073L9.10992 36.1245C9.46996 36.4845 9.67643 36.9833 9.67643 37.493V40.2952C9.67643 40.6514 9.96549 40.9405 10.3217 40.9405H18.0644C18.4205 40.9405 18.7096 40.6514 18.7096 40.2952V32.2796C18.7096 31.4595 18.4012 30.6775 17.8418 30.0781L14.8382 26.8597ZM12.5799 19.648C13.1135 19.648 13.5478 20.0823 13.5478 20.6159V25.477L11.6121 23.4032V20.6159C11.6121 20.0823 12.0463 19.648 12.5799 19.648ZM9.35382 13.841C9.88742 13.841 10.3217 14.2752 10.3217 14.8088V20.6159V22.0205L9.88548 21.5534C9.52093 21.163 9.00539 20.9385 8.4705 20.9385H8.38598V14.8088C8.38598 14.2752 8.82021 13.841 9.35382 13.841ZM5.15985 10.9375C5.15985 10.4039 5.59409 9.96965 6.12769 9.96965C6.66129 9.96965 7.09553 10.4039 7.09553 10.9375V14.8088V21.4405C6.80905 21.6986 6.59548 22.0373 6.50321 22.4251L5.15985 20.7152V12.5506V10.9375ZM17.4191 39.65H10.9669V37.493C10.9669 36.6317 10.6314 35.8213 10.0223 35.2122L5.03661 30.2265L1.2885 23.3549V12.5506C1.2885 11.8389 1.86726 11.2601 2.57895 11.2601C3.29063 11.2601 3.8694 11.8389 3.8694 12.5506V20.9385C3.8694 21.083 3.91779 21.223 4.00748 21.3372L11.105 30.3704L12.1193 29.5735L7.74075 24.0001V22.8742C7.74075 22.5186 8.03046 22.2289 8.38598 22.2289H8.4705C8.64858 22.2289 8.82022 22.3038 8.94216 22.4335L16.8991 30.9582C17.234 31.3182 17.4191 31.7873 17.4191 32.2796V39.65Z" fill="white"/>
<path d="M37.4207 9.96965C36.9161 9.96965 36.4483 10.1206 36.0496 10.3723C35.7973 9.40185 34.9204 8.6792 33.8719 8.6792C32.6267 8.6792 31.6136 9.6922 31.6136 10.9375V12.777C31.3194 12.6364 30.9936 12.5506 30.6458 12.5506C29.4005 12.5506 28.3875 13.5636 28.3875 14.8088V18.5841C28.0933 18.4434 27.7675 18.3576 27.4197 18.3576C26.1744 18.3576 25.1614 19.3706 25.1614 20.6159V26.8597L22.1579 30.0781C21.5985 30.6775 21.29 31.4595 21.29 32.2796V40.2952C21.29 40.6514 21.5791 40.9405 21.9353 40.9405H29.678C30.0341 40.9405 30.3232 40.6514 30.3232 40.2952V37.493C30.3232 36.9833 30.5297 36.4852 30.8897 36.1245L35.9412 31.073C35.9844 31.0298 36.0218 30.9795 36.0515 30.9259L39.9229 23.8284C39.9745 23.7336 40.0016 23.6271 40.0016 23.5194V12.5506C40.0016 11.1272 38.844 9.96965 37.4207 9.96965ZM32.9041 10.9375C32.9041 10.4039 33.3383 9.96965 33.8719 9.96965C34.4055 9.96965 34.8398 10.4039 34.8398 10.9375V12.5506V20.7152L33.4964 22.4244C33.4041 22.0367 33.1906 21.6986 32.9041 21.4398V14.8088V10.9375ZM29.678 14.8088C29.678 14.2752 30.1122 13.841 30.6458 13.841C31.1794 13.841 31.6136 14.2752 31.6136 14.8088V20.9385H31.5291C30.9942 20.9385 30.4787 21.163 30.1141 21.5534L29.678 22.0212V20.6159V14.8088ZM26.4518 20.6159C26.4518 20.0823 26.8861 19.648 27.4197 19.648C27.9533 19.648 28.3875 20.0823 28.3875 20.6159V23.4032L26.4518 25.477V20.6159ZM38.7111 23.3549L34.963 30.2259L29.9774 35.2115C29.3683 35.8213 29.0327 36.631 29.0327 37.493V39.65H22.5805V32.2796C22.5805 31.7873 22.7657 31.3182 23.1012 30.9588L31.0581 22.4341C31.1794 22.3038 31.351 22.2289 31.5291 22.2289H31.6136C31.9692 22.2289 32.2589 22.5186 32.2589 22.8742V24.0001L27.8804 29.5729L28.8947 30.3697L35.9921 21.3366C36.0818 21.223 36.1302 21.083 36.1302 20.9385V12.5506C36.1302 11.8389 36.709 11.2601 37.4207 11.2601C38.1324 11.2601 38.7111 11.8389 38.7111 12.5506V23.3549Z" fill="white"/>
<path d="M29.6669 6.25183C29.5585 4.51102 28.6855 2.94247 27.2731 1.94818C25.2116 0.497714 22.4268 0.624178 20.5009 2.25531L20.0002 2.67987L19.4988 2.25531C17.5728 0.624178 14.7887 0.497714 12.7265 1.94818C11.3141 2.94247 10.4411 4.51102 10.3327 6.25183C10.2237 7.99782 10.8973 9.6683 12.1813 10.8355L19.5659 17.5517C19.6892 17.6633 19.8447 17.7194 20.0002 17.7194C20.1557 17.7194 20.3112 17.6633 20.4344 17.5517L27.819 10.8355C29.1024 9.6683 29.776 7.99782 29.6669 6.25183ZM20.0002 16.2031L13.0498 9.88187C12.0574 8.9792 11.5367 7.68553 11.6213 6.33313C11.7051 4.98526 12.3794 3.77159 13.4698 3.00442C14.2047 2.48694 15.059 2.23144 15.912 2.23144C16.894 2.23144 17.8741 2.57018 18.6645 3.24057L19.5827 4.01871C19.8234 4.22196 20.1763 4.22196 20.417 4.01871L21.3358 3.23992C22.8127 1.98883 24.9497 1.89076 26.5305 3.00377C27.6209 3.77094 28.2952 4.98461 28.3791 6.33249C28.4636 7.68553 27.9429 8.9792 26.9505 9.88123L20.0002 16.2031Z" fill="white"/>
</svg>
