<svg width="33" height="37" viewBox="0 0 33 37" fill="none" xmlns="http://www.w3.org/2000/svg">
<path d="M28.802 23.6358H28.8001C29.6638 22.6724 30.1151 21.2421 30.1151 19.8609C30.1151 18.8373 29.7086 17.8557 28.9848 17.132C28.2611 16.4083 27.2795 16.0017 26.256 16.0017C25.2324 16.0017 24.2508 16.4083 23.5271 17.132C22.8034 17.8557 22.3968 18.8373 22.3968 19.8609C22.3968 20.9652 22.7186 22.1472 23.2577 23.0221C23.3907 23.2393 23.5422 23.4446 23.7104 23.6358H23.7078C22.8096 23.6339 21.9338 23.9162 21.2058 24.4424C20.8781 24.388 20.5465 24.3605 20.2143 24.3601H19.5664C19.9675 23.9989 20.3164 23.5836 20.603 23.1262C21.4036 21.8685 21.8627 20.2143 21.8627 18.5876C21.8653 17.8816 21.7285 17.1821 21.4602 16.5291C21.1918 15.8762 20.7972 15.2826 20.2989 14.7825C19.8006 14.2824 19.2085 13.8856 18.5565 13.6148C17.9046 13.344 17.2055 13.2047 16.4996 13.2047C15.7936 13.2047 15.0946 13.344 14.4426 13.6148C13.7906 13.8856 13.1985 14.2824 12.7002 14.7825C12.202 15.2826 11.8073 15.8762 11.539 16.5291C11.2706 17.1821 11.1338 17.8816 11.1364 18.5876C11.1364 20.1508 11.591 21.8223 12.3526 23.0586C12.6455 23.5424 13.0073 23.9809 13.4268 24.3602H12.7831C12.4509 24.3606 12.1193 24.3881 11.7916 24.4425C11.0636 23.9164 10.1878 23.6341 9.28959 23.6359H9.28697C9.45517 23.4447 9.60665 23.2394 9.73973 23.0223C10.2788 22.1472 10.6006 20.9653 10.6006 19.861C10.6006 18.8378 10.1941 17.8564 9.47058 17.1329C8.74703 16.4093 7.76569 16.0028 6.74244 16.0028C5.71919 16.0028 4.73785 16.4093 4.0143 17.1329C3.29076 17.8564 2.88427 18.8378 2.88427 19.861C2.88427 21.2422 3.33572 22.6726 4.19863 23.6359H4.19537C1.93746 23.6359 0.100586 25.3603 0.100586 27.4797V31.9362C0.100586 32.0902 0.161761 32.2379 0.270653 32.3468C0.379545 32.4557 0.527235 32.5168 0.681231 32.5168H7.07559V36.2011C7.07559 36.3551 7.13676 36.5028 7.24565 36.6117C7.35454 36.7206 7.50223 36.7817 7.65623 36.7817H25.342C25.496 36.7817 25.6436 36.7206 25.7525 36.6117C25.8614 36.5028 25.9226 36.3551 25.9226 36.2011V32.5167H32.3182C32.4722 32.5167 32.6199 32.4555 32.7288 32.3466C32.8377 32.2377 32.8988 32.09 32.8988 31.936V27.4796C32.8988 25.3602 31.061 23.6358 28.802 23.6358ZM23.5581 19.8609C23.5581 19.1453 23.8423 18.4591 24.3483 17.9532C24.8542 17.4472 25.5404 17.163 26.256 17.163C26.9715 17.163 27.6577 17.4472 28.1637 17.9532C28.6696 18.4591 28.9539 19.1453 28.9539 19.8609C28.9539 21.3204 28.2208 23.6358 26.2549 23.6358C24.2903 23.6358 23.5581 21.3204 23.5581 19.8609ZM16.4985 14.3844C17.6128 14.3856 18.6811 14.8288 19.469 15.6168C20.257 16.4047 20.7002 17.473 20.7014 18.5873C20.7014 18.6176 20.7002 18.6479 20.6998 18.6782C19.0817 18.4937 17.6852 18.1338 15.7992 16.6551C15.7064 16.5824 15.5936 16.5396 15.4759 16.5325C15.3582 16.5254 15.2411 16.5543 15.1402 16.6154L12.3062 18.3317C12.3721 17.2641 12.8423 16.2616 13.6211 15.5283C14.3999 14.795 15.4288 14.386 16.4985 14.3844ZM13.3413 22.4494C12.8565 21.6623 12.517 20.6646 12.3738 19.6478L15.4032 17.8137C17.3721 19.2746 18.9132 19.6456 20.5969 19.8352C20.4367 20.8131 20.0974 21.7572 19.6233 22.5022C19.0838 23.3497 18.1037 24.3603 16.4984 24.3603C15.1848 24.3601 14.1224 23.7172 13.3413 22.4494ZM4.0452 19.8609C4.0452 19.5067 4.11496 19.156 4.25049 18.8288C4.38602 18.5016 4.58467 18.2043 4.8351 17.9539C5.08552 17.7035 5.38283 17.5048 5.71003 17.3693C6.03723 17.2337 6.38792 17.164 6.74208 17.164C7.09624 17.164 7.44693 17.2337 7.77413 17.3693C8.10133 17.5048 8.39863 17.7035 8.64906 17.9539C8.89949 18.2043 9.09814 18.5016 9.23367 18.8288C9.3692 19.156 9.43896 19.5067 9.43896 19.8609C9.43896 21.3204 8.70676 23.6358 6.74208 23.6358C4.77739 23.6358 4.0452 21.3204 4.0452 19.8609ZM1.26151 31.3554V27.4796C1.26151 26.0005 2.57747 24.7971 4.19501 24.7971H9.28922C9.60198 24.797 9.913 24.8435 10.2121 24.935C8.353 25.8167 7.07501 27.6216 7.07501 29.7019V31.3556L1.26151 31.3554ZM24.7607 35.6204H21.8174V32.0409C21.8174 31.8869 21.7563 31.7392 21.6474 31.6303C21.5385 31.5214 21.3908 31.4603 21.2368 31.4603C21.0828 31.4603 20.9351 31.5214 20.8262 31.6303C20.7173 31.7392 20.6561 31.8869 20.6561 32.0409V35.6204H12.3429V32.0409C12.3429 31.8869 12.2817 31.7392 12.1728 31.6303C12.0639 31.5214 11.9163 31.4603 11.7623 31.4603C11.6083 31.4603 11.4606 31.5214 11.3517 31.6303C11.2428 31.7392 11.1816 31.8869 11.1816 32.0409V35.6204H8.23629V29.7016C8.23629 27.3966 10.2758 25.5214 12.7827 25.5214H20.2146C22.7216 25.5214 24.7611 27.3966 24.7611 29.7016L24.7607 35.6204ZM31.7375 31.3554H25.922V29.7016C25.922 27.6214 24.644 25.8165 22.7849 24.9348C23.084 24.8433 23.395 24.7968 23.7078 24.7969H28.802C30.4206 24.7969 31.7375 26.0002 31.7375 27.4794V31.3554ZM13.2721 7.69563L12.8191 10.8384C12.804 10.943 12.8178 11.0498 12.859 11.1472C12.9001 11.2445 12.9671 11.3288 13.0526 11.391C13.1381 11.4531 13.239 11.4907 13.3443 11.4997C13.4497 11.5087 13.5555 11.4888 13.6503 11.4421L16.4985 10.0398L19.3488 11.4422C19.4436 11.4889 19.5494 11.5088 19.6547 11.4998C19.7601 11.4908 19.8609 11.4532 19.9464 11.391C20.032 11.3289 20.0989 11.2446 20.1401 11.1472C20.1812 11.0498 20.195 10.9431 20.1799 10.8384L19.7268 7.6957L21.941 5.41928C22.0147 5.34351 22.0664 5.24907 22.0903 5.14613C22.1143 5.04319 22.1097 4.93565 22.0771 4.83512C22.0445 4.73459 21.985 4.64487 21.9051 4.57564C21.8253 4.50641 21.728 4.4603 21.6239 4.44227L18.4939 3.90046L17.012 1.09159C16.9627 0.998095 16.8889 0.919831 16.7984 0.86523C16.7079 0.810629 16.6042 0.781761 16.4985 0.781738C16.3928 0.781761 16.2891 0.810645 16.1986 0.865273C16.1081 0.919902 16.0342 0.998202 15.9849 1.09173L14.5051 3.9006L11.3753 4.44234C11.2712 4.46037 11.1739 4.50648 11.0941 4.57571C11.0142 4.64494 10.9547 4.73466 10.9221 4.83519C10.8895 4.93572 10.8849 5.04326 10.9089 5.1462C10.9328 5.24914 10.9845 5.34359 11.0582 5.41935L13.2721 7.69563ZM14.9846 4.99599C15.0721 4.98082 15.1551 4.94575 15.227 4.89348C15.2988 4.84121 15.3578 4.77313 15.3992 4.69449L16.4985 2.60743L17.5998 4.69478C17.6412 4.77335 17.7001 4.84136 17.772 4.89358C17.8439 4.9458 17.9268 4.98083 18.0143 4.99599L20.3407 5.39867L18.6952 7.09074C18.6332 7.15448 18.5867 7.2316 18.5593 7.31617C18.5318 7.40073 18.5241 7.49048 18.5368 7.57848L18.8734 9.91405L16.7549 8.87158C16.6751 8.83231 16.5874 8.81189 16.4984 8.81189C16.4095 8.81189 16.3218 8.83231 16.242 8.87158L14.1257 9.91362L14.4623 7.57841C14.4749 7.49042 14.4673 7.40069 14.4398 7.31614C14.4123 7.23158 14.3658 7.15447 14.3038 7.09074L12.6581 5.39867L14.9846 4.99599ZM2.49531 8.67496L2.18416 10.8387C2.16911 10.9433 2.18292 11.0501 2.22409 11.1474C2.26526 11.2448 2.33223 11.3291 2.41778 11.3912C2.50333 11.4533 2.60421 11.4909 2.70955 11.4998C2.81488 11.5088 2.92067 11.4889 3.0155 11.4422L4.9767 10.476L6.93594 11.442C7.03077 11.4888 7.13655 11.5087 7.2419 11.4998C7.34724 11.4908 7.44813 11.4533 7.5337 11.3912C7.61927 11.3291 7.68626 11.2448 7.72744 11.1474C7.76863 11.0501 7.78246 10.9433 7.76742 10.8387L7.45627 8.67517L8.98112 7.10845C9.05484 7.03269 9.10648 6.93826 9.13048 6.83531C9.15447 6.73237 9.14991 6.62483 9.11729 6.52429C9.08467 6.42375 9.02522 6.33402 8.94535 6.26478C8.86549 6.19553 8.76824 6.14941 8.66409 6.13137L6.50946 5.7583L5.49042 3.82584C5.44114 3.73239 5.36728 3.65415 5.27682 3.59957C5.18636 3.54498 5.08272 3.51611 4.97706 3.51607C4.87143 3.51606 4.7678 3.54487 4.67733 3.59939C4.58685 3.65391 4.51297 3.73208 4.46363 3.82548L3.44242 5.7583L1.28953 6.13144C1.18542 6.14948 1.0882 6.19559 1.00836 6.2648C0.928516 6.33401 0.869071 6.4237 0.836431 6.52419C0.803791 6.62469 0.799193 6.73219 0.823132 6.8351C0.84707 6.93802 0.898638 7.03245 0.972279 7.10823L2.49531 8.67496ZM3.92174 6.85384C4.0092 6.83869 4.09202 6.80369 4.16383 6.75154C4.23565 6.69939 4.29456 6.63146 4.33603 6.55299L4.97634 5.34089L5.61505 6.55299C5.65648 6.63159 5.71541 6.69964 5.78729 6.75188C5.85916 6.80413 5.94207 6.83918 6.02963 6.85434L7.38042 7.0882L6.42447 8.07043C6.36247 8.13414 6.31593 8.21124 6.28843 8.29578C6.26094 8.38031 6.25322 8.47004 6.26588 8.55803L6.46083 9.91362L5.23327 9.30844C5.15344 9.2691 5.06563 9.24864 4.97663 9.24864C4.88763 9.24864 4.79982 9.2691 4.71998 9.30844L3.4901 9.91427L3.68513 8.55817C3.69777 8.47023 3.69007 8.38056 3.66262 8.29607C3.63516 8.21157 3.58868 8.1345 3.52676 8.07079L2.57196 7.08776L3.92174 6.85384ZM25.5408 8.67496L25.23 10.8387C25.2149 10.9433 25.2287 11.0501 25.2699 11.1474C25.3111 11.2448 25.378 11.3291 25.4636 11.3912C25.5491 11.4533 25.65 11.4909 25.7554 11.4998C25.8607 11.5088 25.9665 11.4889 26.0613 11.4422L28.0226 10.476L29.9839 11.4422C30.0788 11.4889 30.1846 11.5088 30.29 11.4998C30.3954 11.4908 30.4963 11.4532 30.5818 11.391C30.6674 11.3289 30.7344 11.2445 30.7755 11.1471C30.8166 11.0496 30.8303 10.9428 30.8152 10.8381L30.5023 8.67525L32.0269 7.10874C32.1006 7.03299 32.1523 6.93855 32.1763 6.8356C32.2003 6.73266 32.1957 6.62512 32.1631 6.52458C32.1305 6.42404 32.071 6.33431 31.9912 6.26507C31.9113 6.19582 31.814 6.1497 31.7099 6.13166L29.5552 5.75859L28.5359 3.82584C28.4866 3.73238 28.4127 3.65414 28.3222 3.59955C28.2318 3.54496 28.1281 3.5161 28.0224 3.51607C27.9168 3.51608 27.8132 3.54489 27.7227 3.59941C27.6323 3.65393 27.5584 3.73209 27.5091 3.82548L26.4881 5.7583L24.3352 6.13144C24.2311 6.14947 24.1338 6.19558 24.054 6.26478C23.9741 6.33399 23.9147 6.42367 23.882 6.52417C23.8494 6.62467 23.8448 6.73217 23.8687 6.83509C23.8927 6.93801 23.9442 7.03245 24.0179 7.10823L25.5408 8.67496ZM26.9672 6.85384C27.0546 6.83868 27.1375 6.80368 27.2093 6.75151C27.2811 6.69934 27.34 6.6314 27.3815 6.55292L28.0218 5.34082L28.6605 6.55292C28.7019 6.63152 28.7609 6.69957 28.8327 6.75181C28.9046 6.80406 28.9875 6.83911 29.0751 6.85427L30.4259 7.08813L29.4699 8.07036C29.4079 8.13413 29.3613 8.21132 29.3338 8.29595C29.3063 8.38058 29.2986 8.4704 29.3114 8.55846L29.5074 9.91354L28.2786 9.30822C28.1987 9.26894 28.1109 9.24851 28.022 9.24851C27.933 9.24851 27.8452 9.26894 27.7654 9.30822L26.5355 9.91398L26.7306 8.55803C26.7432 8.47008 26.7355 8.38039 26.7081 8.29588C26.6806 8.21137 26.6341 8.13429 26.5722 8.07058L25.6174 7.08776L26.9672 6.85384Z" fill="white"/>
</svg>
