<svg width="208" height="51" viewBox="0 0 208 51" fill="none" xmlns="http://www.w3.org/2000/svg">
<path d="M62.8438 35.1211H77.497V30.7075H68.0518V14.0828H62.8438V35.1211Z" fill="#0C1524"/>
<path d="M86.1813 32.1788C84.0921 32.1788 83.0034 30.3545 83.0034 27.618C83.0034 24.8816 84.0921 23.0278 86.1813 23.0278C88.2704 23.0278 89.3885 24.8816 89.3885 27.618C89.3885 30.3545 88.2704 32.1788 86.1813 32.1788ZM86.2107 35.592C91.0657 35.592 94.2435 32.1494 94.2435 27.618C94.2435 23.0867 91.0657 19.644 86.2107 19.644C81.3851 19.644 78.1484 23.0867 78.1484 27.618C78.1484 32.1494 81.3851 35.592 86.2107 35.592Z" fill="#0C1524"/>
<path d="M102.647 40.3292C104.883 40.3292 106.854 39.829 108.178 38.652C109.385 37.5633 110.179 35.9155 110.179 33.6499V20.0559H105.589V21.6742H105.53C104.647 20.409 103.294 19.6145 101.293 19.6145C97.5561 19.6145 94.9668 22.7335 94.9668 27.1471C94.9668 31.7667 98.1152 34.2972 101.499 34.2972C103.323 34.2972 104.471 33.5616 105.354 32.5612H105.471V34.0618C105.471 35.8861 104.618 36.9454 102.588 36.9454C100.999 36.9454 100.204 36.2686 99.9395 35.4742H95.2905C95.7613 38.6226 98.4977 40.3292 102.647 40.3292ZM102.617 30.7369C100.822 30.7369 99.6453 29.2657 99.6453 27C99.6453 24.7049 100.822 23.2337 102.617 23.2337C104.618 23.2337 105.677 24.9403 105.677 26.9706C105.677 29.0891 104.706 30.7369 102.617 30.7369Z" fill="#0C1524"/>
<path d="M119.617 32.1788C117.528 32.1788 116.439 30.3545 116.439 27.618C116.439 24.8816 117.528 23.0278 119.617 23.0278C121.706 23.0278 122.824 24.8816 122.824 27.618C122.824 30.3545 121.706 32.1788 119.617 32.1788ZM119.646 35.592C124.501 35.592 127.679 32.1494 127.679 27.618C127.679 23.0867 124.501 19.644 119.646 19.644C114.821 19.644 111.584 23.0867 111.584 27.618C111.584 32.1494 114.821 35.592 119.646 35.592Z" fill="#0C1524"/>
<path d="M129.08 35.1211H133.876V20.0559H129.08V35.1211ZM129.08 17.9668H133.876V14.0828H129.08V17.9668Z" fill="#0C1524"/>
<path d="M135.957 40.0938H140.753V33.5616H140.812C141.754 34.8268 143.137 35.5919 145.079 35.5919C149.021 35.5919 151.64 32.4729 151.64 27.5885C151.64 23.0571 149.198 19.6145 145.196 19.6145C143.137 19.6145 141.665 20.5267 140.635 21.8802H140.547V20.0559H135.957V40.0938ZM143.843 31.8844C141.783 31.8844 140.606 30.2072 140.606 27.765C140.606 25.3228 141.665 23.4691 143.754 23.4691C145.814 23.4691 146.785 25.1757 146.785 27.765C146.785 30.3249 145.667 31.8844 143.843 31.8844Z" fill="#0C1524"/>
<path d="M159.45 35.5919C163.393 35.5919 166.306 33.8853 166.306 30.5898C166.306 26.7352 163.187 26.0584 160.538 25.6171C158.626 25.264 156.919 25.1168 156.919 24.0576C156.919 23.116 157.831 22.6746 159.008 22.6746C160.332 22.6746 161.245 23.0866 161.421 24.4401H165.835C165.599 21.4682 163.304 19.6145 159.038 19.6145C155.477 19.6145 152.535 21.2623 152.535 24.4401C152.535 27.971 155.33 28.6772 157.949 29.1185C159.95 29.4716 161.774 29.6188 161.774 30.9723C161.774 31.9433 160.862 32.4729 159.42 32.4729C157.831 32.4729 156.831 31.7373 156.654 30.2367H152.123C152.27 33.5616 155.036 35.5919 159.45 35.5919Z" fill="#0C1524"/>
<path d="M172.818 35.5625C174.907 35.5625 176.231 34.7386 177.32 33.2674H177.408V35.1211H181.998V20.0559H177.202V28.4712C177.202 30.2661 176.202 31.5019 174.554 31.5019C173.024 31.5019 172.288 30.5898 172.288 28.942V20.0559H167.521V29.9425C167.521 33.2968 169.346 35.5625 172.818 35.5625Z" fill="#0C1524"/>
<path d="M184.086 35.1211H188.882V26.6763C188.882 24.8814 189.765 23.6162 191.265 23.6162C192.707 23.6162 193.384 24.5578 193.384 26.1761V35.1211H198.18V26.6763C198.18 24.8814 199.033 23.6162 200.564 23.6162C202.005 23.6162 202.682 24.5578 202.682 26.1761V35.1211H207.478V25.3228C207.478 21.939 205.772 19.6145 202.358 19.6145C200.416 19.6145 198.798 20.4384 197.621 22.2627H197.562C196.797 20.6444 195.297 19.6145 193.325 19.6145C191.148 19.6145 189.706 20.6444 188.764 22.2038H188.676V20.0559H184.086V35.1211Z" fill="#0C1524"/>
<path fill-rule="evenodd" clip-rule="evenodd" d="M25.8496 0.313232C39.6567 0.313232 50.8496 11.5061 50.8496 25.3132C50.8496 39.1204 39.6567 50.3132 25.8496 50.3132C12.0425 50.3132 0.849609 39.1204 0.849609 25.3132C0.849609 11.5061 12.0425 0.313232 25.8496 0.313232ZM49.89 25.3132C49.89 12.0361 39.1267 1.27273 25.8496 1.27273C24.7786 1.27273 23.7241 1.34276 22.6901 1.4785C23.3581 1.42009 24.0342 1.39027 24.7173 1.39027C37.4043 1.39027 47.6892 11.6751 47.6892 24.3621C47.6892 37.049 37.4043 47.3339 24.7173 47.3339C12.7061 47.3339 2.848 38.1157 1.83184 26.3679C2.38386 39.1557 12.9258 49.3536 25.8496 49.3536C39.1267 49.3536 49.89 38.5904 49.89 25.3132ZM46.7296 24.3621C46.7296 12.205 36.8744 2.34978 24.7173 2.34978C23.7302 2.34978 22.7582 2.41476 21.8055 2.54066C22.3922 2.4913 22.9857 2.46612 23.5851 2.46612C35.152 2.46612 44.5288 11.843 44.5288 23.4098C44.5288 34.9767 35.152 44.3535 23.5851 44.3535C12.6483 44.3535 3.66946 35.9704 2.72375 25.2793C3.20458 37.011 12.8675 46.3744 24.7173 46.3744C36.8744 46.3744 46.7296 36.5191 46.7296 24.3621ZM23.5851 3.42563C34.622 3.42563 43.5693 12.3729 43.5693 23.4098C43.5693 34.4467 34.622 43.3939 23.5851 43.3939C12.8039 43.3939 4.01661 34.8564 3.61527 24.1733C4.48176 33.8159 12.5848 41.3729 22.453 41.3729C32.8989 41.3729 41.3673 32.9047 41.3673 22.4586C41.3673 12.0125 32.8989 3.54436 22.453 3.54436C21.9125 3.54436 21.3774 3.56703 20.8485 3.61145C21.7432 3.48893 22.6567 3.42563 23.5851 3.42563ZM40.4076 22.4586C40.4076 12.5425 32.3691 4.50387 22.453 4.50387C21.6151 4.50387 20.7906 4.56125 19.9834 4.6723C20.4242 4.6378 20.8697 4.62023 21.3194 4.62023C30.6454 4.62023 38.2056 12.1804 38.2056 21.5064C38.2056 30.8323 30.6454 38.3925 21.3194 38.3925C12.5416 38.3925 5.32812 31.6949 4.51048 23.1313C4.86422 32.7358 12.762 40.4134 22.453 40.4134C32.3691 40.4134 40.4076 32.3749 40.4076 22.4586ZM21.3194 5.57974C30.1154 5.57974 37.246 12.7104 37.246 21.5064C37.246 30.3024 30.1154 37.433 21.3194 37.433C12.6967 37.433 5.6744 30.5806 5.40107 22.0243C6.13929 29.54 12.4775 35.4121 20.1872 35.4121C28.3931 35.4121 35.0452 28.7598 35.0452 20.554C35.0452 12.3482 28.3931 5.69607 20.1872 5.69607C19.8109 5.69607 19.4378 5.71006 19.0686 5.73755C19.8039 5.63353 20.5553 5.57974 21.3194 5.57974ZM34.0857 20.554C34.0857 12.8781 27.8631 6.65558 20.1872 6.65558C19.4865 6.65558 18.798 6.70743 18.1252 6.8075C18.4323 6.78551 18.7423 6.77431 19.0551 6.77431C26.1401 6.77431 31.8837 12.5179 31.8837 19.6029C31.8837 26.688 26.1401 32.4315 19.0551 32.4315C12.4159 32.4315 6.9548 27.3883 6.29358 20.9238C6.48961 28.4288 12.635 34.4526 20.1872 34.4526C27.8631 34.4526 34.0857 28.23 34.0857 20.554ZM19.0551 7.73383C25.6102 7.73383 30.9241 13.0478 30.9241 19.6029C30.9241 26.1581 25.6102 31.472 19.0551 31.472C12.5833 31.472 7.32137 26.2925 7.18848 19.8526C7.78632 25.2519 12.3642 29.4511 17.9229 29.4511C23.8878 29.4511 28.7233 24.6156 28.7233 18.6506C28.7233 12.6857 23.8878 7.85016 17.9229 7.85016C17.6947 7.85016 17.4683 7.85723 17.2436 7.87117C17.8342 7.78073 18.4391 7.73383 19.0551 7.73383ZM27.7638 18.6506C27.7638 13.2156 23.3579 8.80967 17.9229 8.80967C17.377 8.80967 16.8416 8.8541 16.32 8.93955C16.4754 8.93136 16.6319 8.92721 16.7894 8.92721C21.6341 8.92721 25.5616 12.8547 25.5616 17.6995C25.5616 22.5443 21.6341 26.4719 16.7894 26.4719C12.3096 26.4719 8.61412 23.1138 8.08267 18.7777C8.15072 24.1542 12.5302 28.4916 17.9229 28.4916C23.3579 28.4916 27.7638 24.0857 27.7638 18.6506ZM16.7894 9.88671C21.1042 9.88671 24.6022 13.3846 24.6022 17.6995C24.6022 22.0145 21.1042 25.5123 16.7894 25.5123C12.4745 25.5123 8.97657 22.0145 8.97657 17.6995C8.97657 17.6892 8.97659 17.6788 8.97663 17.6685C9.42587 20.9566 12.2456 23.4902 15.6572 23.4902C19.3812 23.4902 22.4001 20.4713 22.4001 16.7473C22.4001 13.0231 19.3812 10.0043 15.6572 10.0043C15.573 10.0043 15.4891 10.0058 15.4056 10.0089C15.8547 9.92861 16.3172 9.88671 16.7894 9.88671ZM21.4405 16.7473C21.4405 13.5531 18.8513 10.9638 15.6572 10.9638C12.4631 10.9638 9.87373 13.5531 9.87373 16.7473C9.87373 19.9413 12.4631 22.5306 15.6572 22.5306C18.8513 22.5306 21.4405 19.9413 21.4405 16.7473Z" fill="#FF8159"/>
</svg>
