<svg width="31" height="31" viewBox="0 0 31 31" fill="none" xmlns="http://www.w3.org/2000/svg">
<path d="M10.3665 11.3688H6.97938V7.98168C6.97938 7.85335 6.92841 7.73027 6.83766 7.63953C6.74692 7.54878 6.62384 7.4978 6.49551 7.4978C5.63419 7.4978 4.79222 7.75321 4.07607 8.23173C3.35991 8.71025 2.80173 9.39039 2.47212 10.1861C2.14251 10.9819 2.05627 11.8575 2.2243 12.7023C2.39234 13.547 2.8071 14.323 3.41614 14.9321C4.02518 15.5411 4.80115 15.9559 5.64591 16.1239C6.49068 16.2919 7.3663 16.2057 8.16205 15.8761C8.9578 15.5465 9.63794 14.9883 10.1165 14.2721C10.595 13.556 10.8504 12.714 10.8504 11.8527C10.8504 11.7244 10.7994 11.6013 10.7087 11.5105C10.6179 11.4198 10.4948 11.3688 10.3665 11.3688ZM6.01163 8.49991V11.6524L3.7858 13.8782C3.4325 13.4086 3.20775 12.855 3.13372 12.272C3.0597 11.689 3.13896 11.0968 3.36368 10.5538C3.58841 10.0108 3.95083 9.53573 4.41519 9.17556C4.87955 8.81538 5.4298 8.58251 6.01163 8.49991ZM6.49551 15.2398C5.76502 15.2398 5.05438 15.002 4.47097 14.5624L6.6968 12.3366H9.84925C9.73181 13.1425 9.32837 13.8792 8.71263 14.4123C8.09688 14.9453 7.30992 15.239 6.49551 15.2398Z" fill="white"/>
<path d="M8.43114 10.4013H12.3021C12.4305 10.4013 12.5536 10.3503 12.6443 10.2595C12.735 10.1688 12.786 10.0457 12.786 9.91738C12.7846 8.76283 12.3253 7.65596 11.509 6.83957C10.6926 6.02318 9.5857 5.56391 8.43114 5.5625C8.30281 5.5625 8.17973 5.61348 8.08899 5.70422C7.99824 5.79497 7.94727 5.91804 7.94727 6.04638V9.91738C7.94727 10.0457 7.99824 10.1688 8.08899 10.2595C8.17973 10.3503 8.30281 10.4013 8.43114 10.4013ZM8.91502 6.56461C9.63829 6.67034 10.3081 7.00664 10.825 7.52351C11.3419 8.04038 11.6782 8.71023 11.7839 9.43351H8.91502V6.56461Z" fill="white"/>
<path d="M18.5931 12.8206C17.349 12.8206 16.1328 13.1895 15.0984 13.8807C14.0639 14.5719 13.2577 15.5543 12.7816 16.7037C12.3055 17.8531 12.1809 19.1179 12.4236 20.3381C12.6663 21.5584 13.2654 22.6792 14.1451 23.5589C15.0249 24.4386 16.1457 25.0377 17.3659 25.2805C18.5861 25.5232 19.8509 25.3986 21.0003 24.9225C22.1498 24.4464 23.1322 23.6401 23.8234 22.6057C24.5146 21.5712 24.8835 20.3551 24.8835 19.1109C24.8816 17.4432 24.2182 15.8443 23.039 14.6651C21.8597 13.4858 20.2608 12.8225 18.5931 12.8206ZM16.1737 17.1754V14.3757C16.4831 14.2173 16.8072 14.0896 17.1415 13.9944V17.1754H16.1737ZM21.9803 18.1432V19.1109H15.206V18.1432H21.9803ZM20.0447 17.1754V13.9944C20.379 14.0896 20.7032 14.2173 21.0125 14.3757V17.1754H20.0447ZM19.077 13.813V17.1754H18.1092V13.813C18.2689 13.7985 18.4296 13.7883 18.5931 13.7883C18.7567 13.7883 18.9173 13.7985 19.077 13.813ZM15.206 15.0082V17.1754H14.7221C14.5938 17.1754 14.4707 17.2264 14.38 17.3172C14.2892 17.4079 14.2382 17.531 14.2382 17.6593V19.5948C14.2382 19.7231 14.2892 19.8462 14.38 19.937C14.4707 20.0277 14.5938 20.0787 14.7221 20.0787H22.4641C22.5925 20.0787 22.7155 20.0277 22.8063 19.937C22.897 19.8462 22.948 19.7231 22.948 19.5948V17.6593C22.948 17.531 22.897 17.4079 22.8063 17.3172C22.7155 17.2264 22.5925 17.1754 22.4641 17.1754H21.9803V15.0082C22.8465 15.7195 23.4648 16.6874 23.7462 17.7724C24.0275 18.8574 23.9575 20.0037 23.5461 21.0464H13.6402C13.2288 20.0037 13.1587 18.8574 13.4401 17.7724C13.7214 16.6874 14.3397 15.7195 15.206 15.0082ZM18.5931 24.4336C17.7078 24.4326 16.8368 24.2109 16.0588 23.7885C15.2808 23.366 14.6205 22.7562 14.1376 22.0142H23.0487C22.5658 22.7562 21.9054 23.366 21.1275 23.7885C20.3495 24.2109 19.4784 24.4326 18.5931 24.4336Z" fill="white"/>
<path d="M29.5623 26.9773L27.4691 24.884C27.5658 24.7018 27.6018 24.4934 27.5718 24.2893C27.5418 24.0852 27.4473 23.896 27.3021 23.7493L26.0707 22.5179C26.6638 21.2286 26.9108 19.807 26.7873 18.3932C26.6639 16.9793 26.1742 15.6221 25.3666 14.4551V2.17526C25.3666 1.79026 25.2137 1.42104 24.9414 1.1488C24.6692 0.876572 24.3 0.723633 23.915 0.723633H1.65671C1.27171 0.723633 0.902483 0.876572 0.63025 1.1488C0.358017 1.42104 0.205078 1.79026 0.205078 2.17526V20.5625C0.205078 20.9475 0.358017 21.3168 0.63025 21.589C0.902483 21.8612 1.27171 22.0142 1.65671 22.0142H10.9055C11.3001 23.0688 11.9078 24.0308 12.6907 24.8401C13.4737 25.6494 14.415 26.2886 15.456 26.7179C16.497 27.1472 17.6152 27.3574 18.7411 27.3352C19.8669 27.3131 20.976 27.0591 21.9993 26.5892L23.2308 27.8207C23.3763 27.9677 23.5656 28.0635 23.7703 28.0936C23.9749 28.1238 24.1838 28.0865 24.3655 27.9876L26.4587 30.0809C26.8703 30.4924 27.4285 30.7236 28.0105 30.7236C28.5926 30.7236 29.1507 30.4924 29.5623 30.0809C29.9739 29.6693 30.2051 29.1111 30.2051 28.5291C30.2051 27.947 29.9739 27.3888 29.5623 26.9773ZM1.65671 1.69138H23.915C24.0433 1.69138 24.1664 1.74236 24.2571 1.83311C24.3479 1.92385 24.3989 2.04693 24.3989 2.17526V3.62689H1.17283V2.17526C1.17283 2.04693 1.22381 1.92385 1.31455 1.83311C1.4053 1.74236 1.52837 1.69138 1.65671 1.69138ZM1.65671 21.0464C1.52837 21.0464 1.4053 20.9954 1.31455 20.9047C1.22381 20.8139 1.17283 20.6909 1.17283 20.5625V4.59464H24.3989V13.2904C23.6986 12.5945 22.8792 12.0299 21.9795 11.6234V6.04627C21.9795 5.91793 21.9285 5.79486 21.8378 5.70411C21.747 5.61337 21.6239 5.56239 21.4956 5.56239H19.5601C19.4318 5.56239 19.3087 5.61337 19.218 5.70411C19.1272 5.79486 19.0762 5.91793 19.0762 6.04627V10.9097C18.9151 10.9 18.7559 10.885 18.5924 10.885C18.4288 10.885 18.2696 10.9 18.1085 10.9097V8.94952C18.1085 8.82119 18.0575 8.69811 17.9668 8.60737C17.876 8.51662 17.7529 8.46565 17.6246 8.46565H15.6891C15.5608 8.46565 15.4377 8.51662 15.347 8.60737C15.2562 8.69811 15.2052 8.82119 15.2052 8.94952V11.6234C13.4553 12.4053 12.036 13.7775 11.1956 15.5001C10.3553 17.2228 10.1474 19.186 10.6084 21.0464H1.65671ZM21.0117 11.2494C20.6941 11.1536 20.3709 11.0773 20.044 11.021V6.53014H21.0117V11.2494ZM17.1407 11.021C16.8138 11.0773 16.4906 11.1536 16.173 11.2494V9.4334H17.1407V11.021ZM11.3342 19.1109C11.3342 17.6754 11.7599 16.2721 12.5574 15.0785C13.355 13.8849 14.4885 12.9546 15.8148 12.4053C17.141 11.8559 18.6004 11.7122 20.0083 11.9922C21.4163 12.2723 22.7096 12.9636 23.7246 13.9786C24.7397 14.9937 25.431 16.287 25.711 17.6949C25.9911 19.1029 25.8474 20.5622 25.298 21.8885C24.7486 23.2147 23.8184 24.3483 22.6248 25.1458C21.4312 25.9434 20.0279 26.369 18.5924 26.369C16.668 26.3669 14.8232 25.6015 13.4625 24.2408C12.1018 22.8801 11.3364 21.0352 11.3342 19.1109ZM22.8901 26.1116C23.9897 25.434 24.9154 24.5083 25.5931 23.4087L26.6179 24.4335L23.915 27.1365L22.8901 26.1116ZM28.0105 29.7562C27.8493 29.7566 27.6896 29.725 27.5407 29.6633C27.3918 29.6016 27.2566 29.511 27.1429 29.3967L25.0831 27.3368L26.8182 25.6016L28.8781 27.6615C29.0497 27.8331 29.1665 28.0517 29.2138 28.2897C29.2612 28.5277 29.2369 28.7744 29.144 28.9986C29.0512 29.2228 28.8939 29.4145 28.6921 29.5493C28.4904 29.6841 28.2532 29.7561 28.0105 29.7562Z" fill="white"/>
<path d="M8.43101 17.1753H2.6245C2.49617 17.1753 2.37309 17.2263 2.28235 17.317C2.1916 17.4078 2.14062 17.5308 2.14062 17.6592V19.5947C2.14062 19.723 2.1916 19.8461 2.28235 19.9368C2.37309 20.0276 2.49617 20.0785 2.6245 20.0785H8.43101C8.55934 20.0785 8.68242 20.0276 8.77316 19.9368C8.86391 19.8461 8.91489 19.723 8.91489 19.5947V17.6592C8.91489 17.5308 8.86391 17.4078 8.77316 17.317C8.68242 17.2263 8.55934 17.1753 8.43101 17.1753ZM7.94713 19.1108H3.10838V18.143H7.94713V19.1108Z" fill="white"/>
</svg>
