<svg width="24" height="26" viewBox="0 0 24 26" fill="none" xmlns="http://www.w3.org/2000/svg">
<path d="M23.3149 4.25584L19.8593 0.800269C19.6422 0.583276 19.3537 0.463745 19.0468 0.463745H4.49746C3.86392 0.463745 3.34844 0.979224 3.34844 1.61277V12.9889H2.54043C1.69102 12.9889 1 13.68 1 14.5294V21.5748C1 22.4242 1.69102 23.1153 2.54043 23.1153H14.6742C15.3078 23.1153 15.8232 22.5998 15.8232 21.9662V16.4865C15.8232 15.8529 15.3078 15.3374 14.6742 15.3374H2.54043C2.09487 15.3374 1.73242 14.975 1.73242 14.5294C1.73242 14.0839 2.09487 13.7214 2.54043 13.7214H3.34844V14.1382C3.34844 14.3404 3.5124 14.5044 3.71465 14.5044C3.91689 14.5044 4.08086 14.3404 4.08086 14.1382V1.61277C4.08086 1.38303 4.26777 1.19617 4.49746 1.19617H18.6135V4.74407C18.6135 5.16184 18.9534 5.50173 19.3711 5.50173H22.919V24.3147C22.919 24.5445 22.7321 24.7313 22.5024 24.7313H4.49746C4.26772 24.7313 4.08086 24.5445 4.08086 24.3147C4.08086 24.1125 3.91689 23.9485 3.71465 23.9485C3.5124 23.9485 3.34844 24.1125 3.34844 24.3147C3.34844 24.9483 3.86392 25.4637 4.49746 25.4637H22.5024C23.136 25.4637 23.6515 24.9483 23.6515 24.3147V5.06834C23.6515 4.76145 23.532 4.47288 23.3149 4.25584ZM2.54043 16.0698H14.6742C14.904 16.0698 15.0908 16.2568 15.0908 16.4865V21.9663C15.0908 22.196 14.9039 22.3829 14.6742 22.3829H2.54043C2.09487 22.3829 1.73242 22.0204 1.73242 21.5748V15.8405C1.96743 15.9859 2.24429 16.0698 2.54043 16.0698ZM19.3459 4.74407V1.32278L22.7926 4.76931H19.3711C19.3573 4.76931 19.3459 4.75798 19.3459 4.74407Z" fill="#FF8159" stroke="#FF8159" stroke-width="0.3"/>
<path d="M11.3779 21.1467C11.5802 21.1467 11.7441 20.9828 11.7441 20.7805V19.5631H12.5376C12.7399 19.5631 12.9039 19.3991 12.9039 19.1969C12.9039 18.9946 12.7399 18.8307 12.5376 18.8307H11.7441V18.0383H12.6377C12.84 18.0383 13.004 17.8744 13.004 17.6721C13.004 17.4698 12.84 17.3059 12.6377 17.3059H11.3779C11.1757 17.3059 11.0117 17.4698 11.0117 17.6721V20.7805C11.0117 20.9827 11.1757 21.1467 11.3779 21.1467Z" fill="#FF8159" stroke="#FF8159" stroke-width="0.3"/>
<path d="M7.52647 21.0056C7.59507 21.0737 7.68784 21.1119 7.78447 21.1119H7.78584C7.81187 21.1118 8.42539 21.1095 8.67046 21.1052C9.57539 21.0894 10.2322 20.2992 10.2322 19.2264C10.2322 18.0986 9.59194 17.3408 8.63892 17.3408H7.77832C7.68106 17.3408 7.58784 17.3795 7.51914 17.4483C7.45044 17.5172 7.41191 17.6105 7.41211 17.7077V17.7101V17.7102V20.6963C7.41211 20.7215 7.41465 20.746 7.41948 20.7698C7.42534 20.8586 7.46294 20.9426 7.52647 21.0056ZM8.63892 18.0732C9.27368 18.0732 9.49981 18.6689 9.49981 19.2264C9.49981 20.0082 9.07686 20.3656 8.65767 20.3729C8.54116 20.3749 8.3333 20.3765 8.14942 20.3776C8.14824 20.0184 8.1458 18.447 8.14517 18.0732H8.63892Z" fill="#FF8159" stroke="#FF8159" stroke-width="0.3"/>
<path d="M4.4873 21.1582C4.68955 21.1582 4.85352 20.9943 4.85352 20.792V19.7961C5.03535 19.7951 5.24209 19.7942 5.35918 19.7942C6.05791 19.7942 6.62637 19.2335 6.62637 18.5443C6.62637 17.8551 6.05791 17.2944 5.35918 17.2944H4.4873C4.38999 17.2944 4.29668 17.3332 4.22793 17.4021C4.15947 17.4708 4.12114 17.5638 4.12114 17.6606L4.12109 20.7919C4.12109 20.9943 4.28506 21.1582 4.4873 21.1582ZM5.35918 18.0269C5.64907 18.0269 5.89395 18.2639 5.89395 18.5444C5.89395 18.8249 5.64907 19.0618 5.35918 19.0618C5.24287 19.0618 5.03872 19.0627 4.85757 19.0637C4.85659 18.8766 4.85513 18.2227 4.85459 18.027H5.35918V18.0269Z" fill="#FF8159" stroke="#FF8159" stroke-width="0.3"/>
<path d="M11.345 11.082C10.445 11.3661 9.52118 11.7593 9.02841 12.268C8.62182 12.6876 8.54813 13.1746 8.82621 13.6039C9.01493 13.8953 9.27435 14.0476 9.56605 14.0476C9.67802 14.0476 9.79476 14.0251 9.91405 13.9795C10.3444 13.8149 10.8091 13.3468 11.3349 12.5483C11.5046 12.2906 11.6764 12.0041 11.8475 11.6942C11.9097 11.6759 11.9732 11.6577 12.0381 11.6395C13.0716 11.3503 14.2409 11.1405 15.267 11.0528C15.8926 11.6577 16.5391 12.1289 17.0904 12.2575C17.6968 12.399 18.1775 12.1217 18.3761 11.5157C18.4964 11.1487 18.3579 10.8026 18.0056 10.5899C17.6434 10.3712 17.014 10.2656 16.1352 10.2757C15.948 10.2778 15.7505 10.2854 15.5449 10.2982C15.1501 9.89106 14.7394 9.40449 14.3438 8.86713C14.0374 8.45087 13.7635 8.03432 13.5318 7.63837C13.557 7.5516 13.5809 7.46601 13.6037 7.38193C13.854 6.45356 13.9433 5.74277 13.869 5.26923C13.7618 4.58539 13.3204 4.48827 13.1356 4.47831C12.5065 4.44428 12.0827 4.76171 12.0021 5.32739C11.938 5.77675 12.0891 6.39501 12.4512 7.16493C12.5373 7.34794 12.6338 7.53657 12.7398 7.72919C12.7003 7.85595 12.6575 7.98784 12.6111 8.12509C12.2735 9.12382 11.8163 10.188 11.345 11.082ZM9.58637 13.3132C9.56024 13.3164 9.5162 13.322 9.44091 13.2057C9.37963 13.1111 9.37631 13.0397 9.4286 12.9422C9.55087 12.7143 9.9683 12.3945 10.7761 12.0641C10.2123 12.9385 9.79096 13.2876 9.58637 13.3132ZM17.6862 11.2627C17.6856 11.2673 17.6842 11.2754 17.6801 11.2877C17.5887 11.5668 17.4658 11.5931 17.2567 11.5443C17.0016 11.4848 16.6774 11.2963 16.3159 11.0078C17.2948 11.0156 17.6363 11.1919 17.6862 11.2627ZM12.7271 5.4308C12.7421 5.32612 12.7588 5.20839 13.0374 5.20839C13.055 5.20839 13.0736 5.20888 13.0932 5.20981C13.1766 5.31142 13.2195 5.76352 13.0266 6.65825C12.7993 6.137 12.6882 5.704 12.7271 5.4308ZM13.2371 8.556C13.3978 8.80302 13.5707 9.05248 13.754 9.30141C14.0169 9.65854 14.3139 10.0293 14.628 10.3832C14.2646 10.427 13.8898 10.4836 13.5148 10.5517C13.2611 10.5977 12.8188 10.6846 12.301 10.8138C12.4159 10.5756 12.5291 10.3288 12.6399 10.075C12.8601 9.57065 13.0626 9.05458 13.2371 8.556Z" fill="#FF8159" stroke="#FF8159" stroke-width="0.3"/>
</svg>
